<svg width="12" height="12" viewBox="0 0 12 12" fill="none" xmlns="http://www.w3.org/2000/svg">
<path d="M6.08841 0C6.11118 0.0028834 6.1008 -0.00161054 6.11846 0.0177899C6.1059 0.200157 6.05031 0.346028 5.99259 0.497667C5.74345 1.15231 5.38074 0.913513 4.96291 1.26278C4.88616 1.32693 4.81673 1.45299 4.7674 1.5426C4.88915 1.47982 5.08058 1.38207 5.2165 1.36786C5.48633 1.33966 5.84659 1.55604 6.04896 1.71544C5.56941 1.89459 5.03701 2.35317 4.68752 1.77335C4.64873 1.78248 4.58242 1.79911 4.54753 1.81353C4.34646 1.89654 4.17547 2.27585 4.09446 2.46369C4.35066 2.30966 4.47514 2.18883 4.79598 2.24299C5.01094 2.27927 5.1375 2.33764 5.32256 2.45015C5.13414 2.55309 4.98205 2.71872 4.80654 2.84921C4.46794 3.10091 4.28213 2.89696 3.9092 2.83468C3.77208 3.06262 3.70487 3.27234 3.65225 3.52988C3.67342 3.51495 3.70951 3.48782 3.72815 3.47002C4.06501 3.14837 4.36422 3.17398 4.80826 3.18654C4.62351 3.60341 4.41792 4.00925 3.89104 3.98655C3.78984 3.98721 3.56524 3.94033 3.50179 4.04827C3.38609 4.24507 3.39164 4.65702 3.41303 4.86969C3.49101 4.78254 3.53863 4.66507 3.61642 4.58634C3.8674 4.33232 4.22871 4.39756 4.52333 4.32145C4.46015 4.61911 4.33863 4.89648 4.11588 5.11264C3.89729 5.32478 3.65312 5.28023 3.36881 5.27029C3.37869 5.31529 3.38489 5.36115 3.38919 5.40699C3.41092 5.63857 3.44373 5.85559 3.49472 6.08229C3.70936 5.7057 3.97329 5.52852 4.37185 5.39127C4.37602 5.65802 4.36505 6.0966 4.22432 6.3231C4.09544 6.53051 3.86427 6.60094 3.64063 6.65329C3.67634 6.81207 4.00783 7.738 4.10117 7.83555C4.14048 7.84953 4.14167 7.8575 4.17642 7.84727C4.17001 7.79283 4.06908 7.61226 4.04219 7.54758C3.89905 7.20332 4.14955 6.80965 4.41654 6.6019C4.49871 6.53795 4.5904 6.49857 4.68478 6.45882C4.68951 6.80571 4.89265 7.28092 4.71119 7.5557C4.63535 7.67958 4.43323 7.79703 4.36203 7.9133C4.19463 8.1867 4.70618 8.70223 4.9078 8.82567C4.65978 8.30487 4.74395 7.92881 5.14218 7.53121C5.39111 7.97848 5.71778 8.40346 5.37699 8.86694C5.32807 8.93345 5.2485 9.0396 5.24316 9.11748C5.27975 9.26478 6.1753 9.8768 6.355 9.99092C6.24207 9.75533 6.11009 9.69284 5.94909 9.51864C5.73893 9.29129 5.86311 8.7906 5.96469 8.53485C5.9981 8.45075 6.06993 8.38457 6.13993 8.32702C6.30888 8.63543 6.72145 9.07966 6.63493 9.4328C6.58105 9.65267 6.4911 9.74085 6.47954 10.0099C6.67891 10.0845 7.4909 10.4463 7.62937 10.3371C7.62927 10.1707 7.15709 10.0215 7.08661 9.67977C7.01114 9.31383 7.12291 8.95581 7.30454 8.64625C7.47935 8.84007 7.61759 9.0044 7.76703 9.21689C8.09389 9.6817 7.82129 9.92404 7.72437 10.404C8.20594 10.4805 8.56601 10.4821 9.04616 10.4521C8.90711 10.3248 8.6992 10.2081 8.59422 10.0572C8.33156 9.67963 8.53973 9.19687 8.60829 8.78606C8.77327 8.92009 9.06267 9.24429 9.19532 9.41627C9.5175 9.83396 9.31512 10.004 9.24895 10.4292C9.25011 10.4558 9.24912 10.458 9.26303 10.4796C9.38731 10.5072 9.7693 10.3163 9.84843 10.3795L9.85216 10.4234C9.83081 10.4506 9.60457 10.4916 9.53587 10.5141C9.06486 10.6685 9.24205 10.9918 9.07471 11.3245C8.89062 11.6907 8.39931 11.8553 8.03496 11.9762C8.03325 11.6693 8.04621 11.4297 8.19465 11.1532C8.37744 10.813 8.57452 10.7811 8.91456 10.6806C8.48961 10.6631 8.02296 10.5864 7.60167 10.6568C7.47729 11.2883 7.31529 11.4179 6.66841 11.5089C6.54435 11.5264 6.3831 11.5593 6.26001 11.5876C6.25809 11.5653 6.25714 11.543 6.25718 11.5208C6.25907 11.2651 6.39601 10.9767 6.57476 10.7961C6.86667 10.5013 7.19219 10.6143 7.55349 10.613C7.16646 10.437 6.78089 10.3498 6.41503 10.1978C6.21048 10.3629 6.13742 10.511 5.98567 10.656C5.73031 10.9 5.14838 10.7398 4.80572 10.708C4.80518 10.6917 4.80487 10.6754 4.80479 10.6591C4.80441 10.5121 4.90007 10.4145 4.99823 10.3134C5.27189 10.0316 5.54378 9.96218 5.92782 9.96235C5.68708 9.73535 5.32413 9.48306 5.02596 9.35261C4.73247 9.49153 4.4442 9.739 4.09897 9.60547C3.87505 9.51886 3.62082 9.35786 3.41616 9.23262C3.5929 9.1156 3.76346 8.99865 3.95941 8.91777C4.28863 8.78188 4.44822 8.86858 4.74668 8.99412C4.52406 8.72944 4.26363 8.38836 4.05546 8.10936C3.87429 8.16207 3.50137 8.27559 3.32963 8.22981C3.14432 8.18041 2.66295 7.74009 2.57004 7.58098C3.25279 7.421 3.1819 7.38791 3.81582 7.62969C3.75798 7.42614 3.67876 7.21759 3.59839 7.03269C3.36695 6.50016 3.22114 6.82719 2.86419 6.70039C2.58924 6.60273 2.30241 6.0869 2.18909 5.82635C2.72483 5.82425 3.04701 5.80281 3.34958 6.30071C3.28799 5.94386 3.2462 5.60381 3.18753 5.25153C2.97678 5.26406 2.79882 5.27231 2.60922 5.15566C2.31324 4.97353 2.2109 4.59002 2.13672 4.27339C2.70808 4.24413 3.01067 4.47428 3.24433 4.98983C3.231 4.57323 3.34511 4.33339 3.28469 3.89081C2.73801 3.64645 2.66956 3.55929 2.66613 2.97072C2.66462 2.84878 2.66099 2.72689 2.65524 2.60508C3.2321 2.81638 3.38544 2.97696 3.41703 3.58863C3.50416 3.34402 3.63778 3.01407 3.67033 2.76027C3.69843 2.54124 3.49816 2.53702 3.41796 2.43544C3.15553 2.10303 3.32581 1.61833 3.35476 1.23669C3.80531 1.47081 3.89542 1.79204 3.93955 2.26888C4.09633 2.02744 4.23959 1.88261 4.40308 1.60055C4.15637 1.27928 3.94299 1.14601 4.07779 0.686898C4.11757 0.551449 4.14729 0.413121 4.20051 0.278862C4.24342 0.245619 4.29526 0.219457 4.34316 0.193258C4.43539 0.383206 4.61354 0.541647 4.67902 0.764655C4.75838 1.03495 4.60935 1.23731 4.48191 1.46615C5.2985 1.07091 4.95496 0.648736 5.28903 0.332764C5.46242 0.16876 5.84095 0.164692 6.08841 0Z" fill="white"/>
</svg>
