<svg width="12" height="12" viewBox="0 0 12 12" fill="none" xmlns="http://www.w3.org/2000/svg">
<path d="M5.89987 0C5.8771 0.0028834 5.88748 -0.00161054 5.86982 0.0177899C5.88238 0.200157 5.93797 0.346028 5.99569 0.497667C6.24483 1.15231 6.60754 0.913513 7.02537 1.26278C7.10212 1.32693 7.17155 1.45299 7.22088 1.5426C7.09913 1.47982 6.9077 1.38207 6.77178 1.36786C6.50195 1.33966 6.14169 1.55604 5.93932 1.71544C6.41887 1.89459 6.95127 2.35317 7.30076 1.77335C7.33955 1.78248 7.40586 1.79911 7.44075 1.81353C7.64183 1.89654 7.81281 2.27585 7.89383 2.46369C7.63762 2.30966 7.51314 2.18883 7.1923 2.24299C6.97734 2.27927 6.85078 2.33764 6.66572 2.45015C6.85414 2.55309 7.00623 2.71872 7.18174 2.84921C7.52034 3.10091 7.70615 2.89696 8.07908 2.83468C8.2162 3.06262 8.28341 3.27234 8.33603 3.52988C8.31486 3.51495 8.27877 3.48782 8.26013 3.47002C7.92327 3.14837 7.62406 3.17398 7.18002 3.18654C7.36477 3.60341 7.57036 4.00925 8.09724 3.98655C8.19844 3.98721 8.42304 3.94033 8.48649 4.04827C8.60219 4.24507 8.59664 4.65702 8.57525 4.86969C8.49727 4.78254 8.44965 4.66507 8.37186 4.58634C8.12088 4.33232 7.75957 4.39756 7.46495 4.32145C7.52813 4.61911 7.64965 4.89648 7.8724 5.11264C8.09099 5.32478 8.33517 5.28023 8.61947 5.27029C8.60959 5.31529 8.60339 5.36115 8.59909 5.40699C8.57736 5.63857 8.54455 5.85559 8.49356 6.08229C8.27892 5.7057 8.01499 5.52852 7.61643 5.39127C7.61226 5.65802 7.62323 6.0966 7.76396 6.3231C7.89284 6.53051 8.12401 6.60094 8.34765 6.65329C8.31194 6.81207 7.98045 7.738 7.88711 7.83555C7.84781 7.84953 7.84662 7.8575 7.81187 7.84727C7.81827 7.79283 7.9192 7.61226 7.94609 7.54758C8.08923 7.20332 7.83873 6.80965 7.57174 6.6019C7.48957 6.53795 7.39788 6.49857 7.30351 6.45882C7.29877 6.80571 7.09563 7.28092 7.27709 7.5557C7.35293 7.67958 7.55506 7.79703 7.62625 7.9133C7.79365 8.1867 7.2821 8.70223 7.08049 8.82567C7.3285 8.30487 7.24433 7.92881 6.8461 7.53121C6.59717 7.97848 6.2705 8.40346 6.6113 8.86694C6.66021 8.93345 6.73979 9.0396 6.74512 9.11748C6.70853 9.26478 5.81298 9.8768 5.63328 9.99092C5.74621 9.75533 5.87819 9.69284 6.03919 9.51864C6.24935 9.29129 6.12517 8.7906 6.02359 8.53485C5.99019 8.45075 5.91836 8.38457 5.84835 8.32702C5.6794 8.63543 5.26683 9.07966 5.35335 9.4328C5.40723 9.65267 5.49718 9.74085 5.50874 10.0099C5.30937 10.0845 4.49738 10.4463 4.35891 10.3371C4.35901 10.1707 4.83119 10.0215 4.90167 9.67977C4.97715 9.31383 4.86537 8.95581 4.68374 8.64625C4.50893 8.84007 4.3707 9.0044 4.22125 9.21689C3.89439 9.6817 4.16699 9.92404 4.26391 10.404C3.78234 10.4805 3.42227 10.4821 2.94212 10.4521C3.08117 10.3248 3.28908 10.2081 3.39406 10.0572C3.65672 9.67963 3.44855 9.19687 3.37999 8.78606C3.21502 8.92009 2.92561 9.24429 2.79296 9.41627C2.47078 9.83396 2.67316 10.004 2.73933 10.4292C2.73817 10.4558 2.73916 10.458 2.72525 10.4796C2.60098 10.5072 2.21898 10.3163 2.13985 10.3795L2.13612 10.4234C2.15747 10.4506 2.38371 10.4916 2.45241 10.5141C2.92342 10.6685 2.74623 10.9918 2.91357 11.3245C3.09766 11.6907 3.58897 11.8553 3.95332 11.9762C3.95503 11.6693 3.94207 11.4297 3.79363 11.1532C3.61085 10.813 3.41376 10.7811 3.07372 10.6806C3.49867 10.6631 3.96532 10.5864 4.38661 10.6568C4.51099 11.2883 4.67299 11.4179 5.31987 11.5089C5.44393 11.5264 5.60518 11.5593 5.72827 11.5876C5.73019 11.5653 5.73114 11.543 5.73111 11.5208C5.72921 11.2651 5.59227 10.9767 5.41352 10.7961C5.12161 10.5013 4.79609 10.6143 4.43479 10.613C4.82183 10.437 5.20739 10.3498 5.57325 10.1978C5.77781 10.3629 5.85086 10.511 6.00261 10.656C6.25798 10.9 6.8399 10.7398 7.18256 10.708C7.18311 10.6917 7.18341 10.6754 7.18349 10.6591C7.18387 10.5121 7.08821 10.4145 6.99005 10.3134C6.71639 10.0316 6.4445 9.96218 6.06046 9.96235C6.3012 9.73535 6.66415 9.48306 6.96232 9.35261C7.25581 9.49153 7.54408 9.739 7.88931 9.60547C8.11323 9.51886 8.36746 9.35786 8.57212 9.23262C8.39538 9.1156 8.22482 8.99865 8.02887 8.91777C7.69965 8.78188 7.54006 8.86858 7.2416 8.99412C7.46422 8.72944 7.72465 8.38836 7.93283 8.10936C8.11399 8.16207 8.48691 8.27559 8.65866 8.22981C8.84396 8.18041 9.32534 7.74009 9.41824 7.58098C8.73549 7.421 8.80638 7.38791 8.17246 7.62969C8.2303 7.42614 8.30953 7.21759 8.38989 7.03269C8.62133 6.50016 8.76714 6.82719 9.12409 6.70039C9.39904 6.60273 9.68587 6.0869 9.79919 5.82635C9.26345 5.82425 8.94127 5.80281 8.6387 6.30071C8.70029 5.94386 8.74208 5.60381 8.80075 5.25153C9.0115 5.26406 9.18946 5.27231 9.37906 5.15566C9.67504 4.97353 9.77738 4.59002 9.85156 4.27339C9.2802 4.24413 8.97762 4.47428 8.74396 4.98983C8.75728 4.57323 8.64317 4.33339 8.70359 3.89081C9.25028 3.64645 9.31872 3.55929 9.32215 2.97072C9.32366 2.84878 9.32729 2.72689 9.33304 2.60508C8.75619 2.81638 8.60285 2.97696 8.57125 3.58863C8.48412 3.34402 8.35051 3.01407 8.31796 2.76027C8.28985 2.54124 8.49012 2.53702 8.57032 2.43544C8.83275 2.10303 8.66247 1.61833 8.63353 1.23669C8.18297 1.47081 8.09286 1.79204 8.04873 2.26888C7.89196 2.02744 7.7487 1.88261 7.5852 1.60055C7.83191 1.27928 8.0453 1.14601 7.91049 0.686898C7.87071 0.551449 7.84099 0.413121 7.78777 0.278862C7.74486 0.245619 7.69302 0.219457 7.64512 0.193258C7.55289 0.383206 7.37474 0.541647 7.30926 0.764655C7.2299 1.03495 7.37893 1.23731 7.50638 1.46615C6.68978 1.07091 7.03332 0.648736 6.69925 0.332764C6.52586 0.16876 6.14733 0.164692 5.89987 0Z" fill="white"/>
</svg>
