<svg width="20" height="20" viewBox="0 0 20 20" fill="none" xmlns="http://www.w3.org/2000/svg">
<path d="M6.54532 9.92618C7.40223 9.46806 8.62162 9.16668 10.0006 9.16668C11.3797 9.16668 12.5991 9.46806 13.456 9.92618C13.7604 10.0889 14.1391 9.97409 14.3018 9.66968C14.4646 9.36528 14.3497 8.98658 14.0453 8.82384C12.9747 8.25147 11.5452 7.91668 10.0006 7.91668C8.45614 7.91668 7.02656 8.25147 5.95597 8.82384C5.65157 8.98658 5.53673 9.36528 5.69947 9.66968C5.86222 9.97409 6.24092 10.0889 6.54532 9.92618Z" fill="#D6D3D1"/>
<path fill-rule="evenodd" clip-rule="evenodd" d="M4.79232 1.59601C4.79232 1.43901 4.95938 1.33843 5.09813 1.41189L7.96548 2.9299C8.11726 3.01025 8.1121 3.2294 7.95672 3.30253L6.04232 4.20342V5.84152C7.22128 5.56884 8.57151 5.41668 9.9974 5.41668C11.1001 5.41668 12.1576 5.50768 13.1257 5.67507V1.59601C13.1257 1.43901 13.2927 1.33843 13.4315 1.41189L16.2988 2.9299C16.4506 3.01025 16.4454 3.2294 16.29 3.30253L14.3757 4.20342V5.94651C14.8448 6.0711 15.2828 6.21559 15.6828 6.37776C16.4244 6.6784 17.0661 7.05211 17.5324 7.49908C18.0004 7.94762 18.3307 8.51114 18.3307 9.16668L18.3307 9.18181L18.3307 15.375C18.3307 15.8349 18.1633 16.3398 17.7463 16.6868C16.8654 17.4196 15.6383 17.9323 14.2939 18.2629C12.9408 18.5955 11.4229 18.7549 9.91953 18.7499C8.41626 18.7449 6.9095 18.5754 5.5787 18.2393C4.25797 17.9057 3.06079 17.3956 2.22204 16.6753C1.81919 16.3293 1.66407 15.8355 1.66407 15.3921L1.66406 9.16668C1.66406 8.51114 1.99438 7.94762 2.46234 7.49908C2.92867 7.05211 3.57038 6.6784 4.31197 6.37776C4.46655 6.31509 4.62679 6.25506 4.79232 6.1978V1.59601ZM17.0807 15.375L17.0807 11.2073C16.6826 11.4934 16.2077 11.7428 15.6828 11.9556C14.1964 12.5582 12.186 12.9167 9.9974 12.9167C7.80876 12.9167 5.79835 12.5582 4.31197 11.9556C3.78703 11.7428 3.31213 11.4934 2.91406 11.2073L2.91407 15.3921C2.91407 15.5632 2.97308 15.6726 3.03645 15.727C3.66928 16.2705 4.65757 16.7174 5.88478 17.0273C7.10191 17.3347 8.50555 17.4952 9.92372 17.4999C11.3418 17.5047 12.7564 17.3536 13.9954 17.049C15.2432 16.7422 16.2678 16.2908 16.9468 15.7259C17.018 15.6667 17.0807 15.5501 17.0807 15.375ZM16.6675 8.40149C16.9797 8.70069 17.0807 8.95927 17.0807 9.16668L17.0807 9.17534C17.0779 9.38127 16.9753 9.63681 16.6675 9.93186C16.3537 10.2326 15.8665 10.5323 15.2132 10.7972C13.9097 11.3256 12.066 11.6667 9.9974 11.6667C7.92884 11.6667 6.08508 11.3256 4.7816 10.7972C4.12824 10.5323 3.6411 10.2326 3.3273 9.93186C3.01514 9.63266 2.91406 9.37408 2.91406 9.16668C2.91406 8.95927 3.01514 8.70069 3.3273 8.40149C3.6411 8.10072 4.12824 7.80105 4.7816 7.53618C6.08508 7.00774 7.92884 6.66668 9.9974 6.66668C12.066 6.66668 13.9097 7.00774 15.2132 7.53618C15.8665 7.80105 16.3537 8.10072 16.6675 8.40149Z" fill="#D6D3D1"/>
</svg>
