<svg width="24" height="24" viewBox="0 0 24 24" fill="none" xmlns="http://www.w3.org/2000/svg">
<path d="M18.351 17.0336C17.8552 17.8533 17.2755 18.6207 16.6233 19.319C15.9687 20.0149 15.255 20.6555 14.4795 21.2122C14.0922 21.4911 12.485 22.4048 12.0742 22.6054C11.6629 22.4043 8.16912 20.0235 7.5126 19.3286C6.85751 18.6317 6.27682 17.8639 5.78299 17.0423C5.28196 16.2245 4.87499 15.3487 4.56641 14.4363C4.63119 14.6681 4.70318 14.8985 4.78093 15.1265C4.86251 15.3535 4.94698 15.5795 5.042 15.8012C5.22773 16.2471 5.44225 16.6809 5.67741 17.1037C6.15444 17.9455 6.72458 18.7354 7.37102 19.4577C8.0165 20.1819 8.74501 20.8307 9.52631 21.4061C9.91792 21.6926 10.3244 21.9585 10.74 22.209C11.1575 22.4557 11.5861 22.6841 12.0214 22.8977L12.0756 22.9241L12.1298 22.8977C12.5651 22.6846 12.9927 22.4552 13.4098 22.2081C13.8244 21.9571 14.2299 21.6902 14.6196 21.4018C15.0103 21.1143 15.3846 20.8053 15.7436 20.4794C16.103 20.1545 16.4443 19.809 16.7658 19.4471C17.4099 18.7234 17.9785 17.9344 18.457 17.0946C18.6936 16.6732 18.9091 16.2403 19.0972 15.7964C19.1937 15.5752 19.2796 15.3496 19.3626 15.1241C19.4423 14.8966 19.5162 14.6672 19.5829 14.4363C19.2666 15.3453 18.8544 16.2178 18.3519 17.0336H18.351Z" fill="#FAAE1C"/>
<path d="M20.1855 11.8307L20.5531 11.8724V10.9433L21.6008 9.89661H19.9892V7.76675C18.6349 7.02049 16.8804 6.18784 14.8988 5.74056C14.9012 5.754 14.9045 5.76695 14.9069 5.78087L15.0543 5.94644L15.5256 6.25455L15.6422 6.98833L15.6614 7.02001C17.4308 7.38618 18.5624 8.23179 19.2852 9.01069V9.04668C18.5533 8.26107 17.1433 7.6391 15.4603 7.30748L15.3341 7.10207L15.2295 6.44555L14.8417 6.19168L14.6027 5.92293C14.4501 4.77977 13.6294 4.05126 12.5726 3.8281L12.5616 3.68509L12.4508 3.58767V3.40434C12.6499 3.35635 12.7809 3.2762 12.7809 3.18502C12.7809 3.09383 12.6499 3.01369 12.4508 2.9657V2.76989L12.1662 2.61104L12.1513 2.50738H12.2521L12.2948 2.36101H12.182L12.0227 1.79999L11.8633 2.36101H11.7506L11.7937 2.50738H11.8941L11.8792 2.61104L11.5946 2.76989V2.9657C11.3954 3.01369 11.2649 3.09383 11.2649 3.18502C11.2649 3.2762 11.3959 3.35635 11.5946 3.40386V3.58719L11.4837 3.68461L11.4727 3.8521C10.4639 4.10981 9.68837 4.81529 9.54104 5.92245L9.30204 6.1912L8.91379 6.44507L8.80917 7.10159L8.65943 7.33195C7.14819 7.65014 5.79627 8.21931 4.85852 9.02989V9.00973C5.75308 8.23611 6.85928 7.39866 8.46219 7.04496L8.5025 6.98306L8.61864 6.25359L9.08992 5.94548L9.23677 5.78039C9.23965 5.76407 9.24349 5.74776 9.24637 5.73144C7.26433 6.16816 5.50928 6.9821 4.15449 7.7202V9.89565H2.45703L3.60882 10.9524V13.9615L4.56289 14.4116C5.25493 16.7776 7.11075 20.2316 12.0726 22.6167C17.0469 20.2253 18.8998 16.7594 19.5875 14.3929L20.5742 13.9615V12.3202L20.4907 12.2146C20.3674 12.0581 20.2757 11.9415 20.185 11.8297L20.1855 11.8307Z" fill="url(#paint0_linear_487_48963)"/>
<path d="M17.8196 16.8869C17.3661 17.637 16.8353 18.3392 16.2383 18.9784C15.6393 19.6153 14.9862 20.2012 14.2764 20.7109C13.9217 20.9662 13.5575 21.2071 13.1822 21.4312C12.8213 21.6434 12.4517 21.8397 12.0755 22.0235C11.6992 21.8392 11.3287 21.6434 10.9669 21.4317C10.5911 21.2081 10.2249 20.9681 9.86932 20.7143C9.15761 20.206 8.50061 19.6229 7.89928 18.987C7.29987 18.3492 6.76812 17.6466 6.31652 16.8946C5.85821 16.1464 5.48531 15.3445 5.20312 14.5095C5.26215 14.7216 5.32838 14.9323 5.39941 15.141C5.47428 15.3488 5.55154 15.5557 5.63841 15.7587C5.8083 16.1666 6.00458 16.564 6.22006 16.9508C6.6563 17.721 7.17845 18.4443 7.77018 19.1051C8.36096 19.7679 9.02756 20.3615 9.74263 20.8885C10.1011 21.151 10.4731 21.3938 10.8531 21.6232C11.2356 21.8492 11.6272 22.058 12.0261 22.2533L12.0755 22.2773L12.1249 22.2533C12.5232 22.058 12.9144 21.8483 13.2959 21.6223C13.6755 21.3929 14.0465 21.1481 14.4035 20.8846C14.7611 20.6216 15.1033 20.3385 15.432 20.0405C15.7612 19.7429 16.0732 19.4271 16.3674 19.0955C16.9567 18.4332 17.4774 17.711 17.9151 16.9426C18.1315 16.5568 18.3288 16.1608 18.501 15.7543C18.5894 15.5518 18.6676 15.3455 18.7439 15.1386C18.8168 14.9303 18.884 14.7206 18.9454 14.509C18.6561 15.3407 18.2788 16.1392 17.8186 16.886L17.8196 16.8869Z" fill="white"/>
<path d="M9.12595 6.98104L9.17586 6.59039L9.54875 6.37923L9.80119 6.10328C9.80119 6.10328 9.89237 4.52724 11.6196 4.08044C11.6196 4.08044 10.57 4.34872 10.2302 5.57346C10.1357 5.91467 10.2725 6.29717 10.2725 6.29717L10.2341 7.04343C10.2341 7.04343 9.42734 7.1183 8.98438 7.2973L9.12643 6.98056L9.12595 6.98104Z" fill="white"/>
<path d="M12.5977 4.10681C12.5977 4.10681 13.6688 4.18504 14.0273 5.06424C14.0273 5.06424 13.4596 4.40196 12.5977 4.10681Z" fill="white"/>
<path d="M11.7878 4.08044C11.7878 4.08044 11.0837 4.58723 11.1764 6.9748L11.4586 6.95897C11.4586 6.95897 11.209 4.80799 11.7878 4.08044Z" fill="white"/>
<path d="M8.55859 8.15426C8.99148 8.05683 9.20936 8.01556 9.64704 7.94885C9.82125 8.05539 9.90811 8.10578 10.0828 8.20321C10.0857 8.76615 10.0866 8.8794 10.0895 9.4433C9.92539 9.56136 9.84332 9.62279 9.67919 9.75477H8.55907C8.55907 8.92596 8.55907 8.98307 8.55907 8.15426H8.55859ZM9.44499 8.35966C9.34085 8.37358 9.28854 8.38125 9.1844 8.39661C9.18584 8.83765 9.1868 8.94371 9.18872 9.38427C9.29334 9.38091 9.34565 9.379 9.45027 9.37564C9.44835 8.92356 9.44739 8.81174 9.44499 8.35966Z" fill="white"/>
<path d="M10.3555 7.85665C10.8263 7.80577 11.0624 7.78946 11.5351 7.77362C11.5351 7.95839 11.5351 8.03901 11.5356 8.19115C11.3206 8.1969 11.2126 8.20122 10.9981 8.21322C10.9986 8.36343 10.999 8.43062 10.9995 8.56356C11.1771 8.55588 11.2659 8.553 11.4439 8.54868C11.4439 8.68306 11.4444 8.74641 11.4449 8.87838C11.2673 8.88126 11.1785 8.88366 11.001 8.88894C11.0014 9.06027 11.0019 9.14521 11.0029 9.34246C11.2232 9.33958 11.3335 9.33862 11.5538 9.33718C11.5538 9.48931 11.5538 9.57042 11.5543 9.75518H10.3646C10.3607 8.80735 10.3588 8.80495 10.3555 7.85713V7.85665Z" fill="white"/>
<path d="M11.7422 7.76763C11.9994 7.76235 12.1285 7.76235 12.3858 7.76763C12.3848 8.56621 12.3848 8.67803 12.3838 9.33599C12.6118 9.33695 12.726 9.33743 12.9544 9.33983C12.9544 9.49052 12.954 9.57115 12.9535 9.75447H11.7446C11.7436 8.77113 11.7431 8.75097 11.7422 7.76763Z" fill="white"/>
<path d="M14.0047 8.66282C14.0061 8.39263 14.0071 8.26161 14.0085 7.88104C14.2614 7.91176 14.3872 7.92951 14.6387 7.97031C14.6353 8.87254 14.6334 8.85191 14.6305 9.75415H13.9989C14.0004 9.37357 14.0013 9.24208 14.0028 8.97237C13.8982 8.96709 13.8458 8.96469 13.7407 8.96037C13.7393 9.23536 13.7383 9.36878 13.7369 9.75415H13.0977C13.1005 8.7828 13.1015 8.7684 13.1044 7.79706C13.3611 7.81338 13.4897 7.82441 13.746 7.85129C13.7446 8.23666 13.7436 8.37056 13.7422 8.64507C13.8468 8.65178 13.8996 8.65514 14.0042 8.66282H14.0047Z" fill="white"/>
<path d="M14.9555 8.02557C15.2093 8.07213 15.336 8.09756 15.588 8.15467C15.588 8.98348 15.588 8.92637 15.588 9.75518H14.9492C14.9516 8.87502 14.9531 8.90621 14.9559 8.02605L14.9555 8.02557Z" fill="white"/>
<path d="M14.9536 8.02502C14.9536 8.02502 15.2708 8.07877 15.7085 8.17812C15.9317 8.22851 16.1313 8.28322 16.1313 8.28322L15.4095 8.587L14.9531 8.02502H14.9536Z" fill="white"/>
<path d="M9.20896 8.02502C9.20896 8.02502 8.89174 8.07877 8.45405 8.17812C8.23089 8.22851 8.03125 8.28322 8.03125 8.28322L8.75304 8.587L9.20944 8.02502H9.20896Z" fill="white"/>
<path d="M6.67951 10.2397C6.44339 11.2936 6.31382 12.3686 6.10938 13.4288C6.441 13.3045 6.60849 13.2435 6.94394 13.1322C6.9761 12.9445 6.99194 12.8399 7.02409 12.6235C7.22229 12.5668 7.32164 12.54 7.52032 12.4891C7.5448 12.6801 7.55727 12.7708 7.58175 12.9359C7.92009 12.8404 8.08998 12.7982 8.42784 12.7319C8.23635 11.9046 8.07942 11.0705 7.90425 10.2397H6.67951ZM7.0932 12.0533C7.14023 11.6368 7.18774 11.2207 7.23765 10.8041C7.27029 10.8027 7.2866 10.8017 7.31972 10.8003C7.36867 11.1924 7.4157 11.5849 7.46465 11.977C7.31588 12.0063 7.24197 12.0217 7.09368 12.0533H7.0932Z" fill="white"/>
<path d="M13.7949 10.2397H12.0039C12.0039 10.412 12.0039 10.4984 12.0039 10.6712C12.1959 10.6712 12.2919 10.6712 12.4838 10.6712C12.4838 11.2917 12.4843 11.9118 12.4843 12.5323C12.8202 12.5342 12.9877 12.5366 13.3237 12.5438C13.3227 11.9204 13.3217 11.297 13.3208 10.6736C13.5108 10.6745 13.6059 10.675 13.7954 10.676C13.7954 10.5018 13.7949 10.4144 13.7945 10.2402L13.7949 10.2397Z" fill="white"/>
<path d="M17.2269 10.2398H16.3799C16.3698 11.1089 16.3616 11.9776 16.3516 12.8467C16.8771 12.9902 17.3891 13.1572 17.9022 13.3415C17.9084 13.1548 17.9113 13.0463 17.917 12.8169C17.619 12.7224 17.4722 12.6773 17.1785 12.5943C17.1948 11.8096 17.2077 11.0245 17.2269 10.2398Z" fill="white"/>
<path d="M8.66674 10.2398C8.66194 11.0595 8.65714 11.8792 8.65234 12.6989C8.99164 12.6403 9.16105 12.6197 9.49603 12.6019C9.49699 12.2809 9.49747 12.1206 9.49843 11.7995C9.71727 11.7918 9.82669 11.7885 10.0451 11.7827C10.2745 11.6431 10.3892 11.5744 10.6181 11.4382C10.6185 11.0945 10.619 10.9227 10.62 10.5786C10.3916 10.4443 10.2773 10.3766 10.0494 10.2398H8.66674ZM9.80654 11.3479C9.68416 11.3508 9.62273 11.3522 9.49987 11.3551C9.50083 11.0869 9.50131 10.9525 9.50179 10.6842C9.62417 10.6828 9.6856 10.6823 9.80798 10.6813C9.80702 10.9477 9.80702 11.0811 9.80606 11.3479H9.80654Z" fill="white"/>
<path d="M10.8945 12.5476C11.2343 12.539 11.4042 12.5361 11.744 12.5333C11.744 11.7688 11.7449 11.0042 11.7454 10.2397H10.8984C10.8969 11.009 10.896 11.7783 10.8945 12.5476Z" fill="white"/>
<path d="M15.1974 12.254C15.0045 12.2397 14.908 12.2329 14.7151 12.2209C14.6882 12.3932 14.6748 12.4762 14.6474 12.6255C14.3215 12.601 14.1584 12.5909 13.832 12.5746C14.0158 11.8005 14.1627 11.0168 14.3316 10.2389C14.812 10.2389 15.0525 10.2389 15.5328 10.2389C15.7378 11.0763 15.8875 11.9248 16.0838 12.7642C15.757 12.7253 15.5933 12.708 15.2655 12.6773C15.2382 12.5194 15.2243 12.4331 15.1969 12.2536L15.1974 12.254ZM14.8912 10.727C14.8437 11.1229 14.8202 11.348 14.7727 11.7617C14.9171 11.7689 14.9896 11.7727 15.134 11.7809C15.0688 11.3561 15.0366 11.1272 14.9713 10.7284C14.9392 10.7279 14.9234 10.7274 14.8912 10.727Z" fill="white"/>
<path d="M18.966 11.5669C18.9722 11.2531 18.9756 11.0981 18.9818 10.8188C19.1234 10.8269 19.1944 10.8308 19.3365 10.8389C19.3331 11.0299 19.3312 11.1321 19.3278 11.3419C19.6594 11.3798 19.8265 11.3995 20.1643 11.4374C20.1643 11.135 20.1643 10.9886 20.1643 10.7281L20.7844 10.2395H19.5927H18.7102C18.4808 10.3926 18.3656 10.4775 18.1367 10.6445C18.1266 11.004 18.1218 11.2156 18.1122 11.6327C18.3411 11.8693 18.4553 11.9974 18.6871 12.2676C18.9333 12.3473 19.0576 12.3886 19.3091 12.4735C19.3038 12.8099 19.3009 12.9764 19.2957 13.274C19.1493 13.2246 19.0768 13.2001 18.9329 13.1521C18.9372 12.9707 18.9391 12.8742 18.9429 12.676C18.5979 12.5786 18.4285 12.5306 18.0925 12.4399C18.0868 12.6765 18.0839 12.7922 18.0781 13.0028C18.2917 13.25 18.3987 13.3757 18.6171 13.6138C18.9948 13.7606 19.1872 13.8374 19.5855 13.9905C19.8236 13.9185 19.9435 13.8672 20.1845 13.7338V12.4557C19.9378 12.1428 19.8183 11.9921 19.5827 11.7152C19.3336 11.6538 19.2102 11.6241 18.9655 11.5669H18.966Z" fill="white"/>
<path d="M4.547 10.2396H3.40625L3.99702 10.7286L3.99606 10.7296C3.99606 11.7345 3.99606 12.7394 3.99606 13.7444C4.22306 13.8826 4.33632 13.9354 4.56476 14.0083C4.89926 13.8768 5.06915 13.8082 5.41277 13.6733C5.63785 13.4319 5.75111 13.3033 5.97907 13.0504C5.98483 12.7044 5.9877 12.5024 5.99298 12.1016C5.66424 12.1751 5.50011 12.2134 5.17473 12.2883C5.17041 12.6655 5.16849 12.8546 5.16417 13.1877C5.01924 13.2366 4.94725 13.2616 4.80376 13.31C4.81144 12.4889 4.81816 11.6673 4.82631 10.8462C4.97269 10.8385 5.04563 10.8342 5.19201 10.8265C5.18865 11.0996 5.18673 11.2503 5.18337 11.556C5.50971 11.5104 5.67384 11.4869 6.00258 11.4427C6.00738 11.1087 6.00978 10.9436 6.01458 10.6523C5.79286 10.4824 5.68248 10.3955 5.46076 10.24H4.54748L4.547 10.2396Z" fill="white"/>
<path d="M18.351 17.0336C17.8552 17.8533 17.2755 18.6207 16.6233 19.319C15.9687 20.0149 15.255 20.6555 14.4795 21.2122C14.0922 21.4911 12.485 22.4048 12.0742 22.6054C11.6629 22.4043 8.16912 20.0235 7.5126 19.3286C6.85751 18.6317 6.27682 17.8639 5.78299 17.0423C5.28196 16.2245 4.87499 15.3487 4.56641 14.4363C4.63119 14.6681 4.70318 14.8985 4.78093 15.1265C4.86251 15.3535 4.94698 15.5795 5.042 15.8012C5.22773 16.2471 5.44225 16.6809 5.67741 17.1037C6.15444 17.9455 6.72458 18.7354 7.37102 19.4577C8.0165 20.1819 8.74501 20.8307 9.52631 21.4061C9.91792 21.6926 10.3244 21.9585 10.74 22.209C11.1575 22.4557 11.5861 22.6841 12.0214 22.8977L12.0756 22.9241L12.1298 22.8977C12.5651 22.6846 12.9927 22.4552 13.4098 22.2081C13.8244 21.9571 14.2299 21.6902 14.6196 21.4018C15.0103 21.1143 15.3846 20.8053 15.7436 20.4794C16.103 20.1545 16.4443 19.809 16.7658 19.4471C17.4099 18.7234 17.9785 17.9344 18.457 17.0946C18.6936 16.6732 18.9091 16.2403 19.0972 15.7964C19.1937 15.5752 19.2796 15.3496 19.3626 15.1241C19.4423 14.8966 19.5162 14.6672 19.5829 14.4363C19.2666 15.3453 18.8544 16.2178 18.3519 17.0336H18.351Z" fill="#FAAE1C"/>
<path d="M20.2275 9.65839H22.1768L21.7695 10.0656L20.792 11.0422V12.1398L20.7305 12.132L20.7617 12.1721L20.8125 12.2375V14.1174L20.6699 14.1799L19.7812 14.5676C19.0525 16.9855 17.1442 20.4426 12.1758 22.8312L12.0723 22.881L11.9688 22.8312C7.00978 20.4472 5.09812 16.9995 4.36621 14.5822L3.50684 14.1769L3.37012 14.1125V11.0568L2.2959 10.0715L1.84375 9.65741H3.91602V7.57831L4.04004 7.51093C5.40497 6.7673 7.18276 5.94167 9.19531 5.49823L9.39746 5.45331C9.66893 4.54254 10.373 3.93965 11.2451 3.66913H11.2461L11.252 3.5705L11.2822 3.54315C11.2626 3.53291 11.2435 3.52256 11.2256 3.51093C11.1554 3.4654 11.0551 3.37908 11.0312 3.2453L11.0264 3.18475L11.0312 3.12518C11.0548 2.99167 11.1543 2.90538 11.2246 2.85956C11.2645 2.83363 11.3094 2.81147 11.3564 2.79218V2.63007L11.4785 2.56171L11.5488 2.52167L11.5215 2.42889L11.4316 2.12225H11.6826L11.793 1.73456L12.0225 0.926941L12.252 1.73456L12.3623 2.12225H12.6133L12.5234 2.42792L12.4961 2.52167L12.5674 2.56171L12.6895 2.63007V2.79218C12.7364 2.8114 12.7806 2.83376 12.8203 2.85956C12.9004 2.9116 13.0194 3.01646 13.0195 3.18475C13.0195 3.35329 12.9005 3.45889 12.8203 3.51093C12.8019 3.52287 12.7819 3.53267 12.7617 3.54315L12.792 3.56952L12.7969 3.63788C13.7201 3.88486 14.4671 4.50987 14.7471 5.46112L14.9512 5.508C16.9637 5.96227 18.7408 6.80638 20.1045 7.5578L20.2275 7.62616V9.65839Z" fill="url(#paint1_linear_487_48963)" stroke="white" stroke-width="0.477103"/>
<path d="M17.8196 16.8869C17.3661 17.637 16.8353 18.3392 16.2383 18.9784C15.6393 19.6153 14.9862 20.2012 14.2764 20.7109C13.9217 20.9662 13.5575 21.2071 13.1822 21.4312C12.8213 21.6434 12.4517 21.8397 12.0755 22.0235C11.6992 21.8392 11.3287 21.6434 10.9669 21.4317C10.5911 21.2081 10.2249 20.9681 9.86932 20.7143C9.15761 20.206 8.50061 19.6229 7.89928 18.987C7.29987 18.3492 6.76812 17.6466 6.31652 16.8946C5.85821 16.1464 5.48531 15.3445 5.20312 14.5095C5.26215 14.7216 5.32838 14.9323 5.39941 15.141C5.47428 15.3488 5.55154 15.5557 5.63841 15.7587C5.8083 16.1666 6.00458 16.564 6.22006 16.9508C6.6563 17.721 7.17845 18.4443 7.77018 19.1051C8.36096 19.7679 9.02756 20.3615 9.74263 20.8885C10.1011 21.151 10.4731 21.3938 10.8531 21.6232C11.2356 21.8492 11.6272 22.058 12.0261 22.2533L12.0755 22.2773L12.1249 22.2533C12.5232 22.058 12.9144 21.8483 13.2959 21.6223C13.6755 21.3929 14.0465 21.1481 14.4035 20.8846C14.7611 20.6216 15.1033 20.3385 15.432 20.0405C15.7612 19.7429 16.0732 19.4271 16.3674 19.0955C16.9567 18.4332 17.4774 17.711 17.9151 16.9426C18.1315 16.5568 18.3288 16.1608 18.501 15.7543C18.5894 15.5518 18.6676 15.3455 18.7439 15.1386C18.8168 14.9303 18.884 14.7206 18.9454 14.509C18.6561 15.3407 18.2788 16.1392 17.8186 16.886L17.8196 16.8869Z" fill="white"/>
<path d="M9.12595 6.98104L9.17586 6.59039L9.54875 6.37923L9.80119 6.10328C9.80119 6.10328 9.89237 4.52724 11.6196 4.08044C11.6196 4.08044 10.57 4.34872 10.2302 5.57346C10.1357 5.91467 10.2725 6.29717 10.2725 6.29717L10.2341 7.04343C10.2341 7.04343 9.42734 7.1183 8.98438 7.2973L9.12643 6.98056L9.12595 6.98104Z" fill="white"/>
<path d="M12.5977 4.10681C12.5977 4.10681 13.6688 4.18504 14.0273 5.06424C14.0273 5.06424 13.4596 4.40196 12.5977 4.10681Z" fill="white"/>
<path d="M11.7878 4.08044C11.7878 4.08044 11.0837 4.58723 11.1764 6.9748L11.4586 6.95897C11.4586 6.95897 11.209 4.80799 11.7878 4.08044Z" fill="white"/>
<path d="M8.55859 8.15426C8.99148 8.05683 9.20936 8.01556 9.64704 7.94885C9.82125 8.05539 9.90811 8.10578 10.0828 8.20321C10.0857 8.76615 10.0866 8.8794 10.0895 9.4433C9.92539 9.56136 9.84332 9.62279 9.67919 9.75477H8.55907C8.55907 8.92596 8.55907 8.98307 8.55907 8.15426H8.55859ZM9.44499 8.35966C9.34085 8.37358 9.28854 8.38125 9.1844 8.39661C9.18584 8.83765 9.1868 8.94371 9.18872 9.38427C9.29334 9.38091 9.34565 9.379 9.45027 9.37564C9.44835 8.92356 9.44739 8.81174 9.44499 8.35966Z" fill="white"/>
<path d="M10.3555 7.85665C10.8263 7.80577 11.0624 7.78946 11.5351 7.77362C11.5351 7.95839 11.5351 8.03901 11.5356 8.19115C11.3206 8.1969 11.2126 8.20122 10.9981 8.21322C10.9986 8.36343 10.999 8.43062 10.9995 8.56356C11.1771 8.55588 11.2659 8.553 11.4439 8.54868C11.4439 8.68306 11.4444 8.74641 11.4449 8.87838C11.2673 8.88126 11.1785 8.88366 11.001 8.88894C11.0014 9.06027 11.0019 9.14521 11.0029 9.34246C11.2232 9.33958 11.3335 9.33862 11.5538 9.33718C11.5538 9.48931 11.5538 9.57042 11.5543 9.75518H10.3646C10.3607 8.80735 10.3588 8.80495 10.3555 7.85713V7.85665Z" fill="white"/>
<path d="M11.7422 7.76763C11.9994 7.76235 12.1285 7.76235 12.3858 7.76763C12.3848 8.56621 12.3848 8.67803 12.3838 9.33599C12.6118 9.33695 12.726 9.33743 12.9544 9.33983C12.9544 9.49052 12.954 9.57115 12.9535 9.75447H11.7446C11.7436 8.77113 11.7431 8.75097 11.7422 7.76763Z" fill="white"/>
<path d="M14.0047 8.66282C14.0061 8.39263 14.0071 8.26161 14.0085 7.88104C14.2614 7.91176 14.3872 7.92951 14.6387 7.97031C14.6353 8.87254 14.6334 8.85191 14.6305 9.75415H13.9989C14.0004 9.37357 14.0013 9.24208 14.0028 8.97237C13.8982 8.96709 13.8458 8.96469 13.7407 8.96037C13.7393 9.23536 13.7383 9.36878 13.7369 9.75415H13.0977C13.1005 8.7828 13.1015 8.7684 13.1044 7.79706C13.3611 7.81338 13.4897 7.82441 13.746 7.85129C13.7446 8.23666 13.7436 8.37056 13.7422 8.64507C13.8468 8.65178 13.8996 8.65514 14.0042 8.66282H14.0047Z" fill="white"/>
<path d="M14.9555 8.02557C15.2093 8.07213 15.336 8.09756 15.588 8.15467C15.588 8.98348 15.588 8.92637 15.588 9.75518H14.9492C14.9516 8.87502 14.9531 8.90621 14.9559 8.02605L14.9555 8.02557Z" fill="white"/>
<path d="M14.9536 8.02502C14.9536 8.02502 15.2708 8.07877 15.7085 8.17812C15.9317 8.22851 16.1313 8.28322 16.1313 8.28322L15.4095 8.587L14.9531 8.02502H14.9536Z" fill="white"/>
<path d="M9.20896 8.02502C9.20896 8.02502 8.89174 8.07877 8.45405 8.17812C8.23089 8.22851 8.03125 8.28322 8.03125 8.28322L8.75304 8.587L9.20944 8.02502H9.20896Z" fill="white"/>
<path d="M6.67951 10.2397C6.44339 11.2936 6.31382 12.3686 6.10938 13.4288C6.441 13.3045 6.60849 13.2435 6.94394 13.1322C6.9761 12.9445 6.99194 12.8399 7.02409 12.6235C7.22229 12.5668 7.32164 12.54 7.52032 12.4891C7.5448 12.6801 7.55727 12.7708 7.58175 12.9359C7.92009 12.8404 8.08998 12.7982 8.42784 12.7319C8.23635 11.9046 8.07942 11.0705 7.90425 10.2397H6.67951ZM7.0932 12.0533C7.14023 11.6368 7.18774 11.2207 7.23765 10.8041C7.27029 10.8027 7.2866 10.8017 7.31972 10.8003C7.36867 11.1924 7.4157 11.5849 7.46465 11.977C7.31588 12.0063 7.24197 12.0217 7.09368 12.0533H7.0932Z" fill="white"/>
<path d="M13.7949 10.2397H12.0039C12.0039 10.412 12.0039 10.4984 12.0039 10.6712C12.1959 10.6712 12.2919 10.6712 12.4838 10.6712C12.4838 11.2917 12.4843 11.9118 12.4843 12.5323C12.8202 12.5342 12.9877 12.5366 13.3237 12.5438C13.3227 11.9204 13.3217 11.297 13.3208 10.6736C13.5108 10.6745 13.6059 10.675 13.7954 10.676C13.7954 10.5018 13.7949 10.4144 13.7945 10.2402L13.7949 10.2397Z" fill="white"/>
<path d="M17.2269 10.2398H16.3799C16.3698 11.1089 16.3616 11.9776 16.3516 12.8467C16.8771 12.9902 17.3891 13.1572 17.9022 13.3415C17.9084 13.1548 17.9113 13.0463 17.917 12.8169C17.619 12.7224 17.4722 12.6773 17.1785 12.5943C17.1948 11.8096 17.2077 11.0245 17.2269 10.2398Z" fill="white"/>
<path d="M8.66674 10.2398C8.66194 11.0595 8.65714 11.8792 8.65234 12.6989C8.99164 12.6403 9.16105 12.6197 9.49603 12.6019C9.49699 12.2809 9.49747 12.1206 9.49843 11.7995C9.71727 11.7918 9.82669 11.7885 10.0451 11.7827C10.2745 11.6431 10.3892 11.5744 10.6181 11.4382C10.6185 11.0945 10.619 10.9227 10.62 10.5786C10.3916 10.4443 10.2773 10.3766 10.0494 10.2398H8.66674ZM9.80654 11.3479C9.68416 11.3508 9.62273 11.3522 9.49987 11.3551C9.50083 11.0869 9.50131 10.9525 9.50179 10.6842C9.62417 10.6828 9.6856 10.6823 9.80798 10.6813C9.80702 10.9477 9.80702 11.0811 9.80606 11.3479H9.80654Z" fill="white"/>
<path d="M10.8945 12.5476C11.2343 12.539 11.4042 12.5361 11.744 12.5333C11.744 11.7688 11.7449 11.0042 11.7454 10.2397H10.8984C10.8969 11.009 10.896 11.7783 10.8945 12.5476Z" fill="white"/>
<path d="M15.1974 12.254C15.0045 12.2397 14.908 12.2329 14.7151 12.2209C14.6882 12.3932 14.6748 12.4762 14.6474 12.6255C14.3215 12.601 14.1584 12.5909 13.832 12.5746C14.0158 11.8005 14.1627 11.0168 14.3316 10.2389C14.812 10.2389 15.0525 10.2389 15.5328 10.2389C15.7378 11.0763 15.8875 11.9248 16.0838 12.7642C15.757 12.7253 15.5933 12.708 15.2655 12.6773C15.2382 12.5194 15.2243 12.4331 15.1969 12.2536L15.1974 12.254ZM14.8912 10.727C14.8437 11.1229 14.8202 11.348 14.7727 11.7617C14.9171 11.7689 14.9896 11.7727 15.134 11.7809C15.0688 11.3561 15.0366 11.1272 14.9713 10.7284C14.9392 10.7279 14.9234 10.7274 14.8912 10.727Z" fill="white"/>
<path d="M18.966 11.5669C18.9722 11.2531 18.9756 11.0981 18.9818 10.8188C19.1234 10.8269 19.1944 10.8308 19.3365 10.8389C19.3331 11.0299 19.3312 11.1321 19.3278 11.3419C19.6594 11.3798 19.8265 11.3995 20.1643 11.4374C20.1643 11.135 20.1643 10.9886 20.1643 10.7281L20.7844 10.2395H19.5927H18.7102C18.4808 10.3926 18.3656 10.4775 18.1367 10.6445C18.1266 11.004 18.1218 11.2156 18.1122 11.6327C18.3411 11.8693 18.4553 11.9974 18.6871 12.2676C18.9333 12.3473 19.0576 12.3886 19.3091 12.4735C19.3038 12.8099 19.3009 12.9764 19.2957 13.274C19.1493 13.2246 19.0768 13.2001 18.9329 13.1521C18.9372 12.9707 18.9391 12.8742 18.9429 12.676C18.5979 12.5786 18.4285 12.5306 18.0925 12.4399C18.0868 12.6765 18.0839 12.7922 18.0781 13.0028C18.2917 13.25 18.3987 13.3757 18.6171 13.6138C18.9948 13.7606 19.1872 13.8374 19.5855 13.9905C19.8236 13.9185 19.9435 13.8672 20.1845 13.7338V12.4557C19.9378 12.1428 19.8183 11.9921 19.5827 11.7152C19.3336 11.6538 19.2102 11.6241 18.9655 11.5669H18.966Z" fill="white"/>
<path d="M4.547 10.2396H3.40625L3.99702 10.7286L3.99606 10.7296C3.99606 11.7345 3.99606 12.7394 3.99606 13.7444C4.22306 13.8826 4.33632 13.9354 4.56476 14.0083C4.89926 13.8768 5.06915 13.8082 5.41277 13.6733C5.63785 13.4319 5.75111 13.3033 5.97907 13.0504C5.98483 12.7044 5.9877 12.5024 5.99298 12.1016C5.66424 12.1751 5.50011 12.2134 5.17473 12.2883C5.17041 12.6655 5.16849 12.8546 5.16417 13.1877C5.01924 13.2366 4.94725 13.2616 4.80376 13.31C4.81144 12.4889 4.81816 11.6673 4.82631 10.8462C4.97269 10.8385 5.04563 10.8342 5.19201 10.8265C5.18865 11.0996 5.18673 11.2503 5.18337 11.556C5.50971 11.5104 5.67384 11.4869 6.00258 11.4427C6.00738 11.1087 6.00978 10.9436 6.01458 10.6523C5.79286 10.4824 5.68248 10.3955 5.46076 10.24H4.54748L4.547 10.2396Z" fill="white"/>
<path d="M10.3585 16.6166C10.3585 16.6166 10.36 16.6161 10.3555 16.6136C10.3565 16.6146 10.3575 16.6156 10.3585 16.6166Z" fill="#D71920"/>
<path d="M13.4219 13.7957C13.4219 13.7957 13.5793 13.8672 13.7281 14.0006C13.7281 14.0006 14.0611 13.8571 13.9258 13.3599C13.9335 13.5989 13.7559 13.7707 13.4219 13.7962V13.7957Z" fill="white"/>
<path d="M10.2231 13.3394C10.2231 13.3394 10.4967 13.5871 10.5807 13.6077L10.4074 13.6326C10.4074 13.6326 10.6944 13.8481 10.8811 13.8337L10.6455 13.9854C10.6455 13.9854 10.2956 13.7075 10.2227 13.3394H10.2231Z" fill="white"/>
<path d="M10.4473 15.3715C10.4473 15.3715 10.4142 16.3131 10.8077 16.7061C10.8077 16.7061 10.4295 16.3745 10.2812 15.8154L10.4473 15.3715Z" fill="white"/>
<path d="M13.7171 15.5378C13.7171 15.5378 13.6101 16.3935 13.2031 16.7727C13.2031 16.7727 13.6504 16.4991 13.8184 15.9458L13.7166 15.5383L13.7171 15.5378Z" fill="white"/>
<path d="M13.9537 13.1541C13.7718 13.1123 13.6216 13.2889 13.5746 13.3513C13.528 13.4137 13.4915 13.5073 13.2578 13.5951C13.4968 13.6105 13.8913 13.4603 13.9278 13.4032C13.9383 13.5121 13.9388 13.6949 13.7305 14.0002L13.9071 14.1403C13.9071 14.1403 14.2445 13.7252 13.9537 13.1541Z" fill="#D71920"/>
<path d="M12.2231 16.6081C12.2644 16.8341 12.7429 16.8192 12.9133 16.7401C13.0836 16.6609 13.1422 16.4257 13.1422 16.4257C13.1422 16.4257 13.1215 16.4463 13.0217 16.5049C12.9219 16.5634 12.7635 16.5697 12.7635 16.5697C12.7635 16.5697 12.9867 16.4727 13.0894 16.3115C13.1921 16.1502 13.1508 16.0235 13.1508 16.0235C13.1508 16.0235 13.0596 16.2025 12.9305 16.3052C12.8014 16.408 12.5461 16.4521 12.5461 16.4521C12.5461 16.4521 12.8633 16.2817 12.954 16.1555C13.0452 16.0293 13.0687 15.8767 13.0687 15.8767C13.0687 15.8767 12.5845 16.1968 12.6488 16.1498C12.7136 16.1027 12.966 15.8153 12.966 15.8153L12.7486 15.774L12.5989 15.8767L12.6085 15.905C12.6229 15.9472 12.6215 15.9933 12.6032 16.0346L12.4631 16.3576C12.4535 16.3792 12.4401 16.3988 12.4228 16.4156L12.2227 16.6081H12.2231Z" fill="white"/>
<path d="M12.4099 18.5528C12.3638 18.5792 12.2491 18.6215 12.0941 18.6205C11.8829 18.6191 11.6823 18.6095 11.5772 18.5164C11.4117 18.369 11.3377 18.1804 11.3377 18.1804C11.3401 18.2774 11.3272 18.3796 11.2734 18.4449C11.2734 18.4449 11.5724 18.6133 11.6185 18.8845C11.654 19.0913 12.4377 19.1254 12.4953 18.8393C12.5476 18.5783 12.6666 18.4525 12.777 18.4449C12.7343 18.3474 12.7276 18.1804 12.7276 18.1804C12.7276 18.1804 12.5404 18.478 12.4099 18.5524V18.5528Z" fill="white"/>
<path d="M13.6559 15.2922C13.6559 15.2922 13.6612 14.8329 13.3185 14.724C13.3238 14.8589 13.2461 15.0014 13.2149 15.0479C13.3185 15.0014 13.1544 15.2015 13.1472 15.2749C13.1333 15.4199 13.0143 15.5331 12.7709 15.5432C12.7273 15.5384 12.6975 15.5264 12.6836 15.5211L12.9667 15.7731C13.2513 15.7203 13.332 15.382 13.3344 15.3594C13.3368 15.3416 13.3617 15.3959 13.3843 15.4967C13.3891 15.512 13.4361 15.8648 13.3881 16.1167C13.5758 15.7601 13.5172 15.2634 13.5172 15.2634C13.5057 15.2092 13.4942 15.1737 13.4898 15.1622C13.4745 15.1156 13.6559 15.2917 13.6559 15.2917V15.2922Z" fill="#D71920"/>
<path d="M11.1898 15.8129L11.1778 15.8153C11.1778 15.8153 11.222 15.8656 11.2781 15.9276C11.3563 16.0139 11.4571 16.1224 11.4946 16.1498C11.5382 16.1814 11.3314 16.0461 11.1927 15.9544C11.126 15.9103 11.0746 15.8767 11.0746 15.8767C11.0746 15.8767 11.0809 15.9165 11.0991 15.9722C11.1164 16.0255 11.1447 16.0936 11.1893 16.1555C11.2805 16.2817 11.5973 16.4521 11.5973 16.4521C11.5973 16.4521 11.3419 16.408 11.2129 16.3052C11.0838 16.2025 10.9926 16.0235 10.9926 16.0235C10.9926 16.0235 10.9513 16.1498 11.054 16.3115C11.1567 16.4727 11.3799 16.5697 11.3799 16.5697C11.3799 16.5697 11.2215 16.5639 11.1217 16.5049C11.0218 16.4463 11.0012 16.4257 11.0012 16.4257C11.0012 16.4257 11.0598 16.6604 11.2301 16.7401C11.4005 16.8192 11.879 16.8341 11.9202 16.6081L11.7201 16.4156C11.7028 16.3993 11.6894 16.3796 11.6798 16.3576L11.5397 16.0346C11.5219 15.9933 11.52 15.9472 11.5344 15.905L11.544 15.8767L11.4576 15.8172L11.3943 15.774L11.2037 15.81L11.1893 15.8129H11.1898Z" fill="white"/>
<path d="M10.0654 14.7083C9.9502 14.9415 9.99963 15.1498 9.60226 15.5044C9.62386 15.5188 9.68144 15.49 9.71024 15.49C9.51587 15.7132 9.53747 16.0448 9.55187 16.1312C9.58786 16.1384 9.69584 16.0736 9.73184 16.0592C9.76783 16.0448 9.65985 16.4916 9.9046 16.8731C9.9334 16.8156 9.96939 16.8156 9.98379 16.7436C9.99963 16.7503 10.0174 16.7599 10.0356 16.7709C10.2684 16.9077 10.6883 17.3425 10.8553 17.6295C10.9057 17.6079 10.9633 17.5719 10.9633 17.5719C10.9633 17.5719 10.9854 17.6919 11.0694 17.8498C11.126 17.9563 11.3208 18.1377 11.3208 18.1377C11.2988 17.9568 11.1994 17.6199 11.2224 17.4423C10.79 17.2696 10.3941 16.8156 10.3149 16.7004C10.3725 16.7292 10.4656 16.7148 10.4877 16.7364C10.4781 16.7272 10.3538 16.6039 10.2228 16.4417C10.0932 16.2814 9.95692 16.0842 9.919 15.9224C9.919 15.9224 10.2357 15.5116 10.2429 15.1517C10.2463 14.989 10.2948 14.7898 10.3797 14.6142C10.4354 14.499 10.5064 14.3939 10.5909 14.3162C10.206 14.4145 10.0668 14.7049 10.0649 14.7083H10.0654Z" fill="white"/>
<path d="M12.8132 15.3458C12.8256 15.3645 12.8472 15.3765 12.8712 15.3765C12.9087 15.3765 12.9384 15.3477 12.9413 15.3108C12.9922 15.2892 13.0368 15.2445 13.0675 15.2071C13.0718 15.2354 13.0752 15.328 12.9571 15.4034C12.8165 15.4931 12.7109 15.3746 12.7109 15.3746C12.7565 15.3746 12.7882 15.3631 12.8136 15.3458H12.8132Z" fill="#D71920"/>
<path d="M12.9404 15.3106C12.9404 15.3106 12.9409 15.3072 12.9409 15.3058C12.9409 15.2818 12.9289 15.2602 12.9102 15.2477C12.9711 15.1891 13.0647 15.1983 13.0647 15.1983C13.0647 15.1983 13.0656 15.2016 13.0661 15.2069C13.0354 15.2443 12.9913 15.289 12.9399 15.3106H12.9404Z" fill="white"/>
<path d="M11.3379 15.3458C11.3254 15.3645 11.3038 15.3765 11.2799 15.3765C11.2424 15.3765 11.2127 15.3477 11.2098 15.3108C11.1589 15.2892 11.1143 15.2445 11.0836 15.2071C11.0792 15.2354 11.0759 15.328 11.1939 15.4034C11.3346 15.4931 11.4401 15.3746 11.4401 15.3746C11.3946 15.3746 11.3629 15.3631 11.3374 15.3458H11.3379Z" fill="#D71920"/>
<path d="M11.2117 15.3106C11.2117 15.3106 11.2112 15.3072 11.2112 15.3058C11.2112 15.2818 11.2232 15.2602 11.2419 15.2477C11.181 15.1891 11.0874 15.1983 11.0874 15.1983C11.0874 15.1983 11.0864 15.2016 11.0859 15.2069C11.1167 15.2443 11.1608 15.289 11.2122 15.3106H11.2117Z" fill="white"/>
<path d="M11.3242 16.8755C11.3271 16.9567 11.3607 17.1611 11.5623 17.3065C11.4979 17.0968 11.5848 16.8755 11.5848 16.8755C11.5848 16.8755 11.4 16.9005 11.3247 16.8755H11.3242Z" fill="white"/>
<path d="M12.725 16.8755C12.6496 16.9005 12.4648 16.8755 12.4648 16.8755C12.4648 16.8755 12.5517 17.0968 12.4874 17.3065C12.689 17.1611 12.7226 16.9567 12.725 16.8755Z" fill="white"/>
<path d="M11.6753 16.8925C11.6753 16.8925 11.9815 16.834 12.077 16.834C12.1845 16.834 12.4163 16.8954 12.4163 16.8954C12.4163 16.8954 12.4677 17.0144 12.436 17.0859C12.436 17.0859 12.4101 16.9904 12.3774 16.9914C12.3659 16.9914 12.1869 16.99 12.077 16.9914C11.9532 16.9928 11.7003 16.9914 11.6921 16.9914C11.6633 16.9904 11.6355 17.0879 11.635 17.0859C11.6297 17.0331 11.6307 16.9017 11.6753 16.8925Z" fill="white"/>
<path d="M11.5065 18.3386L11.6773 18.4197C11.6547 18.389 11.5429 18.1538 11.5684 17.9887C11.4369 18.2546 11.5069 18.3386 11.5069 18.3386H11.5065Z" fill="white"/>
<path d="M12.518 18.3386C12.518 18.3386 12.5881 18.2546 12.4566 17.9887C12.4816 18.1538 12.3697 18.389 12.3477 18.4197L12.5185 18.3386H12.518Z" fill="white"/>
<path d="M11.844 17.3383L12.0748 17.7559L12.0455 17.3331C12.0455 17.3331 12.2927 17.4238 12.37 17.7132C12.4463 17.9992 12.4276 18.063 12.1367 18.0933C11.6208 18.0933 11.6261 17.9666 11.6261 17.9666C11.6069 17.7002 11.8445 17.3383 11.8445 17.3383H11.844Z" fill="#D71920"/>
<path d="M12.277 18.4071C12.277 18.4071 12.1326 18.4316 12.0059 18.4306C11.8504 18.4297 11.7693 18.4057 11.7405 18.3961C11.7323 18.3932 11.7256 18.3874 11.7227 18.3793C11.7117 18.3519 11.6896 18.2867 11.7146 18.2214C11.7146 18.2214 11.7299 18.3001 11.7568 18.2996C11.7664 18.2996 12.2602 18.2958 12.2674 18.2963C12.2919 18.2972 12.3149 18.22 12.3154 18.2214C12.3284 18.2708 12.3149 18.3999 12.2775 18.4076L12.277 18.4071Z" fill="white"/>
<path d="M13.319 14.7239C13.2201 14.8761 13.1587 15.0541 13.1587 15.0541C13.1693 15.248 13.1002 15.3593 13.0478 15.415C13.0373 15.4265 13.0253 15.4366 13.0119 15.4448C12.8573 15.5417 12.697 15.5187 12.6836 15.5211C12.6836 15.5211 12.8756 15.6291 13.0675 15.522C13.1611 15.4697 13.164 15.2926 13.164 15.2926C13.3771 15.1333 13.319 14.7239 13.319 14.7239Z" fill="white"/>
<path d="M12.6587 13.766C12.7417 13.8595 12.7734 13.8927 12.8008 13.9819C12.4629 13.7031 11.8145 13.6052 11.4042 14.0486C11.5981 13.5783 12.4154 13.4746 12.6793 13.465C12.6793 13.465 12.0492 13.1915 11.277 13.5462C11.2132 13.5754 11.1489 13.609 11.0836 13.6474C11.0328 13.6772 10.752 13.5658 10.6431 13.4382C10.6426 13.4377 10.6416 13.4367 10.6411 13.4363C10.4765 13.2764 10.3614 13.1526 10.1871 13.1555C10.1022 13.2515 10.0542 13.4569 10.0691 13.6489C10.084 13.8418 10.1368 14.0371 10.2375 14.1278C10.2908 14.0779 10.4103 13.991 10.4103 13.991C10.4103 13.991 10.2625 13.8595 10.2236 13.6215C10.2159 13.575 10.2126 13.5246 10.2155 13.4703C10.2169 13.4454 10.2265 13.3974 10.2303 13.3705C10.2428 13.3931 10.2899 13.4387 10.3143 13.4603C10.3882 13.5255 10.4996 13.5802 10.5408 13.5932C10.5423 13.5932 10.5442 13.5946 10.5452 13.5946C10.5956 13.609 10.3959 13.6234 10.3959 13.6234C10.3959 13.6234 10.5183 13.789 10.7851 13.8538C10.7942 13.8562 10.572 13.9886 10.1108 14.637C10.1728 14.5684 10.2289 14.5093 10.3047 14.4575C10.3892 14.3999 10.5903 14.3169 10.5903 14.3169C10.6459 14.2675 10.7079 14.23 10.7746 14.2094C10.6738 14.3169 10.6114 14.435 10.5735 14.553C10.4593 14.9096 10.5744 15.2614 10.5634 15.2935C10.549 15.3367 10.7218 15.1495 10.7218 15.1495C10.7218 15.1495 10.692 15.2398 10.6762 15.3756C10.6512 15.5167 10.6378 15.7499 10.7338 16.0163C10.7539 16.0719 10.7784 16.129 10.8086 16.1871C10.7962 16.1219 10.789 16.058 10.7851 15.9976C10.7741 15.8243 10.8115 15.5104 10.8106 15.5095C10.8897 15.6371 11.0304 15.7158 11.2094 15.7648L11.4695 15.5215C11.4277 15.5368 11.2526 15.5685 11.159 15.4802C11.1542 15.5076 11.1441 15.5133 11.1475 15.5546C11.1475 15.5546 10.9771 15.5076 10.9924 15.2897C10.8451 15.0819 10.9094 15.0195 10.9977 15.0507C10.9555 14.9528 10.8139 14.7675 10.8422 14.4484C10.8456 14.4124 10.8499 14.3754 10.8581 14.3366C10.8581 14.3366 10.8672 14.3063 10.8921 14.2579C10.8801 14.2843 10.8653 14.4052 10.8705 14.4364C10.9377 14.8539 11.302 15.1438 11.2972 15.1001C11.2919 15.0536 11.3365 15.0032 11.2794 14.9461C11.3471 14.9513 11.4138 15.0214 11.4968 15.2033C11.5194 15.2503 11.7262 15.4029 11.7262 15.4029L11.7272 15.4073L11.8808 15.5152L11.6269 15.4672C11.6111 15.4644 11.5943 15.4663 11.5794 15.4725L11.4695 15.521L11.6005 15.5488C11.6202 15.5532 11.6379 15.5628 11.6523 15.5767L11.816 15.7374L11.6149 15.6448L11.5554 15.6261C11.5299 15.6179 11.5026 15.6223 11.481 15.6371L11.3855 15.7029L11.4954 15.7005C11.5223 15.7 11.5487 15.7106 11.5674 15.7302L11.6494 15.8152L11.6307 15.9107C11.6245 15.9414 11.6264 15.9736 11.636 16.0033L11.6754 16.1266C11.6826 16.1492 11.6984 16.1684 11.7195 16.1794L12.0257 16.3417C12.0593 16.3594 12.0991 16.3594 12.1327 16.3417L12.436 16.1799C12.4567 16.1689 12.4725 16.1502 12.4797 16.1276L12.519 16.0043C12.5286 15.9745 12.5306 15.9424 12.5243 15.9116L12.5056 15.8161L12.617 15.7245C12.6304 15.7134 12.6477 15.7072 12.6649 15.7077L12.7633 15.7086L12.663 15.6405C12.6453 15.6285 12.6227 15.6256 12.6026 15.6338L12.3381 15.7389L12.5042 15.5757C12.5171 15.5632 12.533 15.5546 12.5507 15.5508L12.6846 15.5224L12.5661 15.4701C12.5565 15.4658 12.5464 15.4648 12.5363 15.4668L12.2733 15.5162L12.4231 15.4082L12.5838 15.3852L12.5944 15.3794C12.5944 15.3794 12.5978 15.3751 12.5982 15.3741C12.6122 15.3502 12.5949 15.2345 12.6122 15.2206C12.6122 15.222 12.6122 15.2235 12.6122 15.2249C12.6328 15.2302 12.7293 15.0204 12.8847 14.9254C12.8382 14.9878 12.8411 15.0516 12.8689 15.0833C13.1314 14.9811 13.2432 14.5319 13.2538 14.397C13.2538 14.397 13.1468 13.9589 12.6587 13.7669V13.766ZM11.9268 14.0433C11.958 13.9603 12.0775 13.8979 12.0775 13.8979C12.0775 13.8979 12.1917 13.9498 12.2229 14.0433C12.6098 14.0789 12.7763 14.2871 12.8425 14.4282C12.807 14.3769 12.4327 14.1734 12.0756 14.3164C11.6859 14.1259 11.3437 14.4436 11.3437 14.4436C11.4647 14.0366 11.9441 14.052 11.9268 14.0433ZM12.0766 14.8698C11.8966 14.613 11.4786 14.6893 11.3317 14.8242C11.5559 14.4786 11.9825 14.5223 11.9825 14.5223L12.0766 14.434C12.0766 14.434 12.1164 14.4801 12.1591 14.5276C12.1975 14.4959 12.6347 14.4945 12.8559 14.7973C12.8219 14.7464 12.3496 14.5708 12.0766 14.8698Z" fill="#D71920"/>
<path d="M11.5373 15.3732L11.7236 15.4073C11.7082 15.2974 11.4572 14.9888 11.223 14.8875C11.223 14.8875 11.2969 15.0426 11.2518 15.0565C11.2067 15.0709 11.0205 14.8252 10.9845 14.7632C10.9845 14.7632 10.9768 14.8923 11.0901 15.0253C11.1937 15.1467 11.366 15.0637 11.5369 15.3727L11.5373 15.3732Z" fill="white"/>
<path d="M12.5975 15.3854L12.4219 15.407C12.454 15.3043 12.7261 14.9799 12.9114 14.8997C12.9114 14.8997 12.8375 15.0548 12.8826 15.0687C12.9277 15.0826 13.1038 14.847 13.1398 14.7855C13.1398 14.7855 13.1576 14.905 13.0443 15.038C12.9407 15.1594 12.7684 15.0764 12.5975 15.3854Z" fill="white"/>
<path d="M11.1553 15.4599C11.1524 15.4575 11.1485 15.4551 11.1452 15.4518C11.1433 15.4503 11.1413 15.4489 11.1394 15.447C11.0852 15.4004 10.9815 15.2814 10.994 15.0534C10.994 15.0534 10.9527 14.8538 10.8539 14.7012C10.8539 14.7012 10.7756 15.1331 10.9887 15.2919C10.9887 15.2919 10.9561 15.5108 11.1433 15.5573C11.1433 15.5573 11.2752 15.6063 11.4677 15.5204C11.4288 15.5348 11.2551 15.5309 11.1553 15.4594V15.4599Z" fill="white"/>
<path d="M13.9898 14.7083C14.105 14.9415 14.0556 15.1498 14.4529 15.5044C14.4313 15.5188 14.3738 15.49 14.345 15.49C14.5393 15.7132 14.5177 16.0448 14.5033 16.1312C14.4673 16.1384 14.3594 16.0736 14.3234 16.0592C14.2874 16.0448 14.3954 16.4916 14.1506 16.8731C14.1218 16.8156 14.0858 16.8156 14.0714 16.7436C14.0556 16.7503 14.0378 16.7599 14.0196 16.7709C13.7868 16.9077 13.3669 17.3425 13.1999 17.6295C13.1495 17.6079 13.0919 17.5719 13.0919 17.5719C13.0919 17.5719 13.0698 17.6919 12.9858 17.8498C12.9292 17.9563 12.7344 18.1377 12.7344 18.1377C12.7565 17.9568 12.8558 17.6199 12.8328 17.4423C13.2652 17.2696 13.6611 16.8156 13.7403 16.7004C13.6827 16.7292 13.5896 16.7148 13.5675 16.7364C13.5771 16.7272 13.7014 16.6039 13.8324 16.4417C13.962 16.2814 14.0983 16.0842 14.1362 15.9224C14.1362 15.9224 13.8195 15.5116 13.8123 15.1517C13.8089 14.989 13.7604 14.7898 13.6755 14.6142C13.6198 14.499 13.5488 14.3939 13.4643 14.3162C13.8492 14.4145 13.9884 14.7049 13.9903 14.7083H13.9898Z" fill="white"/>
<path d="M8.75059 14.2106C8.75059 14.2106 8.82882 14.439 8.8125 14.6253C8.79666 14.8067 8.64453 14.9967 8.64453 14.9967C8.64453 14.9967 8.90321 14.8388 8.91136 14.8379C8.92 14.8364 8.94832 14.5134 8.9536 14.5053C8.95887 14.4971 8.77555 14.1986 8.77555 14.1986L8.75011 14.2106H8.75059Z" fill="white"/>
<path d="M7.82834 15.7012L7.72612 15.7339L7.64453 15.8087C7.64453 15.8087 7.78755 15.8601 7.87537 15.754C7.89169 15.7343 7.9032 15.7161 7.91088 15.7003" fill="#D71920"/>
<path d="M7.82732 15.7016L7.78125 15.6776L7.90795 15.5984C7.90795 15.5984 7.94346 15.6311 7.90987 15.7007C7.90987 15.7007 7.87483 15.7175 7.82732 15.7021V15.7016Z" fill="white"/>
<path d="M7.1012 16.5912C7.15783 16.5629 7.45153 16.3076 7.42898 16.321C7.40642 16.3345 7.0676 16.4477 7.08824 16.4391C7.10888 16.4305 7.35987 16.1972 7.35987 16.1972L7.15975 16.1732L6.75854 16.297C6.7451 16.3594 6.80317 16.4895 6.66016 16.6637C6.71295 16.7582 6.90395 16.8173 6.90395 16.8173C6.90395 16.8173 7.07768 16.8283 7.35219 16.6694C7.37619 16.6133 7.41314 16.5576 7.46833 16.5063C7.4165 16.5365 7.04457 16.6195 7.1012 16.5912Z" fill="white"/>
<path d="M8.6738 14.058C8.51639 14.1065 8.47895 14.3081 8.47079 14.3762C8.46263 14.4444 8.47607 14.5322 8.33594 14.7026C8.5255 14.609 8.76114 14.3196 8.76354 14.2601C8.81969 14.3388 8.96462 14.4617 8.87584 14.8038L9.0702 14.7597C9.0702 14.7597 9.14795 14.3666 8.67332 14.058H8.6738Z" fill="#D71920"/>
<path d="M7.09375 16.9132C7.13022 16.9866 7.24684 17.1603 7.49304 17.2093C7.3457 17.0432 7.33275 16.8038 7.33275 16.8038C7.33275 16.8038 7.17342 16.9046 7.09375 16.9127V16.9132Z" fill="white"/>
<path d="M8.23221 17.9791C8.17606 17.9344 8.04888 17.8034 8.0508 17.5865C8.16598 17.742 8.36755 17.7976 8.36755 17.7976C8.36755 17.7976 8.31476 17.9416 8.23269 17.9791H8.23221Z" fill="white"/>
<path d="M8.41718 16.8508L8.29768 17.1008L8.30488 16.8301C8.30488 16.8301 8.17578 16.9098 8.17578 17.2184C8.17578 17.4056 8.23049 17.5356 8.37974 17.6018C8.5122 17.5558 8.6413 17.2851 8.6413 17.2851C8.45413 17.1603 8.4167 16.8503 8.4167 16.8503L8.41718 16.8508Z" fill="#D71920"/>
<path d="M6.56787 16.3553L6.51172 16.4537L6.62546 16.6154C6.69409 16.5578 6.69505 16.4868 6.70464 16.3543C6.70464 16.3543 6.66241 16.35 6.56787 16.3548V16.3553Z" fill="#D71920"/>
<path d="M9.11666 15.6998C9.1061 15.8755 9.07538 16.2052 9.44492 16.4754C9.30526 16.3357 9.18528 15.7459 9.45019 15.444C9.58505 15.29 9.68007 14.8374 9.88644 14.6306C9.89651 14.6205 9.90563 14.6023 9.90563 14.6023C9.53754 14.7995 9.23663 14.9977 9.25631 14.9665C9.30382 14.8897 9.49243 14.5298 9.79333 14.3844C9.68535 14.3863 9.02931 14.608 8.68089 14.9435C8.68665 14.9008 8.67561 14.8082 8.70969 14.7371C8.70105 14.7419 8.17554 14.9454 7.84392 15.2391C7.8468 15.2065 7.87512 15.1292 7.89096 15.1071C7.51806 15.2353 7.19124 15.7147 7.19124 15.7147C7.19124 15.7147 7.21092 15.779 7.21284 15.8021C7.21188 15.803 7.21044 15.8035 7.209 15.8045C7.1946 15.8126 7.17109 15.8294 7.17109 15.8294C6.80539 16.0708 6.59375 16.3045 6.59375 16.3045L6.76028 16.2973L7.15957 16.1745C7.21044 16.161 7.48111 16.0766 7.52094 16.0478C7.62364 16.2503 8.28497 16.3655 8.29888 16.3612C8.11844 16.4336 7.90631 16.4399 7.88424 16.4384L7.41392 16.6731C7.41392 16.6731 7.94279 16.4504 8.4011 16.712C8.60843 16.8478 8.74088 16.9846 8.74424 17.1636L8.77064 17.1194C8.75 16.8958 8.67322 16.7139 8.24177 16.4955C8.24177 16.4955 8.56811 16.4888 8.87334 16.591C8.81287 16.4341 8.84886 16.1102 8.90693 15.9225C9.01203 15.5842 8.91077 15.2598 8.76584 15.004C8.86326 15.0918 9.13729 15.3793 9.11762 15.7008L9.11666 15.6998ZM7.86792 15.9552C7.55166 15.8793 7.32226 15.9379 7.28675 15.9537L7.72587 15.5136L7.72971 15.6451C7.84824 15.4503 7.87416 15.4153 8.08004 15.3399C8.1194 15.5223 8.11652 15.7392 7.86744 15.9552H7.86792ZM8.64106 15.1926C8.57003 15.2718 8.49037 15.4752 8.51196 15.5631C8.30272 15.7056 8.28928 16.1308 8.28928 16.1308C8.23073 15.9662 8.25185 15.5736 8.29168 15.4882C8.33152 15.4023 8.71209 15.1139 8.64106 15.1926Z" fill="#D71920"/>
<path d="M9.2847 16.8462C9.2847 16.8462 9.42147 16.8232 9.62832 16.9763C9.56257 16.8952 9.51074 16.5616 9.51074 16.5616C9.17144 16.7056 9.01163 16.0836 9.01691 16.015C9.01691 16.015 8.89213 16.4388 9.12201 16.8721C9.12393 16.8755 8.98187 16.7354 8.67137 16.6715C8.67137 16.6715 9.0769 17.1193 8.76159 17.2383C8.76159 17.2383 8.76159 17.2393 8.76255 17.2412C8.94876 17.7825 8.55571 17.9577 8.55571 17.9577L8.57107 17.7072C8.52164 17.7614 8.51396 17.9673 8.26296 18.0383C8.21833 18.1502 8.30328 18.286 8.30328 18.286L8.35895 18.2154C8.35895 18.2154 8.54851 18.3455 8.56051 18.3608C8.63538 18.2888 8.91996 18.0662 9.07306 17.9831C9.07018 17.9059 9.06538 17.6606 9.09561 17.5061C9.17768 17.2172 9.36197 17.1471 9.4877 17.1634C9.46419 17.0871 9.42867 16.9288 9.28422 16.8467L9.2847 16.8462Z" fill="white"/>
<path d="M7.28516 15.9551C7.29955 15.7296 7.47664 15.468 7.78043 15.3082C7.72908 15.36 7.6926 15.4095 7.69548 15.4522C7.69548 15.4522 8.02038 15.0898 8.64235 15.0898C7.97671 15.2861 7.72812 15.6465 7.72812 15.6465L7.72428 15.515L7.28516 15.9551Z" fill="white"/>
<path d="M7.28516 15.9552C7.28516 15.9552 7.43681 15.8472 7.86777 15.9552C7.86777 15.9513 7.60574 16.0147 7.60574 16.0147C7.56255 15.9753 7.4013 15.9388 7.28516 15.9552Z" fill="white"/>
<path d="M8.80017 15.7374L8.51174 15.5632C8.3884 15.6194 8.3049 15.7797 8.28906 16.131C8.28906 16.131 8.42344 15.8665 8.80017 15.7374Z" fill="white"/>
<path d="M9.38165 16.9347C9.38165 16.9347 9.73199 17.0499 9.81789 17.2375C10.067 17.2779 10.5723 17.644 10.6659 17.8605C10.6659 17.8605 10.6693 17.4425 9.93835 17.0633C9.93835 17.0633 9.59473 16.8954 9.51123 16.5613C9.51123 16.5613 9.33654 16.8162 9.23528 16.7922C9.19065 16.7811 9.01836 17.0513 9.31255 17.1161C9.29287 17.0581 9.46756 16.9957 9.38165 16.9347Z" fill="white"/>
<path d="M15.3086 14.2107C15.3086 14.2107 15.2304 14.4392 15.2467 14.6254C15.2625 14.8068 15.4146 14.9968 15.4146 14.9968C15.4146 14.9968 15.156 14.8389 15.1478 14.838C15.1392 14.8365 15.1109 14.5136 15.1056 14.5054C15.1003 14.4972 15.2836 14.1987 15.2836 14.1987L15.3091 14.2107H15.3086Z" fill="white"/>
<path d="M16.231 15.7013L16.3332 15.734L16.4148 15.8088C16.4148 15.8088 16.2718 15.8602 16.184 15.7541C16.1676 15.7345 16.1561 15.7162 16.1484 15.7004" fill="#D71920"/>
<path d="M16.2298 15.7011L16.2759 15.6771L16.1492 15.5979C16.1492 15.5979 16.1137 15.6305 16.1473 15.7001C16.1473 15.7001 16.1823 15.7169 16.2298 15.7016V15.7011Z" fill="white"/>
<path d="M16.9531 16.5913C16.8964 16.563 16.6027 16.3077 16.6253 16.3211C16.6478 16.3345 16.9867 16.4478 16.966 16.4391C16.9454 16.4305 16.6944 16.1973 16.6944 16.1973L16.8945 16.1733L17.2957 16.2971C17.3092 16.3595 17.2511 16.4895 17.3941 16.6638C17.3413 16.7583 17.1503 16.8173 17.1503 16.8173C17.1503 16.8173 16.9766 16.8284 16.7021 16.6695C16.6781 16.6134 16.6411 16.5577 16.5859 16.5063C16.6378 16.5366 17.0097 16.6196 16.9531 16.5913Z" fill="white"/>
<path d="M15.3855 14.058C15.5429 14.1065 15.5804 14.3081 15.5885 14.3762C15.5967 14.4444 15.5832 14.5322 15.7234 14.7026C15.5338 14.609 15.2982 14.3196 15.2958 14.2601C15.2396 14.3388 15.0947 14.4617 15.1835 14.8038L14.9891 14.7597C14.9891 14.7597 14.9114 14.3666 15.386 14.058H15.3855Z" fill="#D71920"/>
<path d="M16.9657 16.9132C16.9292 16.9866 16.8126 17.1603 16.5664 17.2093C16.7137 17.0432 16.7267 16.8038 16.7267 16.8038C16.7267 16.8038 16.886 16.9046 16.9657 16.9127V16.9132Z" fill="white"/>
<path d="M15.8228 17.9791C15.879 17.9345 16.0062 17.8035 16.0042 17.5865C15.8891 17.742 15.6875 17.7977 15.6875 17.7977C15.6875 17.7977 15.7403 17.9417 15.8224 17.9791H15.8228Z" fill="white"/>
<path d="M15.6421 16.8508L15.7616 17.1008L15.7544 16.8301C15.7544 16.8301 15.8835 16.9098 15.8835 17.2184C15.8835 17.4056 15.8288 17.5356 15.6795 17.6018C15.5471 17.5558 15.418 17.2851 15.418 17.2851C15.6051 17.1603 15.6426 16.8503 15.6426 16.8503L15.6421 16.8508Z" fill="#D71920"/>
<path d="M17.4883 16.3553L17.5445 16.4537L17.4307 16.6154C17.3621 16.5578 17.3612 16.4868 17.3516 16.3543C17.3516 16.3543 17.3938 16.35 17.4883 16.3548V16.3553Z" fill="#D71920"/>
<path d="M14.9413 15.6998C14.9519 15.8755 14.9826 16.2052 14.6131 16.4754C14.7527 16.3357 14.8727 15.7459 14.6078 15.444C14.4729 15.29 14.3779 14.8374 14.1715 14.6306C14.1615 14.6205 14.1523 14.6023 14.1523 14.6023C14.5204 14.7995 14.8213 14.9977 14.8017 14.9665C14.7542 14.8897 14.5655 14.5298 14.2646 14.3844C14.3726 14.3863 15.0287 14.608 15.3771 14.9435C15.3713 14.9008 15.3824 14.8082 15.3483 14.7371C15.3569 14.7419 15.8824 14.9454 16.2141 15.2391C16.2112 15.2065 16.1829 15.1292 16.167 15.1071C16.5399 15.2353 16.8667 15.7147 16.8667 15.7147C16.8667 15.7147 16.8471 15.779 16.8451 15.8021C16.8461 15.803 16.8475 15.8035 16.849 15.8045C16.8634 15.8126 16.8869 15.8294 16.8869 15.8294C17.2526 16.0708 17.4642 16.3045 17.4642 16.3045L17.2977 16.2973L16.8984 16.1745C16.8475 16.161 16.5769 16.0766 16.537 16.0478C16.4343 16.2503 15.773 16.3655 15.7591 16.3612C15.9395 16.4336 16.1517 16.4399 16.1737 16.4384L16.6441 16.6731C16.6441 16.6731 16.1152 16.4504 15.6569 16.712C15.4496 16.8478 15.3171 16.9846 15.3137 17.1636L15.2873 17.1194C15.308 16.8958 15.3848 16.7139 15.8162 16.4955C15.8162 16.4955 15.4899 16.4888 15.1846 16.591C15.2451 16.4341 15.2091 16.1102 15.151 15.9225C15.0459 15.5842 15.1472 15.2598 15.2921 15.004C15.1947 15.0918 14.9207 15.3793 14.9404 15.7008L14.9413 15.6998ZM16.1901 15.9552C16.5063 15.8793 16.7357 15.9379 16.7712 15.9537L16.3321 15.5136L16.3283 15.6451C16.2097 15.4503 16.1838 15.4153 15.9779 15.3399C15.9386 15.5223 15.9415 15.7392 16.1905 15.9552H16.1901ZM15.4169 15.1926C15.4879 15.2718 15.5676 15.4752 15.546 15.5631C15.7553 15.7056 15.7687 16.1308 15.7687 16.1308C15.8272 15.9662 15.8061 15.5736 15.7663 15.4882C15.7265 15.4023 15.3459 15.1139 15.4169 15.1926Z" fill="#D71920"/>
<path d="M14.7733 16.8463C14.7733 16.8463 14.6365 16.8233 14.4297 16.9763C14.4954 16.8952 14.5473 16.5617 14.5473 16.5617C14.8866 16.7057 15.0464 16.0837 15.0411 16.0151C15.0411 16.0151 15.1659 16.4388 14.936 16.8722C14.9341 16.8756 15.0761 16.7354 15.3866 16.6716C15.3866 16.6716 14.9811 17.1194 15.2964 17.2384C15.2964 17.2384 15.2964 17.2393 15.2955 17.2413C15.1092 17.7826 15.5023 17.9578 15.5023 17.9578L15.4869 17.7073C15.5364 17.7615 15.544 17.9674 15.795 18.0384C15.8397 18.1502 15.7547 18.286 15.7547 18.286L15.6991 18.2155C15.6991 18.2155 15.5095 18.3455 15.4975 18.3609C15.4226 18.2889 15.138 18.0662 14.9849 17.9832C14.9878 17.9059 14.9926 17.6607 14.9624 17.5062C14.8803 17.2173 14.696 17.1472 14.5703 17.1635C14.5938 17.0872 14.6293 16.9288 14.7738 16.8468L14.7733 16.8463Z" fill="white"/>
<path d="M16.7713 15.9551C16.7569 15.7296 16.5798 15.468 16.276 15.3082C16.3273 15.36 16.3638 15.4095 16.3609 15.4522C16.3609 15.4522 16.036 15.0898 15.4141 15.0898C16.0797 15.2861 16.3283 15.6465 16.3283 15.6465L16.3321 15.515L16.7713 15.9551Z" fill="white"/>
<path d="M16.774 15.9552C16.774 15.9552 16.6224 15.8472 16.1914 15.9552C16.1914 15.9514 16.4534 16.0147 16.4534 16.0147C16.4966 15.9754 16.6579 15.9389 16.774 15.9552Z" fill="white"/>
<path d="M15.2578 15.7375L15.5462 15.5633C15.6696 15.6194 15.7531 15.7797 15.7689 16.131C15.7689 16.131 15.6345 15.8666 15.2578 15.7375Z" fill="white"/>
<path d="M14.6749 16.9353C14.6749 16.9353 14.3245 17.0505 14.2386 17.2381C13.9896 17.2785 13.4842 17.6446 13.3906 17.8611C13.3906 17.8611 13.3873 17.4431 14.1182 17.0639C14.1182 17.0639 14.4618 16.896 14.5453 16.562C14.5453 16.562 14.72 16.8168 14.8212 16.7928C14.8659 16.7818 15.0382 17.0519 14.744 17.1167C14.7637 17.0587 14.589 16.9963 14.6749 16.9353Z" fill="white"/>
<defs>
<linearGradient id="paint0_linear_487_48963" x1="12.0289" y1="2.89659" x2="12.0289" y2="21.5124" gradientUnits="userSpaceOnUse">
<stop offset="0.13" stop-color="#2561AE"/>
<stop offset="0.21" stop-color="#255BA7"/>
<stop offset="0.34" stop-color="#264B93"/>
<stop offset="0.49" stop-color="#273273"/>
<stop offset="0.54" stop-color="#282968"/>
</linearGradient>
<linearGradient id="paint1_linear_487_48963" x1="12.0289" y1="2.89659" x2="12.0289" y2="21.5124" gradientUnits="userSpaceOnUse">
<stop offset="0.13" stop-color="#2561AE"/>
<stop offset="0.21" stop-color="#255BA7"/>
<stop offset="0.34" stop-color="#264B93"/>
<stop offset="0.49" stop-color="#273273"/>
<stop offset="0.54" stop-color="#282968"/>
</linearGradient>
</defs>
</svg>
