<svg width="24" height="24" viewBox="0 0 24 24" fill="none" xmlns="http://www.w3.org/2000/svg">
<path d="M9.06933 18.6355L1.23438 18.6465L3.71176 15.2918L3.41382 15.0766L4.87046 11.4957L4.48974 10.9771L5.11323 9.58114L5.39462 9.49285C5.51601 9.45423 6.17812 9.26663 6.44296 9.19491C6.57539 9.1618 6.79609 9.10662 6.97265 9.068C7.08852 9.04041 7.84443 8.88592 8.08168 8.83626L8.41825 8.11346L8.48998 8.10243C8.68862 8.06932 8.88173 8.04173 9.08036 8.01414L11.9992 4.05804L14.929 8.0307C15.2214 8.07484 15.4145 8.10794 15.4918 8.1245L15.558 8.13553L15.9387 8.95765L17.0201 9.22249C17.0201 9.22249 17.5002 9.32733 17.8257 9.5701C17.8367 9.57562 18.3664 9.91219 18.6423 10.5412C18.9016 11.1371 19.2934 12.0144 19.2934 12.0144L19.3265 12.0916L19.1996 12.2516C19.2989 12.3565 19.47 12.5386 19.6189 12.7924C19.6189 12.7979 19.7569 13.0462 19.9003 13.3772C20.0383 13.7028 20.7169 15.2311 20.7169 15.2311L20.7666 15.336L20.4686 15.5346L22.7639 18.6465H14.8793L12.0047 19.8438L9.07485 18.6355H9.06933Z" fill="url(#paint0_linear_487_48942)"/>
<path d="M19.5816 15.5571L20.2272 15.1322L19.532 13.5652C19.394 13.2342 19.3002 13.0521 19.3002 13.0521C19.0519 12.6107 18.594 12.2686 18.594 12.2686L18.8257 11.9706C18.8257 11.9706 18.4505 11.1265 18.2574 10.685C18.0643 10.2436 17.656 9.84086 17.1484 9.69188C16.6408 9.54291 15.7359 9.36083 15.7359 9.36083L15.5041 10.034C15.3 9.99535 14.7372 9.91258 14.7372 9.91258L14.6048 10.4036L14.3068 9.85189C14.3068 9.85189 13.0102 9.64222 11.2059 9.6974C9.48447 9.74706 7.96162 10.0174 7.96162 10.0174L7.68574 9.34979C6.6705 9.53187 5.42353 9.92362 5.42353 9.92362L5.0042 10.8561L5.37939 11.3747L3.95034 14.8839L4.59038 15.3308L2.67578 17.9241H9.26376L12.0005 19.0221L14.7372 17.9241H21.3252L19.5871 15.5681L19.5816 15.5571ZM5.56699 15.3639C5.46767 15.3915 5.10351 15.4909 5.09248 15.4909L4.2814 14.9281C4.46348 14.8729 4.82763 14.7736 5.32973 14.6522L6.03047 15.2426C5.97529 15.2591 5.66079 15.3364 5.56699 15.3584V15.3639ZM7.5809 14.9777C7.46503 14.9998 7.18364 15.0494 7.12846 15.0605L6.51601 14.4039C6.7312 14.3653 6.95742 14.3211 7.18916 14.2825C7.31606 14.2604 7.44297 14.2439 7.56987 14.2218L8.06093 14.895C8.02231 14.9005 7.70229 14.9556 7.5809 14.9722V14.9777ZM9.62241 14.7239C9.52309 14.7349 9.20859 14.7625 9.15341 14.768L8.78925 14.0673C8.9934 14.0452 9.20307 14.0232 9.40722 14.0066C9.56171 13.9956 9.72172 13.979 9.88173 13.968L10.1245 14.6853C10.0583 14.6853 9.72724 14.7129 9.62792 14.7239H9.62241ZM11.2115 14.6301C10.9908 14.6301 10.7756 14.6467 10.748 14.6467L10.5769 13.9294C10.759 13.9183 10.9466 13.9128 11.1397 13.9073C11.3108 13.9073 11.4818 13.9073 11.6639 13.9073L11.7136 14.6301C11.7136 14.6301 11.4598 14.6301 11.217 14.6301H11.2115ZM13.3744 14.6743C13.3744 14.6743 13.1261 14.6522 12.8998 14.6411C12.6736 14.6301 12.4419 14.6246 12.4033 14.6246L12.4419 13.9183C12.624 13.9239 12.8116 13.9349 13.0047 13.9459C13.1868 13.957 13.3578 13.968 13.5288 13.979L13.3633 14.6743H13.3744ZM14.6103 14.8122C14.3675 14.7846 13.8158 14.7239 13.6668 14.7184L13.8654 14.0121C14.2516 14.0397 14.6048 14.0839 14.9303 14.1225L14.6158 14.8177L14.6103 14.8122ZM16.2711 15.0384C16.2711 15.0384 15.5538 14.9115 15.3938 14.8839L15.7855 14.2163C16.1497 14.2715 16.4807 14.3266 16.7897 14.3873L16.2711 15.0329V15.0384ZM17.347 15.2757C17.347 15.2757 17.2974 15.2591 17.2698 15.2536C17.0711 15.1984 16.9222 15.1212 16.8063 15.0439L17.4132 14.3266C17.4187 14.3266 17.4298 14.3377 17.4353 14.3432C17.5346 14.4204 17.6505 14.4867 17.7719 14.5473C17.805 14.5639 18.0974 14.6743 18.2078 14.7074C18.2298 14.7129 19.6975 15.1212 19.852 15.1708C19.863 15.1708 19.8741 15.1763 19.8906 15.1819L19.1623 15.6564C18.9361 15.6122 17.7994 15.3805 17.347 15.2701V15.2757Z" fill="#091C33"/>
<path d="M8.65013 9.62035C8.85428 9.59276 9.05843 9.56517 9.26258 9.5431C9.32328 9.34999 9.38949 9.16239 9.45018 8.96927C9.35638 8.98031 9.2681 8.99134 9.1743 9.00238C9.13568 9.11273 9.09154 9.22308 9.05292 9.33895C8.98671 9.34999 8.9205 9.3555 8.85428 9.36654C8.81014 9.37206 8.79911 9.3555 8.81566 9.31688C8.87084 9.17342 8.92601 9.03549 8.98119 8.89203C8.99774 8.85341 9.02533 8.83134 9.06395 8.82582C9.1743 8.80927 9.27914 8.79823 9.38949 8.78168C9.42259 8.75409 9.4557 8.7265 9.48881 8.69891C9.50536 8.64374 9.52743 8.58856 9.54398 8.53339C9.38397 8.54994 9.21844 8.57201 9.05843 8.5996C8.99222 8.61063 8.93705 8.63822 8.87635 8.68236C8.82118 8.7265 8.77704 8.7872 8.74945 8.85341C8.66669 9.04652 8.58392 9.24515 8.50116 9.43827C8.47357 9.50448 8.47357 9.55414 8.50116 9.58724C8.52875 9.62035 8.57841 9.63138 8.65565 9.62035H8.65013Z" fill="#091C33"/>
<path d="M9.7671 9.50419C9.90504 9.49315 10.0375 9.48212 10.1754 9.47108C10.2471 9.46556 10.3133 9.44349 10.363 9.39935C10.4127 9.35521 10.4458 9.30555 10.4568 9.23934C10.5065 8.96898 10.5561 8.70414 10.6058 8.43378C10.5175 8.43929 10.4347 8.44481 10.3464 8.45033C10.2913 8.6931 10.2361 8.93588 10.1864 9.17865C10.1754 9.21727 10.1533 9.23934 10.1092 9.23934C10.0485 9.23934 9.99332 9.25038 9.93262 9.2559C9.88848 9.2559 9.87745 9.24486 9.88297 9.20624C9.94918 8.96346 9.99332 8.72069 10.054 8.47792C9.96573 8.48343 9.88297 8.49447 9.79468 8.50551C9.71744 8.77587 9.65675 9.04623 9.57398 9.31659C9.55191 9.3828 9.56295 9.43246 9.59605 9.46556C9.62916 9.49867 9.68433 9.51522 9.75606 9.5097L9.7671 9.50419Z" fill="#091C33"/>
<path d="M10.8791 9.1951C10.7963 9.1951 10.7135 9.20614 10.6363 9.20614C10.6252 9.28339 10.6087 9.36063 10.5977 9.4434C10.719 9.43788 10.8459 9.43236 10.9673 9.42684C11.0391 9.42684 11.0998 9.39925 11.1494 9.36063C11.1991 9.32201 11.2211 9.26683 11.2322 9.20062C11.2598 8.93578 11.2818 8.66542 11.3094 8.40057C11.2211 8.40057 11.1384 8.40609 11.0501 8.41161C11.017 8.65438 10.9894 8.89164 10.9563 9.13441C10.9563 9.17303 10.9287 9.1951 10.8846 9.1951H10.8791Z" fill="#091C33"/>
<path d="M14.6806 8.79789C14.7744 9.05721 14.8682 9.31654 14.962 9.57587C15.0613 9.5869 15.1606 9.60345 15.2544 9.61449C15.1496 9.35516 15.0447 9.09584 14.9454 8.83099C15.0116 8.84203 15.2268 8.8641 15.2213 8.8641C15.2103 8.84203 15.1992 8.81996 15.1882 8.79237C15.1882 8.79237 15.144 8.68202 15.122 8.63236C14.8516 8.59374 14.5868 8.55511 14.3164 8.52753C14.344 8.60477 14.3661 8.68754 14.3937 8.76478C14.4875 8.77582 14.5812 8.78685 14.675 8.79789H14.6806Z" fill="#091C33"/>
<path d="M11.7187 8.38949C11.6194 8.68192 11.5035 8.97987 11.3821 9.2723C11.3821 9.31092 11.3766 9.35506 11.3711 9.39369C11.4704 9.39369 11.5642 9.39369 11.6635 9.38817C11.6801 9.33299 11.6966 9.2723 11.7132 9.21713C11.818 9.21713 11.9284 9.21713 12.0332 9.21713C12.0442 9.2723 12.0608 9.33299 12.0773 9.38817C12.1767 9.38817 12.2705 9.38817 12.3698 9.38817C12.3698 9.34955 12.3698 9.30541 12.3643 9.26678C12.2484 8.97435 12.1436 8.68192 12.0498 8.38397C11.9394 8.38397 11.8291 8.38397 11.7187 8.38397V8.38949ZM11.7739 8.99642C11.807 8.86952 11.8401 8.74261 11.8732 8.61571C11.8732 8.61571 11.8842 8.61571 11.8897 8.61571C11.9173 8.74261 11.9449 8.86952 11.978 8.99091C11.9118 8.99091 11.8456 8.99091 11.7739 8.99091V8.99642Z" fill="#091C33"/>
<path d="M13.2046 9.42167C13.304 9.42167 13.4971 9.43822 13.4971 9.43822C13.4971 9.3996 13.4916 9.36097 13.486 9.32235C13.4088 9.22855 13.3315 9.14027 13.2543 9.04647H13.2653C13.2874 9.04647 13.3095 9.0244 13.3315 9.00233C13.3536 8.98026 13.3702 8.93612 13.3591 8.88094C13.3426 8.8037 13.3315 8.72645 13.315 8.65472C13.304 8.58851 13.2764 8.53334 13.2267 8.49471C13.1826 8.45057 13.1274 8.4285 13.0612 8.4285C12.8736 8.41747 12.6915 8.41195 12.5039 8.40643C12.526 8.73749 12.5536 9.07406 12.5812 9.40511C12.6805 9.40511 12.7798 9.40511 12.8736 9.41615C12.8625 9.30028 12.846 9.18993 12.835 9.07406C12.8846 9.07406 12.9343 9.07406 12.9839 9.07958C13.0557 9.19545 13.1274 9.31131 13.1991 9.4327L13.2046 9.42167ZM12.8129 8.83129C12.8074 8.77059 12.8019 8.70438 12.7908 8.64369C12.857 8.64369 12.9288 8.64921 12.995 8.65472C13.0336 8.65472 13.0557 8.67679 13.0612 8.71542C13.0612 8.73749 13.0667 8.76508 13.0722 8.78715C13.0777 8.82577 13.0612 8.84232 13.0226 8.84232C12.9508 8.84232 12.8791 8.8368 12.8129 8.83129Z" fill="#091C33"/>
<path d="M13.6445 9.32738C13.6445 9.366 13.65 9.41014 13.6556 9.44877C13.6556 9.44877 13.8487 9.46532 13.948 9.47084C13.948 9.41566 13.948 9.36048 13.948 9.29979C14.0528 9.31083 14.1632 9.31634 14.268 9.32738C14.2956 9.38807 14.3287 9.44325 14.3563 9.50394C14.4556 9.51498 14.6487 9.53705 14.6487 9.53705C14.6377 9.49842 14.6211 9.45428 14.6101 9.41566C14.4225 9.10668 14.2404 8.80321 14.0583 8.49423C13.948 8.48319 13.8321 8.47216 13.7218 8.46112C13.6942 8.74803 13.6721 9.03495 13.6445 9.32186V9.32738ZM13.9535 8.70941C14.0142 8.84183 14.0804 8.96874 14.1466 9.10116C14.0804 9.09564 14.0142 9.09012 13.9425 9.08461C13.9425 8.9577 13.9425 8.83632 13.937 8.70941C13.937 8.70941 13.948 8.70941 13.9535 8.70941Z" fill="#091C33"/>
<path d="M14.0582 8.06976L12.0001 5.28339L9.95312 8.06976C10.549 8.00907 11.2498 7.97596 12.0057 7.97596C12.7616 7.97596 13.4623 8.00907 14.0582 8.06976Z" fill="#091C33"/>
<path d="M14.0918 15.7059C14.2463 15.7997 14.3953 15.899 14.5443 15.9928C13.6946 15.9377 12.6352 15.9101 11.9952 15.9101C11.3551 15.9101 10.2957 15.9377 9.44604 15.9928C9.59502 15.8935 9.74951 15.7997 9.89848 15.7059C8.42529 15.9432 5.39062 16.3901 5.39062 16.3901C5.39062 16.3901 7.62524 16.3184 8.67358 16.2135C8.4915 16.3184 8.31494 16.4177 8.13838 16.5225C9.42397 16.4011 11.0296 16.3405 11.9952 16.3405C12.9607 16.3405 14.5719 16.4011 15.8519 16.5225C15.6754 16.4177 15.4933 16.3129 15.3167 16.2135C16.3596 16.3184 18.5997 16.3901 18.5997 16.3901C18.5997 16.3901 15.5595 15.9487 14.0918 15.7059Z" fill="white"/>
<path d="M9.27427 10.7174C9.27427 10.7174 8.73906 13.9286 8.73354 13.9397C8.8439 13.9286 9.15288 13.8955 9.29082 13.8845C9.42876 13.8735 9.84809 13.8404 9.84809 13.8404L10.1847 10.6346C10.2454 10.6346 10.4826 10.6181 10.5378 10.6126C10.5985 10.6126 10.8688 10.596 10.8909 10.596C10.8909 10.5353 10.9295 9.91736 10.9351 9.86218C9.98052 9.87874 8.72803 10.0498 8.72803 10.0498C8.71699 10.1105 8.66733 10.3312 8.64526 10.425C8.62319 10.5188 8.56802 10.7836 8.5625 10.8002C8.5625 10.8002 8.89907 10.756 8.91562 10.756C8.97632 10.7505 9.21357 10.7229 9.26875 10.7174H9.27427Z" fill="white"/>
<path d="M14.4201 13.9174C14.5581 13.9284 14.8726 13.9671 14.9608 13.9781C14.9608 13.9671 14.6353 12.1794 14.6353 12.1794C14.6353 12.1794 15.805 14.0774 15.8105 14.0884C15.8105 14.0884 16.2023 14.1491 16.3292 14.1712C16.4616 14.1933 16.7872 14.254 16.8478 14.265C16.8478 14.254 15.7885 10.5517 15.6947 10.2206C15.6726 10.2206 15.3416 10.1544 15.2698 10.1434C15.1981 10.1323 14.9112 10.0882 14.845 10.0772C14.8781 10.2206 15.2367 11.7821 15.2478 11.8262C15.2478 11.8262 14.2436 10.0661 14.1994 9.98889C14.1332 9.98337 13.8959 9.95579 13.7911 9.94475C13.6918 9.93372 13.3828 9.90613 13.3828 9.90613C13.4214 10.1986 13.8684 13.8512 13.8739 13.8622C13.9622 13.8677 14.2822 13.8953 14.4146 13.9119L14.4201 13.9174Z" fill="white"/>
<path d="M6.44531 14.2815C6.44531 14.2815 7.09087 14.1601 7.51572 14.0939C7.51572 14.0828 8.44267 10.1433 8.45371 10.0936C8.09507 10.1433 7.62607 10.2316 7.62607 10.2316C7.59297 10.3474 6.45083 14.2649 6.44531 14.2759V14.2815Z" fill="white"/>
<path d="M7.35898 10.2812C7.35898 10.2812 7.5852 9.55286 7.59624 9.52527C6.78515 9.67976 5.53266 10.0494 5.53266 10.0494C5.52163 10.0715 5.21265 10.7612 5.18506 10.8274C5.24023 10.8109 5.78647 10.6619 5.84165 10.6453C5.84165 10.6453 4.14224 14.8166 4.13672 14.8277C4.13672 14.8277 4.89263 14.618 5.27886 14.5297C5.27886 14.5187 6.68032 10.4357 6.68032 10.4357C6.68032 10.4357 7.29829 10.2867 7.35346 10.2757L7.35898 10.2812Z" fill="white"/>
<path d="M19.3941 13.6199C19.2286 13.2392 19.1789 13.1454 19.1789 13.1454C19.0299 12.8861 18.881 12.7316 18.7209 12.5771C18.594 12.4557 18.3844 12.2957 18.3016 12.235C18.1195 12.0971 17.4078 11.5564 17.4078 11.5564C17.336 11.4957 17.2974 11.4405 17.2753 11.4074C17.2753 11.4019 17.2643 11.3798 17.2533 11.3577C17.2422 11.3357 16.9443 10.508 16.9388 10.5025L17.2367 10.5798C17.3195 10.5963 17.3471 10.6625 17.3471 10.6625L17.5347 11.1315L18.6437 11.9426C18.6437 11.9426 18.6437 11.9426 18.6382 11.9316L18.1471 10.8225C18.1471 10.8225 18.0312 10.486 17.6947 10.1715C17.3581 9.85696 16.9719 9.79075 16.9719 9.79075L15.8242 9.52039C15.8242 9.52039 16.1663 10.6129 16.2987 11.0488C16.2987 11.0488 16.3594 11.2584 16.387 11.3191C16.4532 11.4681 16.5856 11.6888 16.8505 11.9095C16.8505 11.9095 16.9001 11.9647 17.154 12.1412C17.1981 12.1743 17.9981 12.7647 18.0754 12.8144C18.2299 12.9192 18.263 13.0627 18.263 13.0627C18.263 13.0627 18.5775 13.8682 18.5996 13.9179L18.2023 13.8131C18.2023 13.8131 18.125 13.791 18.0975 13.7303C18.0975 13.7303 17.9319 13.2889 17.9209 13.2503C17.8547 13.2061 16.7346 12.4337 16.7346 12.4337C16.7346 12.4337 17.0602 13.493 17.0988 13.6199C17.1319 13.7303 17.2091 13.951 17.474 14.1717C17.6119 14.2876 17.794 14.4034 18.0423 14.4972C18.0423 14.4972 18.2244 14.5745 18.5996 14.6738C18.9582 14.7676 20.001 15.0655 20.0341 15.0766C20.0341 15.0766 19.5431 13.9786 19.3831 13.6089L19.3941 13.6199Z" fill="white"/>
<path d="M12.7104 9.85158C12.4566 9.84054 12.2083 9.83502 11.9876 9.83502C11.7228 9.83502 11.2924 9.84606 11.2924 9.84606C11.2538 10.0833 10.5807 13.6918 10.5586 13.7856C10.5586 13.7856 11.2097 13.758 11.6676 13.7635L11.7449 12.8973H12.3021C12.3132 12.9745 12.4291 13.7746 12.4346 13.7856C12.4346 13.7856 13.047 13.8077 13.5436 13.8408C13.5436 13.8408 12.7104 9.86261 12.7104 9.84606V9.85158ZM12.2139 12.1248H11.8166L11.9821 10.4861L12.2139 12.1248Z" fill="white"/>
<defs>
<linearGradient id="paint0_linear_487_48942" x1="0.964014" y1="11.9482" x2="24.9875" y2="11.9482" gradientUnits="userSpaceOnUse">
<stop offset="0.07" stop-color="#F3DC89"/>
<stop offset="0.21" stop-color="#EFD886"/>
<stop offset="0.35" stop-color="#E5CC7E"/>
<stop offset="0.48" stop-color="#D4B970"/>
<stop offset="0.61" stop-color="#BC9E5E"/>
<stop offset="0.64" stop-color="#C2A563"/>
<stop offset="0.85" stop-color="#F3DC89"/>
<stop offset="0.91" stop-color="#DDC478"/>
<stop offset="1" stop-color="#BC9E5E"/>
</linearGradient>
</defs>
</svg>
