<svg width="24" height="24" viewBox="0 0 24 24" fill="none" xmlns="http://www.w3.org/2000/svg">
<g clip-path="url(#clip0_487_48767)">
<path d="M19.2443 10.1433C19.2443 10.1433 18.1953 10.2534 18.131 10.2632C18.128 10.2595 18.1255 10.2558 18.1225 10.2528C18.0907 10.2124 18.0546 10.1745 18.0154 10.1402L18.2014 8.9847L17.7408 8.81036C16.9345 8.50451 15.9815 8.28307 14.9551 8.15706L14.8749 7.97661L14.1537 6.35927L14.7691 6.30361L13.5365 4.55292L13.0625 3.80236C13.0625 3.80236 12.9725 3.76443 12.9205 3.74669C12.9322 3.68552 13.1842 2.28289 12.0165 1.60023C11.7681 1.45526 11.524 1.35861 11.2971 1.2956C11.2971 1.2956 11.1613 1.24911 10.9087 1.21425C10.4279 1.14818 9.82473 1.23138 9.55497 1.28582C9.3635 1.15124 9.02523 0.599487 9.02523 0.599487C9.02523 0.599487 8.93287 1.80332 9.66813 2.47802C9.35372 2.34895 9.15308 2.19297 8.9292 2.01802C8.7567 1.88345 8.57869 1.74398 8.33646 1.60941C8.1138 1.48523 7.88319 1.42406 7.65135 1.42223C7.13752 1.41917 6.64449 1.85286 6.64449 1.85286C6.64449 1.85286 7.30023 1.92015 7.63361 2.12568C7.31981 2.13302 7.27944 2.40156 7.27944 2.40156L7.46845 2.50983C8.0251 2.85483 7.57733 2.93619 7.41034 2.86156L6.9222 2.60893C6.9222 2.60893 7.17116 3.51302 7.76819 3.57052L7.63055 3.70387C7.63055 3.70387 8.67289 3.88555 9.00076 4.20853C9.22954 4.43486 9.35188 4.66058 9.19162 4.73337C9.0656 4.79026 8.90045 4.66853 8.78422 4.53212C8.65148 4.37613 8.55239 4.06294 8.55178 4.06478C8.3542 4.44893 8.50957 4.86183 8.50957 4.86183C8.59031 5.10528 8.77994 5.44417 9.22832 5.63073C9.59656 5.78366 9.72135 5.88092 9.80638 5.97268C10.1801 6.37579 10.3875 6.89145 10.3875 6.89145L9.92688 8.13321L9.86571 8.30754C8.8509 8.49289 7.91683 8.76999 7.12284 9.126L6.52398 9.39759L6.87327 10.484C6.47749 10.7311 6.02973 11.1146 5.90372 11.6346C5.82664 11.9521 5.87925 12.264 6.05603 12.5368C6.21263 12.7791 6.44569 12.954 6.72401 13.0421L6.52765 14.0887C6.04686 14.4056 5.74345 14.78 5.64742 15.1757C5.57095 15.4901 5.62356 15.7997 5.79912 16.0707C5.94715 16.2994 6.16614 16.4689 6.42672 16.5594L6.26707 17.4201L6.29521 17.477C6.30255 17.4922 6.48116 17.8513 6.81026 18.2104C7.15342 18.5841 7.68194 18.8753 7.96944 19.0172C7.92539 19.123 7.863 19.2962 7.88686 20.2412L7.926 21.7454L9.04603 20.7398C9.0497 20.7361 9.42834 20.3991 10.0376 19.9513C10.2352 20.1642 10.6291 20.5709 11.0555 20.9117C11.6556 21.3912 12.3382 21.7001 12.4134 21.7338C12.608 21.8206 12.7199 21.8641 12.7493 21.8641H12.8129L12.8637 21.8262C13.2802 21.513 14.1892 20.6988 14.2271 20.6639L15.0707 19.8699L15.5827 19.3518L16.1485 18.7462L16.7474 18.0507L17.2245 17.4274L16.8648 17.3375L17.4624 17.1882L17.4263 16.8457L17.5958 16.8732L17.8607 16.478C18.0215 16.2456 18.3873 15.6113 18.5458 15.1745L18.6436 14.9047L18.5898 14.7592L18.7666 14.3579C19.0094 13.8067 19.1764 12.9791 18.9146 12.3117L18.7537 11.9019C18.9611 11.6554 19.0223 11.3281 19.0724 11.0584L19.2437 10.1439L19.2443 10.1433ZM12.4055 8.04451C11.9473 8.05797 11.4953 8.08916 11.0524 8.13688C11.4623 7.93746 11.7498 7.67321 11.9021 7.51111C12.244 7.75579 12.6086 7.92278 12.9573 8.03717C12.9505 8.03717 12.9444 8.03717 12.9377 8.03717C12.7646 8.03717 12.5859 8.03962 12.4055 8.04512V8.04451Z" fill="url(#paint0_linear_487_48767)"/>
<path d="M8.24571 18.9352C8.17964 19.0092 8.16007 19.0557 8.14906 19.0833C8.11603 19.1628 8.05486 19.3108 8.0781 20.2363L8.10624 21.3282L8.91919 20.5984C8.92592 20.5923 9.36451 20.2008 10.0643 19.6968C10.1518 19.7947 10.6387 20.3342 11.1751 20.763C11.7709 21.2395 12.4628 21.5466 12.4921 21.5594C12.4921 21.5594 12.7491 21.6738 12.7503 21.6732C13.165 21.3612 14.1015 20.5214 14.1015 20.5214L13.584 20.2375L14.4276 20.2192L14.7151 19.9482L14.1768 19.7561L14.986 19.6858L15.2907 19.375L14.5713 19.1854L15.5005 19.1628L15.7966 18.8459L14.9934 18.6257L16.0039 18.6147L16.3905 18.1718L15.2937 17.9516H16.5753L16.8964 17.5399L16.081 17.3362L17.2573 17.042L17.212 16.6163L17.5069 16.6646L17.7051 16.3685C17.8562 16.1495 18.2171 15.5238 18.3681 15.1084L18.4391 14.9127L18.351 14.7243C18.3272 14.6723 18.3033 14.6233 18.2795 14.5775L18.4648 14.572L18.5933 14.2808C18.8208 13.7645 18.9786 12.9944 18.7382 12.3808L18.5327 11.8566C18.7676 11.6486 18.83 11.3232 18.8863 11.0223L19.0104 10.3586L18.3388 10.4283C18.2366 10.4387 18.1369 10.454 18.0397 10.4717C18.0207 10.4362 17.9987 10.402 17.973 10.3708C17.9265 10.3121 17.8708 10.2625 17.8091 10.2228L17.9889 9.10763L17.6733 8.98834C16.3783 8.49715 14.6961 8.22678 12.9368 8.22678C12.7625 8.22678 12.5857 8.22983 12.4102 8.23473C10.4527 8.29284 8.60233 8.67087 7.20153 9.2997L6.75744 9.50095L7.10121 10.5696C7.09754 10.572 7.09326 10.5739 7.08959 10.5763C6.70116 10.799 6.21241 11.1709 6.08885 11.6792C6.02462 11.9441 6.06866 12.2053 6.21608 12.4328C6.37941 12.6849 6.63877 12.8482 6.94523 12.899L6.70055 14.2043C6.3427 14.4276 5.94265 14.7689 5.83316 15.2204C5.76954 15.4828 5.81297 15.7409 5.95917 15.9673C6.11454 16.207 6.358 16.3661 6.64611 16.4217L6.46566 17.3931C6.46566 17.3931 6.63571 17.7387 6.95012 18.0819C7.40768 18.5804 8.24448 18.9358 8.24448 18.9358L8.24571 18.9352Z" fill="#3A225D"/>
<path d="M8.24911 3.28486C8.76355 3.02672 9.04799 2.90744 9.09143 2.90561C9.13486 2.90316 8.53906 2.78816 8.24789 2.52696C7.92858 2.24069 7.59153 2.30981 7.56462 2.34529C7.56462 2.34529 8.07845 2.63707 7.94204 2.916C7.77198 3.26345 7.32422 3.03162 7.32422 3.03162C7.32422 3.03162 7.5897 3.61702 8.24911 3.28486Z" fill="#3A225D"/>
<path d="M9.92227 2.76698C9.06527 2.52352 8.86953 2.12408 8.24315 1.77602C7.61738 1.42797 7.14453 1.74605 7.14453 1.74605C7.71158 1.84331 7.9899 2.16201 8.53615 2.5223C9.08179 2.8832 9.92288 2.76698 9.92288 2.76698" fill="#3A225D"/>
<path d="M10.2936 4.65949C10.2936 4.65949 10.4618 4.34508 10.7444 4.14995C10.7444 4.14995 10.7181 4.13037 10.6716 4.09856C10.5291 4.00253 10.1957 3.79455 9.82504 3.68811C9.82504 3.68811 10.3297 3.62572 11.0619 3.83737C11.0809 3.84287 11.0998 3.84777 11.1188 3.85327C11.1188 3.85327 11.2711 3.72481 11.8669 3.67037C12.2902 3.63184 12.6334 3.74133 12.6334 3.74133C12.6334 3.74133 12.6248 3.72114 12.6077 3.68689C12.4982 3.46973 12.018 2.67636 10.8606 2.72958C10.8606 2.72958 11.2546 2.84886 11.3843 3.26787C11.3843 3.26787 10.8631 2.90208 9.73451 2.96325C8.60653 3.02319 8.01562 3.59697 8.01562 3.59697C8.01562 3.59697 8.58818 3.72726 9.02616 3.87896C9.55589 4.06309 10.1174 4.50902 10.2422 4.61178C10.2593 4.62585 10.2685 4.63319 10.2685 4.63319L10.2936 4.65949Z" fill="#3A225D"/>
<path d="M10.3081 2.84503C10.3081 2.84503 10.5044 2.6187 11.0855 2.61136C11.4526 2.60708 11.8728 2.79855 11.8728 2.79855C11.8275 2.32876 11.5229 2.059 11.5229 2.059C12.2398 2.23578 12.2875 3.06831 12.2998 3.07687C12.5457 3.2561 12.7365 3.71059 12.7365 3.71059C12.7365 3.71059 12.9891 2.38748 11.9236 1.76416C11.0023 1.22586 10.1447 1.40203 10.1447 1.40203C10.1447 1.40203 10.5368 1.46259 10.8194 1.71828C11.1008 1.97336 11.0042 2.40094 10.4763 2.26147C9.94777 2.122 9.27734 1.23993 9.27734 1.23993C9.35319 2.08714 10.3093 2.84442 10.3093 2.84442" fill="#3A225D"/>
<path d="M10.1463 4.79748C10.1481 4.7932 10.1499 4.79014 10.1518 4.78586C10.1579 4.77301 10.1646 4.75956 10.1713 4.74671H10.1707C10.1628 4.73754 9.65751 4.22309 9.10881 4.07996C9.10881 4.07996 9.55046 4.48062 9.45504 4.74365C9.31863 5.11985 8.74179 4.83113 8.64453 4.56809C8.64453 4.56809 8.67328 5.19019 9.30578 5.45445C9.63793 5.59331 9.83735 5.72238 9.92238 5.82453C9.96458 5.87469 9.98232 5.90833 9.98232 5.90833C9.98232 5.90833 9.92972 5.25687 10.1456 4.79687" fill="#3A225D"/>
<path d="M10.3099 5.80924C10.3112 5.17857 10.513 4.68432 10.8941 4.3803C11.419 3.96129 12.0099 3.92581 12.4124 3.96924C12.6797 3.99799 12.8987 4.06344 13.0308 4.11115L12.9323 3.95395C12.9323 3.95395 11.8288 3.48538 10.8935 4.15826C10.2267 4.63783 10.0646 5.50828 10.2255 6.12488L10.3546 6.35243C10.3307 6.20317 10.3093 6.01416 10.3093 5.80863" fill="#3A225D"/>
<path d="M13.0879 4.29389C12.9821 4.25107 12.727 4.15993 12.4058 4.12568C12.0156 4.08408 11.4436 4.11834 10.9353 4.52389C10.4735 4.89275 10.3762 5.47754 10.375 5.90328C10.375 6.20118 10.4203 6.46482 10.4533 6.61653L10.5732 6.82817C10.5732 6.82817 11.0699 6.57004 11.3409 6.00849C11.8223 5.01203 12.3753 4.78326 12.8359 4.70068C13.1668 4.64195 13.3038 4.63828 13.3038 4.63828L13.0879 4.29389Z" fill="#3A225D"/>
<path d="M14.6135 7.92401C14.1676 7.93441 12.9173 7.87752 11.8511 7.01379C11.804 7.08353 11.6743 7.26153 11.4547 7.453C11.2021 7.67443 10.7782 7.95459 10.1958 8.03534L10.1328 8.20417C11.2455 8.09406 11.8737 7.25175 11.8737 7.25175C13.0812 8.21823 14.6814 8.07754 14.6814 8.07754L14.6135 7.92523V7.92401Z" fill="#3A225D"/>
<path d="M13.6669 5.73531C13.6669 5.73531 13.4932 5.99773 13.0962 5.92739C12.6992 5.85704 12.597 5.47656 12.597 5.47656C12.6099 5.47473 13.1794 5.43374 13.2638 5.42518C13.8137 5.37074 13.9862 6.18247 13.9862 6.18247L14.423 6.14332L13.4375 4.74374C12.419 4.74619 11.9193 5.21353 11.4807 6.05829C11.1173 6.75869 10.5595 6.97707 10.5595 6.97707L10.2188 7.89646C11.2837 7.73374 11.8098 6.88837 11.8147 6.87981L11.8336 6.84922L11.8618 6.87247C12.8986 7.72824 14.1208 7.79919 14.5839 7.79185L13.6675 5.73654L13.6669 5.73531ZM12.5243 5.22087C12.5243 5.22087 13.1665 5.16154 13.2412 5.16459C13.3421 5.16826 13.4889 5.20558 13.5293 5.30712C13.5293 5.30712 13.4449 5.24656 13.2699 5.25941C13.1317 5.26981 12.5665 5.31079 12.5665 5.31079L12.5236 5.22087H12.5243ZM14.3306 7.70377L13.5489 5.9439C13.5489 5.9439 13.5935 5.92616 13.64 5.876L14.4536 7.7105C14.4536 7.7105 14.393 7.71172 14.3306 7.70377Z" fill="#3A225D"/>
<path opacity="0.3" d="M11.8346 4.13562C11.5514 4.17783 11.2425 4.28488 10.9531 4.50937L11.4792 5.74501C11.7067 5.34985 11.9465 5.10578 12.182 4.95163L11.8346 4.13562Z" fill="url(#paint1_linear_487_48767)"/>
<path opacity="0.3" d="M12.0067 6.98404C12.4423 7.30886 12.9017 7.50583 13.3188 7.62266L12.2398 5.08777C11.9682 5.28596 11.7529 5.56673 11.5547 5.92274L12.0061 6.98343L12.0067 6.98404Z" fill="url(#paint2_linear_487_48767)"/>
<path opacity="0.3" d="M12.2249 7.49517C12.6421 7.74902 13.0813 7.89522 13.4709 7.9778L13.3853 7.77594C12.9803 7.67012 12.5301 7.49211 12.0977 7.19543L12.2249 7.49517Z" fill="url(#paint3_linear_487_48767)"/>
<path d="M8.25099 9.69547L8.3458 9.98481L8.1366 10.0533L8.06014 9.81965L7.85093 9.88816L7.9274 10.1218L7.71819 10.1903L7.52734 9.60861L7.73655 9.5401L7.81301 9.77377L7.84298 9.76398L7.95492 9.46853L8.17697 9.39574L8.05341 9.69486L8.12742 9.67039C8.18553 9.65143 8.23998 9.66305 8.25038 9.69486M9.79309 9.57069C9.79982 9.60372 9.75883 9.63981 9.69889 9.65265L9.26764 9.74441C9.20769 9.75664 9.15386 9.74135 9.14652 9.70771L9.04498 9.22874C9.03764 9.19449 9.08045 9.1584 9.1404 9.14555L9.57104 9.0538C9.63099 9.04095 9.68359 9.05747 9.69093 9.09172L9.79309 9.5713V9.57069ZM9.56492 9.55845L9.48724 9.19388L9.27192 9.23975L9.3496 9.60494L9.56492 9.55906V9.55845ZM11.0465 9.19938L11.0611 9.32356L10.8422 9.34925L10.784 8.8605L10.5651 8.8868L10.6372 9.49483L11.2936 9.41654L11.263 9.15901L11.0459 9.19999L11.0465 9.19938ZM12.5213 8.73021L12.3317 8.98284L12.2998 8.98406L12.2913 8.73877L12.0711 8.74611L12.0925 9.35781L12.3127 9.35047L12.3041 9.10518L12.5243 9.09784L12.5329 9.34374L12.7531 9.3364L12.7427 9.03178C12.7415 8.99813 12.6926 8.97183 12.6314 8.97366L12.5537 8.97672L12.7556 8.72409L12.5219 8.73204L12.5213 8.73021ZM14.2873 8.82747L14.2591 9.37678L14.0389 9.36515L14.0518 9.11986L13.8315 9.10763L13.8187 9.35292L13.5985 9.3413L13.6272 8.79199C13.6291 8.75712 13.6798 8.73327 13.7416 8.73632L14.1814 8.75957C14.2426 8.76324 14.2897 8.79199 14.2879 8.82686M14.0652 8.87335L13.845 8.86172L13.8383 8.98773L14.0585 8.99936L14.0652 8.87335ZM15.1296 8.96632L15.3473 8.99813L15.2764 9.48566L15.4948 9.51747L15.5657 9.02994L15.7841 9.06175L15.8012 8.94308L15.1467 8.84765L15.1296 8.96632ZM17.2736 9.33579L17.136 9.8692L16.9225 9.81414L16.9843 9.57619L16.7708 9.52114L16.7096 9.75909L16.4961 9.70404L16.6337 9.17124C16.6423 9.1376 16.6974 9.12353 16.7567 9.13944L17.1831 9.25015C17.2424 9.26545 17.2822 9.30337 17.2736 9.33702M17.046 9.33763L16.8332 9.28257L16.8014 9.4043L17.0148 9.45936L17.046 9.33702V9.33763Z" fill="url(#paint4_linear_487_48767)"/>
<path d="M16.9877 10.361C15.7038 9.87351 14.1776 9.67103 12.5192 9.73526C11.5063 9.77441 10.5171 9.89431 9.63751 10.142L9.60938 10.3103C10.5055 10.0998 11.4738 9.9567 12.5082 9.9304C14.273 9.88513 15.683 10.1194 16.9559 10.487L16.9877 10.3604V10.361Z" fill="url(#paint5_linear_487_48767)"/>
<path d="M8.67978 20.1686C8.67978 20.1686 8.65899 19.3501 8.7122 19.2217C8.76542 19.0926 10.521 17.8919 13.0174 17.1444C15.5137 16.3962 17.2142 16.48 17.2142 16.48C17.2142 16.48 14.2487 16.6348 11.4453 18.2191C9.83712 19.1275 8.67978 20.1692 8.67978 20.1692" fill="url(#paint6_linear_487_48767)"/>
<path d="M12.8157 19.487C12.8127 19.9085 12.7753 20.8364 12.7753 20.8364C12.7753 20.8364 12.2377 20.4578 11.8896 20.0999C11.5911 19.7923 11.2883 19.3445 11.2883 19.3445C11.2883 19.3445 11.5458 19.068 11.9483 18.7811C12.3814 18.4728 12.8096 18.2697 12.8096 18.2697C12.8096 18.2697 12.82 18.9909 12.8157 19.4876M16.1048 16.9772C16.1048 16.9772 15.2154 16.9442 13.2402 17.7198C11.2651 18.4954 10.5273 19.2943 10.5273 19.2943C10.5273 19.2943 11.0363 19.8742 11.588 20.3153C12.1398 20.7563 12.7937 21.0438 12.7937 21.0438C12.7937 21.0438 13.0763 20.8487 13.5277 20.4443C13.4953 20.4254 13.4623 20.4064 13.4286 20.3874C13.1717 20.2443 12.9197 20.2009 12.9197 20.2009C12.9197 20.2009 13.5204 20.0504 13.9504 20.0486L13.9572 20.0424C13.9168 20.0235 13.8746 20.0045 13.8275 19.9856C13.2568 19.7562 12.9338 19.6803 12.9338 19.6803C12.9338 19.6803 14.0006 19.4173 14.5401 19.4173C14.2269 19.3408 14.1804 19.3365 13.9865 19.2992C13.48 19.202 13.1448 19.1322 13.1448 19.1322C13.1448 19.1322 14.0324 18.9732 15.098 18.8882C14.9487 18.8398 14.7389 18.8129 14.4759 18.7823C13.8734 18.712 13.3675 18.6257 13.3675 18.6257C13.3675 18.6257 13.8642 18.5211 14.5695 18.4251C15.0013 18.3664 15.3127 18.3297 15.5305 18.3101C15.3696 18.2746 15.1573 18.2349 14.923 18.2104C14.5858 18.1745 14.15 18.1541 13.6158 18.1492C13.6158 18.1492 14.6147 17.721 15.8638 17.718L15.8651 17.7149C15.7109 17.6703 15.3005 17.6005 14.8221 17.6073C14.493 17.6115 13.9553 17.636 13.9553 17.636C13.9553 17.636 15.1298 17.1479 16.1061 16.9766L16.1048 16.9772Z" fill="url(#paint7_linear_487_48767)"/>
<path d="M11.0287 11.875L10.9639 12.1405C11.055 12.0854 11.3425 11.9496 11.5958 11.8591C11.7469 11.8052 11.9322 11.8897 11.8845 12.0927L11.5958 13.4574C11.3915 13.5272 11.0477 13.6654 10.8819 13.7505L11.1976 12.3705C11.0667 12.4163 10.9541 12.4665 10.8795 12.502L10.6158 13.6202C10.5412 13.5333 10.206 13.0152 10.1289 12.8525C10.2372 12.2989 10.1479 12.3509 10.1479 12.3509L10.1748 12.2353C10.406 12.1778 10.8354 11.9949 11.0293 11.875M9.38142 12.2805C9.9503 12.1606 12.0845 11.5954 11.7487 10.213C11.3034 10.246 10.8703 10.3005 10.4513 10.3714C10.5889 10.4558 10.7106 10.6773 10.5375 11.0816C10.2115 11.8444 9.1086 11.9313 8.89083 11.9423L9.22727 10.235C8.82538 10.358 7.93474 10.6754 7.43804 10.9599C6.83429 11.3055 6.50458 11.7459 6.73703 12.105C6.92666 12.3974 7.28205 12.3668 7.3995 12.3435L7.52123 11.7514C7.4778 11.7416 7.38115 11.7049 7.41112 11.5783C7.46312 11.3618 7.88703 11.1281 8.31461 10.9434L7.73961 13.989C8.00631 13.8691 8.32623 13.7498 8.58498 13.6819L8.74219 12.7026C9.2291 12.8219 9.55636 15.0087 11.9402 14.6038C10.2127 14.4325 10.0702 12.7583 9.38203 12.2805H9.38142ZM12.9556 11.5312L13.0486 11.1342C13.1483 10.7568 12.5935 10.9507 12.3892 11.0993L12.254 11.6768C12.4093 11.5887 12.8363 11.4168 12.9556 11.5312ZM12.0448 12.1007C12.0448 12.1007 12.1059 12.2805 12.024 12.6286L11.775 13.8098C11.9634 13.6599 12.2931 13.5156 12.5146 13.4367L12.8436 11.9973C12.8914 11.7936 12.7103 11.719 12.5806 11.7526C12.4008 11.7985 12.1573 11.93 12.0711 11.9875L12.0448 12.1007ZM15.6416 11.741L15.8826 10.7305C15.9297 10.528 15.7248 10.4509 15.6324 10.4834C15.6208 10.4876 15.6098 10.4913 15.5975 10.4962C15.3792 10.5794 15.1926 10.6883 15.1094 10.7397L15.0813 10.8596C15.0813 10.8596 15.1418 11.0394 15.0605 11.3874L14.4353 14.0416L15.1602 13.7976L15.5461 12.1429C15.6312 12.105 15.7407 12.0609 15.8612 12.023L15.4715 13.6911L16.1536 13.4495L16.5432 11.7649C16.5903 11.5624 16.3934 11.489 16.2716 11.5184C16.1585 11.5459 15.956 11.6089 15.6391 11.7404L15.6416 11.741ZM15.6416 11.741L15.8826 10.7305C15.9297 10.528 15.7248 10.4509 15.6324 10.4834C15.6208 10.4876 15.6098 10.4913 15.5975 10.4962C15.3792 10.5794 15.1926 10.6883 15.1094 10.7397L15.0813 10.8596C15.0813 10.8596 15.1418 11.0394 15.0605 11.3874L14.4353 14.0416L15.1602 13.7976L15.5461 12.1429C15.6312 12.105 15.7407 12.0609 15.8612 12.023L15.4715 13.6911L16.1536 13.4495L16.5432 11.7649C16.5903 11.5624 16.3934 11.489 16.2716 11.5184C16.1585 11.5459 15.956 11.6089 15.6391 11.7404L15.6416 11.741ZM10.7186 14.816C10.5779 14.7959 10.4458 14.7708 10.3234 14.7408L10.1882 15.3201C10.6109 15.0827 10.8318 15.1311 10.8764 15.2357L10.926 15.021C10.948 14.9268 10.9033 14.8399 10.7186 14.8154V14.816ZM9.97171 15.8064C9.97171 15.8064 10.0537 15.8425 9.95091 16.3337L9.85548 16.749C9.94235 16.8102 10.3051 16.99 10.4617 17.0267L10.784 15.6241C10.8287 15.4339 10.6415 15.3354 10.4849 15.4014C10.2158 15.5146 10.1155 15.6076 10.0011 15.6804L9.97232 15.8045M16.4166 14.8423L16.4686 14.6197L16.4967 14.501L16.5499 14.2716C16.6374 13.8973 16.4111 13.7339 16.156 13.841C15.9621 13.9223 15.7437 14.1523 15.6379 14.2839L15.6997 14.0202C15.4146 14.1279 15.1351 14.2245 14.861 14.3108L14.8323 14.4343C14.8323 14.4343 14.9069 14.4986 14.8115 14.9622L14.5142 16.2352C14.7387 16.1838 15.0702 16.1116 15.2183 16.0859L15.548 14.668C15.6244 14.5989 15.7498 14.4931 15.8985 14.3958L15.756 15.0057C15.8869 14.9488 16.1884 14.8852 16.416 14.8423H16.4166ZM7.09487 17.2414C7.14463 17.3242 7.19132 17.395 7.23495 17.4537L7.67232 15.0944C7.61115 15.1378 7.52857 15.1867 7.46679 15.2363L7.09487 17.2414ZM10.417 17.8513C9.01439 17.9614 8.65288 16.9717 8.29136 16.9668L8.26261 17.1191C8.5911 17.1362 9.09881 18.1302 10.4176 17.8507L10.417 17.8513ZM16.4472 13.3382C16.5738 13.3009 16.6674 13.3792 16.6998 13.4244C17.136 13.192 17.7012 12.787 18.0462 12.5093C17.7446 12.6157 17.3843 12.6879 17.2687 12.7063L17.5415 11.5422C17.6492 11.5245 17.8217 11.519 18.0205 11.5098C18.3563 11.4859 18.3942 11.374 18.4878 10.8742C18.1966 10.9042 17.9183 10.9788 17.6553 11.0492L17.7073 10.8253C17.755 10.6222 17.5972 10.5256 17.4534 10.5696C17.2766 10.6234 16.9953 10.7727 16.9029 10.829L16.8754 10.9476C16.8754 10.9476 16.9518 10.9874 16.8992 11.2767C16.8582 11.2945 16.8295 11.3183 16.7469 11.3556L16.6558 11.7747C16.7371 11.7435 16.7897 11.7239 16.8368 11.708C16.7744 11.9759 16.5175 13.0342 16.4466 13.3382H16.4472ZM14.6414 14.7426L14.4457 15.5819C14.2451 15.533 13.7685 15.5703 13.5184 15.6577L13.4223 16.0761C13.867 15.9257 14.3356 15.8253 14.4261 15.8315L14.168 16.3159C13.9888 16.3581 13.0553 16.6432 12.8914 16.6934C12.854 16.6255 12.7959 16.5325 12.6559 16.5361L12.9164 15.473C12.9978 15.1249 12.9336 14.9598 12.9336 14.9598L12.9642 14.8295C13.2853 14.8081 13.7551 14.6258 14.2646 14.4845C14.6151 14.3866 14.6916 14.5206 14.642 14.7426H14.6414ZM14.012 14.8613C13.9135 14.8858 13.7306 14.9543 13.6792 14.9677L13.5918 15.3421C13.6749 15.3085 13.8059 15.2644 13.9251 15.2308L14.0114 14.8607L14.012 14.8613ZM18.2291 14.0214C18.0774 14.0257 17.7789 14.1762 17.6235 14.304C17.7605 14.4423 17.87 14.6209 17.9911 14.8809C17.8572 15.2497 17.517 15.8382 17.3874 16.026C16.7824 15.8565 15.8177 15.9881 15.5914 16.0229L15.7462 15.3617C15.8012 15.3445 16.0392 15.2669 16.2667 15.262C16.3218 15.1977 16.7567 14.7543 16.8362 14.6656L16.7065 14.5512L16.8069 14.0967C16.865 13.8257 16.742 13.7511 16.742 13.7511L16.7591 13.6281C17.1476 13.4305 17.9911 12.8855 18.3673 12.5087C18.53 12.9247 18.4487 13.526 18.2303 14.0214H18.2291ZM17.0381 14.8093C16.7952 15.0534 16.6998 15.1531 16.6026 15.2669C16.9408 15.2528 17.2191 15.462 17.2883 15.3445C17.3868 15.1763 17.1103 14.8925 17.0381 14.8093ZM17.8211 13.4746C17.6908 13.5828 17.648 13.6128 17.5635 13.6697L17.4638 14.112C17.6608 13.9823 17.8565 13.8691 17.9587 13.8379C17.9936 13.6758 17.8939 13.499 17.8211 13.4746ZM8.8841 16.3153C9.95336 16.0994 9.99128 15.1977 10.0818 14.7983C9.87445 14.7328 9.70378 14.6497 9.5741 14.5512C9.19485 14.2624 8.98993 14.0312 8.85352 13.8031C8.45958 13.9236 7.65336 14.2368 7.16644 14.5157C6.57493 14.8546 6.25195 15.2864 6.4795 15.6382C6.66546 15.9251 7.01352 15.8951 7.12852 15.8724L7.2478 15.2919C7.20559 15.2822 7.11017 15.2461 7.13953 15.1225C7.1903 14.9102 7.88519 14.471 8.46386 14.2912C8.58987 14.4894 8.81437 14.7659 9.03886 14.9555C9.10615 15.0124 9.18017 15.065 9.2603 15.1115C9.21626 15.3054 9.1661 15.4852 9.08168 15.6412C8.93793 15.9067 8.69814 16.1667 8.31705 16.2052L8.61618 14.6276C8.35009 14.7445 8.09745 14.8693 7.86072 15.0008L7.37809 17.587C7.58668 17.8452 7.75062 18.0048 7.96777 18.1174L8.21429 16.7239C8.77032 16.7649 9.18689 17.9987 10.9767 17.6678C11.4019 17.5889 11.7958 17.3173 12.1121 17.0469C11.9512 17.1283 11.712 17.2035 11.3376 17.2671C9.79248 17.5289 9.18322 16.3098 8.88471 16.3165L8.8841 16.3153ZM7.30224 14.1964C7.37626 14.1591 7.45088 14.1224 7.52735 14.0857L8.04668 11.322C7.96471 11.3764 7.88458 11.4321 7.81056 11.489L7.30224 14.1964ZM9.06639 11.7539C10.2005 11.6346 10.6568 10.895 10.3424 10.4999C10.5076 10.7103 10.2366 11.4346 9.09575 11.6046L9.06639 11.7539ZM10.4751 14.6154C9.43708 14.2814 9.13062 13.2476 8.80213 12.9344L8.76665 13.1369C8.9991 13.348 9.39304 14.405 10.4751 14.6154ZM8.68958 14.8166C8.73668 14.9898 8.91469 15.2057 8.95078 15.2479C8.89634 15.6547 8.68652 15.8724 8.45041 16.0052L8.429 16.1196C8.73362 16.0095 8.93793 15.7648 9.02602 15.4614C9.04743 15.3868 9.07312 15.3115 9.08841 15.232C8.96729 15.1188 8.77828 14.9298 8.68897 14.8166H8.68958ZM14.757 11.6578L14.2548 13.7609C14.023 13.8997 13.9569 14.1591 13.9441 14.2233C12.4099 14.698 11.4588 14.3407 10.9725 13.9438C11.1082 13.8618 11.3431 13.7627 11.545 13.6966L11.4887 13.9633C11.8062 14.1193 12.9642 14.2147 13.648 13.6948L13.7612 13.258C13.5722 13.3119 13.3459 13.3773 13.2773 13.4073C13.1948 13.2917 13.0412 13.269 12.7855 13.3571L12.9574 12.6109C13.0388 12.2628 12.9776 12.083 12.9776 12.083L13.0076 11.9563C13.7759 11.5214 14.2714 11.4052 14.4848 11.3789C14.6231 11.3618 14.809 11.4352 14.7564 11.6584L14.757 11.6578ZM14.0897 11.8487C13.9692 11.8866 13.8597 11.9306 13.7747 11.9686L13.5361 12.9913C13.6297 12.9607 13.7771 12.9192 13.8444 12.902L14.0903 11.8487H14.0897ZM13.051 13.852L12.4026 16.6285C12.317 16.6701 12.1989 16.8157 12.1402 16.9289C11.9438 16.9735 11.6227 17.0647 11.4747 17.1234C11.3633 17.001 10.9859 16.7307 10.7626 16.6891L10.9345 15.9507C11.0385 15.4834 10.9535 15.4186 10.9535 15.4186L10.9841 15.2877C11.2184 15.1733 11.627 15.0148 11.8031 14.9892C11.8692 15.0399 11.9438 15.1048 12.0203 15.1849L12.1738 14.5035C12.2797 14.0355 12.1946 13.9756 12.1946 13.9756L12.2271 13.8373C12.3977 13.7468 12.6026 13.6538 12.8014 13.6006C12.8975 13.5798 13.0981 13.6507 13.051 13.852ZM11.9555 15.5697C11.871 15.4803 11.7683 15.3904 11.6979 15.3372L11.4465 16.3899C11.4771 16.4071 11.66 16.4866 11.7316 16.5227L11.9555 15.5697Z" fill="url(#paint8_linear_487_48767)"/>
<path d="M8.95387 3.26806C9.21017 3.18487 9.47565 3.13165 9.7448 3.1133C10.0133 3.09372 10.2849 3.10779 10.5498 3.15918C10.8153 3.20933 11.1083 3.27846 11.3542 3.39346C11.1144 3.26684 10.8569 3.17141 10.5902 3.1133C10.3241 3.0558 10.0494 3.03439 9.7766 3.05029C9.50379 3.06742 9.23341 3.11941 8.97283 3.20199C8.71224 3.28457 8.46083 3.39529 8.229 3.54455L8.17578 3.5788L8.2394 3.5892C8.42658 3.6204 8.61254 3.65955 8.79544 3.7091C8.97833 3.75864 9.1594 3.81553 9.33557 3.8871C9.51174 3.95745 9.77293 4.09691 9.77293 4.09691C9.77293 4.09691 9.63286 3.98864 9.34903 3.85468C9.17591 3.77332 8.99179 3.71644 8.80767 3.66505C8.64373 3.61979 8.47796 3.58247 8.31097 3.55189C8.39844 3.49867 8.47552 3.46013 8.57767 3.41364C8.70062 3.35859 8.82602 3.30904 8.95448 3.26806H8.95387Z" fill="#F2C028"/>
<path d="M7.43359 1.73154C7.62628 1.76212 7.82141 1.84164 7.99269 1.93829C8.07894 1.98662 8.15907 2.04412 8.23492 2.10835C8.27285 2.14016 8.30772 2.17563 8.34258 2.20867C8.37745 2.24231 8.41293 2.27473 8.44963 2.30593C8.52181 2.36954 8.59766 2.42827 8.67963 2.47659C8.76099 2.52614 8.84968 2.56284 8.94083 2.59281C9.03197 2.62279 9.12678 2.64481 9.2216 2.66316C9.31641 2.68335 9.4045 2.68885 9.49992 2.70598C9.40266 2.70109 9.3054 2.6913 9.20875 2.67906C9.1121 2.66622 9.01545 2.64848 8.92064 2.62218C8.82522 2.59648 8.73285 2.55856 8.64599 2.51023C8.56708 2.46497 8.48756 2.40625 8.4062 2.3359C8.3695 2.30348 8.33341 2.26984 8.29793 2.23619C8.26245 2.20194 8.22881 2.16768 8.19333 2.13587C8.12237 2.07164 8.04468 2.01537 7.96333 1.96337C7.88197 1.91199 7.79633 1.86672 7.70764 1.8288C7.61955 1.78904 7.52841 1.75601 7.43421 1.73093" fill="#F2C028"/>
<path d="M11.1562 2.81433C11.2847 2.82351 11.4113 2.8547 11.5331 2.89813C11.6554 2.94157 11.7722 2.99845 11.8823 3.06696C11.9924 3.13547 12.0952 3.21561 12.1882 3.30553C12.2812 3.39545 12.3631 3.49638 12.4323 3.60465C12.3466 3.50861 12.2561 3.41869 12.1601 3.33611C12.0634 3.25353 11.9619 3.17829 11.8542 3.11162C11.7472 3.04433 11.634 2.98683 11.5178 2.93667C11.4009 2.88774 11.281 2.84369 11.1562 2.81433Z" fill="#F2C028"/>
<path d="M10.582 1.4791C10.8426 1.48399 11.102 1.53415 11.3503 1.61612C11.5987 1.6987 11.836 1.82165 12.0397 1.98925C12.1406 2.07367 12.2336 2.1691 12.3131 2.27431C12.3921 2.38013 12.4593 2.49452 12.5101 2.61564C12.5615 2.73737 12.5982 2.86338 12.6221 2.99245C12.6441 3.12151 12.6551 3.25242 12.6526 3.3821C12.6429 3.25242 12.6104 3.16372 12.5798 3.03832C12.5511 2.91231 12.5107 2.78936 12.4563 2.67314C12.3486 2.44008 12.1877 2.23332 11.9896 2.07122C11.7926 1.90729 11.562 1.78556 11.321 1.69564C11.1999 1.65037 11.0757 1.61367 10.9497 1.58492C10.8237 1.55495 10.7148 1.53415 10.5833 1.47971" fill="#F2C028"/>
<path d="M11.0519 2.07615C11.0574 2.16729 11.0072 2.27679 10.9381 2.34163C10.8677 2.40647 10.7735 2.43705 10.6806 2.44684C10.5876 2.45724 10.4928 2.445 10.4035 2.42237C10.3135 2.39852 10.2279 2.36304 10.1459 2.32022C9.98261 2.23336 9.83703 2.11836 9.70979 1.98684C9.58195 1.85594 9.48713 1.692 9.39844 1.53357C9.50426 1.68099 9.62232 1.81862 9.75261 1.94219C9.88291 2.06514 10.0267 2.17524 10.1845 2.25782C10.2634 2.29942 10.346 2.33429 10.431 2.35876C10.516 2.38322 10.6041 2.39546 10.6922 2.38995C10.779 2.38445 10.8677 2.3612 10.9356 2.30615C11.0048 2.25232 11.0458 2.16546 11.0525 2.07554" fill="#F2C028"/>
<path d="M7.74219 2.38953C8.01011 2.40115 8.16304 2.56814 8.26519 2.69966C8.43402 2.91743 8.70929 2.93639 8.81083 2.92354C8.57961 2.95229 8.35817 2.91743 8.24868 2.77612C8.11166 2.59934 7.98197 2.46844 7.74219 2.38953Z" fill="#F2C028"/>
<path d="M7.55469 3.18885C7.83179 3.22739 7.96759 3.04204 7.99205 3.00534C7.98594 3.04938 7.94679 3.12523 7.91437 3.16071C7.86237 3.21699 7.80487 3.24023 7.707 3.23656C7.64033 3.23351 7.59628 3.21332 7.55469 3.18885Z" fill="#F2C028"/>
<path d="M9.27734 4.20535C9.35381 4.23533 9.42721 4.27325 9.49817 4.31362C9.56974 4.354 9.63886 4.39926 9.70554 4.44698C9.7716 4.49591 9.83644 4.54791 9.89516 4.60541C9.9545 4.66291 10.0096 4.72591 10.0499 4.79809C9.99181 4.73998 9.93064 4.68737 9.86764 4.6366C9.80402 4.58644 9.73979 4.53751 9.67434 4.48979C9.54343 4.39376 9.40886 4.30323 9.27734 4.20535Z" fill="#F2C028"/>
<path d="M8.83594 4.87439C8.89527 4.93923 8.96623 4.99061 9.0433 5.02425C9.12038 5.05729 9.20479 5.06952 9.28737 5.05912C9.36873 5.05239 9.44275 5.0108 9.48556 4.93984C9.529 4.87011 9.54796 4.78263 9.55346 4.69577C9.56937 4.78202 9.56325 4.87683 9.52166 4.96064C9.50086 5.00284 9.46783 5.03955 9.42745 5.06646C9.38647 5.09276 9.33937 5.10683 9.29349 5.11234C9.20174 5.12213 9.10631 5.10561 9.02557 5.06218C8.94543 5.01875 8.87753 4.9533 8.83594 4.875" fill="#F2C028"/>
<path d="M10.8069 19.4041C12.1631 18.2156 13.8214 17.5776 13.8214 17.5776C11.6755 18.3 10.6797 19.2843 10.6797 19.2843L10.8063 19.4041H10.8069Z" fill="#3A225D"/>
<path d="M16.0816 13.3809L16.4578 11.7691C16.4682 11.7238 16.4627 11.6884 16.4407 11.6602C16.4107 11.6223 16.3551 11.6052 16.3165 11.6052C16.3563 11.6468 16.3789 11.7079 16.3593 11.7917L15.9844 13.4152L16.0822 13.3815L16.0816 13.3809Z" fill="#3A225D"/>
<path d="M10.834 14.9948C10.8481 14.938 10.8028 14.9196 10.7575 14.9135L10.7227 15.067C10.7716 15.0597 10.7985 15.0737 10.8114 15.0854L10.8334 14.9948H10.834Z" fill="#3A225D"/>
<path d="M17.3729 13.7088L17.2695 14.1615C17.305 14.1437 17.3374 14.1205 17.3741 14.1052L17.48 13.6501L17.3729 13.7082V13.7088Z" fill="#3A225D"/>
<path d="M7.14193 15.3576C7.03549 15.3098 7.02754 15.2034 7.0465 15.1257C7.08871 14.9483 7.3236 14.7593 7.76219 14.5501C7.36948 14.7269 7.01041 14.9165 6.94985 15.1459C6.91315 15.286 6.95475 15.4193 7.12174 15.4597L7.14193 15.3582V15.3576Z" fill="#3A225D"/>
<path d="M13.9805 16.2793C14.0184 16.2707 14.0814 16.2518 14.0955 16.2499C14.1487 16.1301 14.2184 16.0151 14.2637 15.9282C14.2337 15.9331 14.2141 15.9392 14.178 15.9447C14.1083 16.0432 14.0343 16.1668 13.9811 16.2793H13.9805Z" fill="#3A225D"/>
<path d="M13.4062 15.4034C13.435 15.3918 13.4668 15.3796 13.5005 15.3667L13.5867 14.9948C13.5561 15.0022 13.5261 15.0089 13.4949 15.0162L13.4062 15.4034Z" fill="#3A225D"/>
<path d="M14.4323 14.5349C14.4213 14.5349 14.4139 14.5361 14.4115 14.5373C14.4097 14.5373 14.4078 14.5385 14.4054 14.5391C14.4568 14.5771 14.491 14.6388 14.4702 14.7288L14.3008 15.4597C14.3314 15.4622 14.3595 15.4653 14.384 15.4683L14.5687 14.6786C14.5773 14.6407 14.573 14.6107 14.554 14.5875C14.5265 14.5526 14.4721 14.5349 14.4323 14.5349Z" fill="#3A225D"/>
<path d="M15.4653 12.1296C15.428 12.1443 15.3937 12.1596 15.3619 12.1736L14.9961 13.7536L15.094 13.72L15.4653 12.1302V12.1296Z" fill="#3A225D"/>
<path d="M12.7548 12.0015C12.7842 11.8608 12.6637 11.8155 12.6111 11.837C12.6569 11.8681 12.6765 11.9409 12.6563 12.026L12.3438 13.368C12.3762 13.357 12.4086 13.3454 12.4416 13.3356L12.7548 12.0009V12.0015Z" fill="#3A225D"/>
<path d="M13.2344 16.1421C13.2625 16.1317 13.2937 16.1201 13.3267 16.1091L13.4307 15.6674C13.3989 15.6754 13.3683 15.6834 13.3402 15.6919L13.235 16.1421H13.2344Z" fill="#3A225D"/>
<path d="M15.6617 10.571C15.6617 10.571 15.6605 10.571 15.6599 10.571C15.6941 10.6132 15.7119 10.6719 15.6941 10.749L15.4531 11.7669C15.4868 11.7516 15.5222 11.7357 15.5577 11.721L15.7926 10.7349C15.803 10.6897 15.7969 10.6523 15.7743 10.6242C15.7455 10.5875 15.6954 10.571 15.6611 10.571H15.6617Z" fill="#3A225D"/>
<path d="M12.9674 11.1128C12.9906 11.01 12.9319 10.9941 12.8983 11.0014L12.8047 11.4058C12.842 11.3984 12.8744 11.4058 12.8964 11.4155L12.9674 11.1134V11.1128Z" fill="#3A225D"/>
<path d="M16.2606 14.7764C16.2875 14.7703 16.3273 14.7636 16.3518 14.7587L16.4631 14.276C16.4912 14.1549 16.4937 13.8699 16.2539 13.9078C16.3946 13.9347 16.4136 14.098 16.3646 14.3219L16.3114 14.5538L16.2612 14.777L16.2606 14.7764Z" fill="#3A225D"/>
<path d="M15.0547 16.0264C15.0755 16.0203 15.1152 16.0093 15.1458 16.0025L15.445 14.7241C15.3954 14.7645 15.3526 14.8024 15.3196 14.8324L15.0547 16.027V16.0264Z" fill="#3A225D"/>
<path d="M15.4531 14.3342C15.4904 14.2877 15.5308 14.24 15.5742 14.1935L15.5822 14.1587C15.5498 14.1703 15.518 14.1819 15.4855 14.1935L15.4531 14.3336V14.3342Z" fill="#3A225D"/>
<path d="M10.7976 12.4876C10.7585 12.5047 10.7236 12.5212 10.6949 12.5353L10.5156 13.2369C10.537 13.2687 10.5597 13.2999 10.5835 13.3311L10.7982 12.4882L10.7976 12.4876Z" fill="#3A225D"/>
<path d="M9.11419 10.363C9.08177 10.3734 9.0469 10.385 9.01081 10.3966L8.70312 11.9693C8.73126 11.9681 8.76368 11.9656 8.79855 11.962L9.11358 10.363H9.11419Z" fill="#3A225D"/>
<path d="M9.49609 15.9327C9.80439 15.6966 9.88147 15.2457 9.97139 14.8567C9.94875 14.8487 9.90899 14.8322 9.88697 14.8243C9.80072 15.2048 9.70591 15.7229 9.49609 15.9333V15.9327Z" fill="#3A225D"/>
<path d="M10.9035 12.0417C10.8692 12.0564 10.8338 12.0741 10.7995 12.0876L10.7695 12.2172C10.7922 12.2056 10.8417 12.1867 10.8741 12.1714L10.9035 12.0411V12.0417Z" fill="#3A225D"/>
<path d="M9.70971 14.744C9.38979 14.5758 8.95854 14.1507 8.80378 13.9066C8.78053 13.9145 8.74199 13.9292 8.71875 13.9378C8.85455 14.1415 9.26561 14.5752 9.71032 14.7446L9.70971 14.744Z" fill="#3A225D"/>
<path d="M7.42315 11.8186C7.31488 11.7702 7.30692 11.6614 7.32589 11.5818C7.36932 11.4008 7.60849 11.2081 8.05626 10.9946C7.65498 11.1751 7.28919 11.3683 7.2274 11.602C7.19009 11.7445 7.2323 11.8816 7.40296 11.9225L7.42376 11.8186H7.42315Z" fill="#3A225D"/>
<path d="M10.5582 15.4753C10.5442 15.4753 10.5307 15.4777 10.5185 15.482C10.579 15.5236 10.6188 15.5958 10.5974 15.6875L10.3398 16.8076C10.3637 16.8198 10.4175 16.8339 10.4175 16.8339L10.6959 15.6288C10.705 15.5903 10.6983 15.5572 10.6769 15.5297C10.6506 15.4967 10.6041 15.4753 10.5582 15.4753Z" fill="#3A225D"/>
<path d="M7.84766 17.9039C7.87274 17.9247 7.89537 17.9425 7.9125 17.9517L8.13883 16.7221C8.11436 16.7221 8.08928 16.7234 8.06298 16.727L7.84766 17.9039Z" fill="#3A225D"/>
<path d="M8.56934 12.6469L8.40234 13.6459C8.43599 13.6355 8.45862 13.6299 8.49899 13.6189L8.65865 12.6622C8.63173 12.6549 8.60237 12.6494 8.56934 12.6469Z" fill="#3A225D"/>
<path d="M8.15296 16.2676C8.17926 16.2652 8.20495 16.2615 8.23125 16.2579L8.51447 14.761C8.48511 14.7745 8.45697 14.7879 8.42761 14.8014L8.15234 16.2676H8.15296Z" fill="#3A225D"/>
<path d="M11.7904 12.1314C11.8118 12.0005 11.7561 11.9173 11.6546 11.9344C11.6949 11.976 11.7182 12.0378 11.6986 12.1216L11.4258 13.4129C11.4588 13.3995 11.4918 13.386 11.5255 13.3732L11.7904 12.1308V12.1314Z" fill="#3A225D"/>
<path d="M17.0826 12.7401C17.1114 12.7352 17.1438 12.7297 17.1787 12.7218L17.4515 11.5571C17.4203 11.5608 17.3885 11.5657 17.3548 11.5706L17.082 12.7395L17.0826 12.7401Z" fill="#3A225D"/>
<path d="M17.6031 10.8305C17.6423 10.6635 17.5028 10.6409 17.4624 10.6586C17.5077 10.6758 17.523 10.7651 17.504 10.847L17.4453 11.1027C17.4796 11.0942 17.5126 11.0874 17.5444 11.0807L17.6025 10.8305H17.6031Z" fill="#3A225D"/>
<path d="M10.8906 11.5442C11.3506 11.261 11.6779 10.8744 11.5996 10.3055L11.495 10.3135C11.5213 10.5062 11.5403 11.0708 10.8906 11.5442Z" fill="#3A225D"/>
<path d="M8.66858 16.4196C8.99156 16.4912 9.61182 17.5592 10.6707 17.3879C9.59103 17.4307 9.02214 16.3768 8.76095 16.3829L8.66797 16.4202L8.66858 16.4196Z" fill="#3A225D"/>
<path d="M9.25105 12.3113L9.10547 12.329C9.56057 12.5187 10.1246 14.2957 11.2244 14.5275C10.1197 14.1256 9.73185 12.6447 9.25105 12.3113Z" fill="#3A225D"/>
<path d="M17.1347 15.472C16.52 15.2726 15.9988 15.3857 15.8544 15.4261L15.8281 15.5191C16.0367 15.4549 16.4802 15.3588 17.1347 15.472Z" fill="#3A225D"/>
<path d="M11.3459 16.4654C11.3802 16.4819 11.4756 16.5192 11.5471 16.5553L11.5367 16.6165C11.4652 16.5804 11.2921 16.5052 11.2578 16.4893L11.5508 15.2432C11.5741 15.261 11.5979 15.2805 11.6236 15.3013L11.3471 16.4648" fill="#3A225D"/>
<path d="M12.8212 13.6923C12.8127 13.6923 12.8066 13.6929 12.8029 13.6941C12.8029 13.6941 12.8029 13.6941 12.8023 13.6941C12.8537 13.7357 12.8873 13.8018 12.8647 13.8984L12.2383 16.5985C12.2689 16.5697 12.305 16.5465 12.3374 16.5312L12.9638 13.8562C12.9742 13.811 12.968 13.7755 12.9466 13.7473C12.916 13.7094 12.8604 13.6917 12.8218 13.6917L12.8212 13.6923Z" fill="#3A225D"/>
<path d="M13.4441 13.0179L13.6832 12.0013C13.6576 12.0086 13.6166 12.0288 13.5805 12.0435L13.3438 13.0589C13.3756 13.0448 13.4104 13.0307 13.4441 13.0179Z" fill="#3A225D"/>
<path d="M11.6992 15.1135C11.7426 15.1514 11.7879 15.1936 11.8344 15.2432L11.8528 15.1624C11.8258 15.1386 11.7989 15.1147 11.7708 15.0921C11.7518 15.0976 11.728 15.1043 11.6992 15.1141V15.1135Z" fill="#3A225D"/>
<path d="M14.6692 11.6637C14.6821 11.6086 14.6753 11.564 14.6496 11.5309C14.6178 11.4906 14.564 11.474 14.523 11.471C14.5683 11.5175 14.5934 11.5872 14.5707 11.6838L14.0752 13.7777C13.8972 13.8688 13.811 14.0915 13.7773 14.1986C13.8073 14.1931 13.8373 14.1875 13.8673 14.1814C13.8972 14.0738 13.9768 13.8676 14.1737 13.7361L14.6692 11.6631V11.6637Z" fill="#3A225D"/>
<path d="M17.375 15.8906C17.5273 15.6515 17.7793 15.2068 17.898 14.8783C17.813 14.7058 17.6613 14.447 17.5487 14.3198L17.471 14.3797C17.5628 14.4831 17.7304 14.7517 17.8069 14.8991C17.6937 15.211 17.4668 15.7255 17.375 15.8913V15.8906Z" fill="#3A225D"/>
<path d="M18.2305 13.872C18.3082 13.6677 18.4592 13.0315 18.3491 12.7214L18.2531 12.8064C18.3186 12.8914 18.3369 13.4725 18.2305 13.8714V13.872Z" fill="#3A225D"/>
<path d="M18.2825 11.0128L18.1914 11.3633C18.2232 11.3621 18.3003 11.3272 18.3358 11.1859L18.381 10.9975C18.3529 11 18.2978 11.011 18.2832 11.0134L18.2825 11.0128Z" fill="#3A225D"/>
<path d="M9.99498 20.4607C10.2042 20.4607 10.3712 20.6307 10.3712 20.8436C10.3712 21.0565 10.2042 21.2284 9.99315 21.2284C9.78211 21.2284 9.61328 21.0602 9.61328 20.8436C9.61328 20.6271 9.78333 20.4607 9.99315 20.4607H9.99498ZM9.99315 20.52C9.82493 20.52 9.68669 20.665 9.68669 20.8436C9.68669 21.0222 9.82432 21.1684 9.99498 21.1684C10.165 21.1703 10.3014 21.0253 10.3014 20.8448C10.3014 20.6644 10.165 20.5194 9.99498 20.5194H9.99315V20.52ZM9.92158 21.0663H9.85368V20.6393C9.88916 20.6344 9.92341 20.6289 9.9748 20.6289C10.0396 20.6289 10.0818 20.6424 10.1075 20.6613C10.1332 20.6803 10.1467 20.709 10.1467 20.75C10.1467 20.8063 10.1094 20.8399 10.0635 20.854V20.8577C10.1008 20.8644 10.1265 20.8987 10.1351 20.9617C10.1455 21.0284 10.1552 21.0534 10.1626 21.0675H10.091C10.0806 21.054 10.0708 21.0149 10.0623 20.9586C10.0519 20.9042 10.025 20.884 9.97052 20.884H9.9228V21.0681L9.92158 21.0663ZM9.92158 20.8295H9.97113C10.0274 20.8295 10.0751 20.8094 10.0751 20.7561C10.0751 20.7188 10.0482 20.6815 9.97113 20.6815C9.94911 20.6815 9.93381 20.6834 9.92158 20.6852V20.8295Z" fill="#F2C028"/>
</g>
<defs>
<linearGradient id="paint0_linear_487_48767" x1="4.60141" y1="13.9132" x2="18.3647" y2="8.07081" gradientUnits="userSpaceOnUse">
<stop offset="0.07" stop-color="#F2C028"/>
<stop offset="0.11" stop-color="#F2C12B"/>
<stop offset="0.15" stop-color="#F3C636"/>
<stop offset="0.18" stop-color="#F5CD48"/>
<stop offset="0.21" stop-color="#F7D861"/>
<stop offset="0.25" stop-color="#FAE681"/>
<stop offset="0.28" stop-color="#FFF9AE"/>
<stop offset="0.4" stop-color="#FAE37A"/>
<stop offset="0.53" stop-color="#F5D04E"/>
<stop offset="0.62" stop-color="#F3C432"/>
<stop offset="0.67" stop-color="#F2C028"/>
<stop offset="0.7" stop-color="#F3C739"/>
<stop offset="0.76" stop-color="#F8DA67"/>
<stop offset="0.84" stop-color="#FFF9AE"/>
<stop offset="0.86" stop-color="#FCED93"/>
<stop offset="0.89" stop-color="#F8DD6C"/>
<stop offset="0.92" stop-color="#F5D04E"/>
<stop offset="0.95" stop-color="#F3C739"/>
<stop offset="0.97" stop-color="#F2C12C"/>
<stop offset="1" stop-color="#F2C028"/>
</linearGradient>
<linearGradient id="paint1_linear_487_48767" x1="10.8179" y1="5.22934" x2="12.7436" y2="4.51304" gradientUnits="userSpaceOnUse">
<stop offset="0.15" stop-color="#3A225D"/>
<stop offset="0.24" stop-color="#75658E"/>
<stop offset="0.33" stop-color="#B0A6BE"/>
<stop offset="0.41" stop-color="#DAD6E1"/>
<stop offset="0.47" stop-color="#F5F3F6"/>
<stop offset="0.5" stop-color="white"/>
<stop offset="0.54" stop-color="#FAFAFB"/>
<stop offset="0.59" stop-color="#EEECF1"/>
<stop offset="0.64" stop-color="#DAD6E1"/>
<stop offset="0.69" stop-color="#BEB6CA"/>
<stop offset="0.74" stop-color="#9A8EAC"/>
<stop offset="0.8" stop-color="#6E5C88"/>
<stop offset="0.85" stop-color="#3A225D"/>
</linearGradient>
<linearGradient id="paint2_linear_487_48767" x1="11.4244" y1="6.85926" x2="13.35" y2="6.14295" gradientUnits="userSpaceOnUse">
<stop offset="0.15" stop-color="#3A225D"/>
<stop offset="0.24" stop-color="#75658E"/>
<stop offset="0.33" stop-color="#B0A6BE"/>
<stop offset="0.41" stop-color="#DAD6E1"/>
<stop offset="0.47" stop-color="#F5F3F6"/>
<stop offset="0.5" stop-color="white"/>
<stop offset="0.54" stop-color="#FAFAFB"/>
<stop offset="0.59" stop-color="#EEECF1"/>
<stop offset="0.64" stop-color="#DAD6E1"/>
<stop offset="0.69" stop-color="#BEB6CA"/>
<stop offset="0.74" stop-color="#9A8EAC"/>
<stop offset="0.8" stop-color="#6E5C88"/>
<stop offset="0.85" stop-color="#3A225D"/>
</linearGradient>
<linearGradient id="paint3_linear_487_48767" x1="11.8279" y1="7.94232" x2="13.7535" y2="7.22602" gradientUnits="userSpaceOnUse">
<stop offset="0.15" stop-color="#3A225D"/>
<stop offset="0.24" stop-color="#75658E"/>
<stop offset="0.33" stop-color="#B0A6BE"/>
<stop offset="0.41" stop-color="#DAD6E1"/>
<stop offset="0.47" stop-color="#F5F3F6"/>
<stop offset="0.5" stop-color="white"/>
<stop offset="0.54" stop-color="#FAFAFB"/>
<stop offset="0.59" stop-color="#EEECF1"/>
<stop offset="0.64" stop-color="#DAD6E1"/>
<stop offset="0.69" stop-color="#BEB6CA"/>
<stop offset="0.74" stop-color="#9A8EAC"/>
<stop offset="0.8" stop-color="#6E5C88"/>
<stop offset="0.85" stop-color="#3A225D"/>
</linearGradient>
<linearGradient id="paint4_linear_487_48767" x1="8.26016" y1="11.4688" x2="16.6717" y2="7.89829" gradientUnits="userSpaceOnUse">
<stop offset="0.07" stop-color="#F2C028"/>
<stop offset="0.11" stop-color="#F2C12B"/>
<stop offset="0.15" stop-color="#F3C636"/>
<stop offset="0.18" stop-color="#F5CD48"/>
<stop offset="0.21" stop-color="#F7D861"/>
<stop offset="0.25" stop-color="#FAE681"/>
<stop offset="0.28" stop-color="#FFF9AE"/>
<stop offset="0.36" stop-color="#FAE37A"/>
<stop offset="0.44" stop-color="#F5D04E"/>
<stop offset="0.5" stop-color="#F3C432"/>
<stop offset="0.53" stop-color="#F2C028"/>
<stop offset="0.77" stop-color="#FFF9AE"/>
<stop offset="1" stop-color="#F2C028"/>
</linearGradient>
<linearGradient id="paint5_linear_487_48767" x1="10.174" y1="11.6401" x2="16.4072" y2="8.99388" gradientUnits="userSpaceOnUse">
<stop offset="0.07" stop-color="#F2C028"/>
<stop offset="0.1" stop-color="#F2C12B"/>
<stop offset="0.12" stop-color="#F3C636"/>
<stop offset="0.15" stop-color="#F5CD48"/>
<stop offset="0.17" stop-color="#F7D861"/>
<stop offset="0.19" stop-color="#FAE681"/>
<stop offset="0.21" stop-color="#FFF9AE"/>
<stop offset="0.28" stop-color="#FAE37A"/>
<stop offset="0.34" stop-color="#F5D04E"/>
<stop offset="0.39" stop-color="#F3C432"/>
<stop offset="0.42" stop-color="#F2C028"/>
<stop offset="0.58" stop-color="#FFF9AE"/>
<stop offset="0.92" stop-color="#F2C028"/>
</linearGradient>
<linearGradient id="paint6_linear_487_48767" x1="5.46957" y1="20.8855" x2="15.9077" y2="16.455" gradientUnits="userSpaceOnUse">
<stop offset="0.07" stop-color="#F2C028"/>
<stop offset="0.11" stop-color="#F2C12B"/>
<stop offset="0.15" stop-color="#F3C636"/>
<stop offset="0.18" stop-color="#F5CD48"/>
<stop offset="0.21" stop-color="#F7D861"/>
<stop offset="0.25" stop-color="#FAE681"/>
<stop offset="0.28" stop-color="#FFF9AE"/>
<stop offset="0.43" stop-color="#FAE37A"/>
<stop offset="0.59" stop-color="#F5D04E"/>
<stop offset="0.7" stop-color="#F3C432"/>
<stop offset="0.77" stop-color="#F2C028"/>
<stop offset="1" stop-color="#FFF9AE"/>
</linearGradient>
<linearGradient id="paint7_linear_487_48767" x1="9.93827" y1="20.6847" x2="18.0458" y2="17.2439" gradientUnits="userSpaceOnUse">
<stop offset="0.07" stop-color="#F2C028"/>
<stop offset="0.11" stop-color="#F2C12B"/>
<stop offset="0.15" stop-color="#F3C636"/>
<stop offset="0.18" stop-color="#F5CD48"/>
<stop offset="0.21" stop-color="#F7D861"/>
<stop offset="0.25" stop-color="#FAE681"/>
<stop offset="0.28" stop-color="#FFF9AE"/>
<stop offset="0.36" stop-color="#FAE37A"/>
<stop offset="0.44" stop-color="#F5D04E"/>
<stop offset="0.5" stop-color="#F3C432"/>
<stop offset="0.53" stop-color="#F2C028"/>
<stop offset="0.77" stop-color="#FFF9AE"/>
<stop offset="1" stop-color="#F2C028"/>
</linearGradient>
<linearGradient id="paint8_linear_487_48767" x1="6.55168" y1="15.9636" x2="18.4958" y2="10.8938" gradientUnits="userSpaceOnUse">
<stop offset="0.07" stop-color="#F2C028"/>
<stop offset="0.11" stop-color="#F2C12B"/>
<stop offset="0.15" stop-color="#F3C636"/>
<stop offset="0.18" stop-color="#F5CD48"/>
<stop offset="0.21" stop-color="#F7D861"/>
<stop offset="0.25" stop-color="#FAE681"/>
<stop offset="0.28" stop-color="#FFF9AE"/>
<stop offset="0.37" stop-color="#FAE37A"/>
<stop offset="0.46" stop-color="#F5D04E"/>
<stop offset="0.52" stop-color="#F3C432"/>
<stop offset="0.56" stop-color="#F2C028"/>
<stop offset="0.7" stop-color="#FFF9AE"/>
<stop offset="0.9" stop-color="#F2C028"/>
</linearGradient>
<clipPath id="clip0_487_48767">
<rect width="13.6299" height="21.264" fill="white" transform="translate(5.61328 0.600006)"/>
</clipPath>
</defs>
</svg>
