<svg width="24" height="24" viewBox="0 0 24 24" fill="none" xmlns="http://www.w3.org/2000/svg">
<mask id="mask0_487_48984" style="mask-type:luminance" maskUnits="userSpaceOnUse" x="0" y="5" width="24" height="14">
<path d="M23.3346 5.61188H0.667969V18.3881H23.3346V5.61188Z" fill="white"/>
</mask>
<g mask="url(#mask0_487_48984)">
<path d="M22.9447 5.99071C20.2631 6.63695 14.4024 8.06684 14.4024 8.06684L14.187 8.11884V8.6648C14.187 8.6648 14.187 8.88764 14.0347 9.04363C13.927 9.15134 13.7599 9.20705 13.5408 9.21076H12.9354L12.7534 9.18848C12.538 9.16248 12.5343 9.1142 12.5268 9.0362V9.03249V8.98792L12.5231 8.61281L12.512 7.97028V7.87L12.5083 7.4726L12.512 7.47632L12.5083 6.81893L12.5046 6.54038L12.5008 6.53667C12.5714 6.43639 12.6123 6.31754 12.6123 6.19869C12.6123 5.87557 12.3411 5.61188 12.0106 5.61188C11.68 5.61188 11.4089 5.87557 11.4089 6.19869C11.4089 6.32126 11.4461 6.4401 11.5203 6.53667L11.5166 6.54038L11.5018 7.47632L11.5055 7.4726L11.5018 7.87L11.4981 8.24512L11.4943 8.62023L11.4906 8.99535V9.06963C11.4906 9.07334 11.4869 9.09191 11.4869 9.09191C11.4758 9.13277 11.4535 9.17734 11.2641 9.19962L11.0821 9.22191H10.4581C9.85274 9.21448 9.80446 8.79851 9.80446 8.67594V8.12998L9.58905 8.07799C9.58905 8.07799 3.72832 6.65552 1.05051 6.00185L0.667969 5.89786L0.716251 6.29154C0.731107 6.42896 0.794246 6.58495 1.04309 6.77437L1.06166 7.06035C1.07651 7.29433 1.21022 8.41225 2.31328 8.8765L1.95302 8.79108L2.04587 9.21819C2.05701 9.25533 2.23157 10.0204 3.07465 10.455L2.88524 10.4327L3.10808 10.8858C3.13036 10.9304 3.66518 11.9851 4.76453 12.0594L4.77196 12.1151C4.7831 12.1783 4.90195 12.7317 5.90845 12.8728C6.10901 12.8988 6.55098 12.9099 6.60297 12.9099H7.39035C7.37549 12.9545 7.36063 13.0028 7.33464 13.0845L7.26778 13.2813C7.24921 13.337 7.05237 13.909 7.04123 13.9573C6.97438 14.1541 6.94838 14.2321 6.87781 14.4215L6.84067 14.5218C6.81096 14.5181 6.78125 14.5181 6.74782 14.5181C6.53241 14.5181 6.34299 14.5775 6.17958 14.7001C6.07187 14.7781 5.92331 14.9192 5.81931 15.1532C5.71161 15.3946 5.73389 15.5692 5.78589 15.6917L5.56676 15.7734L5.51848 15.87C5.50362 15.896 5.4962 15.922 5.48134 15.948C5.4702 15.9703 5.45905 15.9926 5.44791 16.0148C5.42563 16.0594 5.39963 16.1114 5.37363 16.156L5.32164 16.2488L5.34021 16.3454L5.34392 16.364L5.3662 16.4828L5.4702 16.546C5.61876 16.6388 5.80075 16.6537 5.92702 16.6537C6.19815 16.6537 6.42099 16.5794 6.61783 16.4308C6.62154 16.4271 6.62897 16.4234 6.63269 16.416C6.64383 16.4308 6.65497 16.442 6.66611 16.4531C6.85181 16.6462 7.13779 16.6462 7.23436 16.6462C7.32721 16.6462 7.57605 16.6462 7.81003 16.494L7.88802 16.6277L8.07744 16.6202C8.20372 16.6165 8.25943 16.6165 8.35228 16.6165H8.47484H8.58997L8.6754 16.5385L8.75339 16.4642L8.77196 16.3788C8.79053 16.2785 8.80539 16.2191 8.83139 16.1151C8.8871 16.1077 8.94652 16.0966 9.01337 16.0743C8.99852 16.1486 8.98366 16.2117 8.97252 16.2785L8.95024 16.3863L9.00966 16.4828L9.10251 16.6277L9.26593 16.6202C9.39963 16.6165 9.42934 16.6165 9.65218 16.6165H10.1424L10.2204 16.6128L10.2353 16.6277L10.3653 16.6239C10.5658 16.6202 10.5881 16.6202 10.785 16.6202C10.7738 17.1031 10.7664 17.4782 10.7552 17.8236V17.857L10.759 17.883L10.7701 17.9201L10.7812 17.9424C10.8964 18.247 11.576 18.3807 12.0254 18.3807H12.0292H12.0329C12.3263 18.3733 12.8982 18.2953 13.1916 18.0538L13.2882 17.9721V17.8459C13.2882 17.8384 13.2771 17.5525 13.2771 17.5525C13.2659 17.2739 13.2585 16.9953 13.2474 16.6314L13.3216 16.6277C13.4479 16.6239 13.5036 16.6239 13.6039 16.6239H13.6893L13.7005 16.6314L13.8082 16.6277C13.9679 16.6239 14.0236 16.6239 14.1907 16.6239H14.3207L14.4136 16.52L14.4618 16.468L14.4804 16.5125L14.6401 16.6277L14.9038 16.6239C14.9744 16.6239 15.0301 16.6202 15.1192 16.6202L15.1378 16.6351L15.2455 16.6314C15.4052 16.6277 15.4163 16.6277 15.5798 16.6277L15.706 16.6239L15.7915 16.5311L15.8286 16.4902C15.8397 16.4977 15.8806 16.5497 15.8806 16.5497L15.9215 16.5757L15.9994 16.6351L16.096 16.6314C16.2557 16.6277 16.2817 16.6277 16.4451 16.6277L16.5937 16.6239L16.6457 16.546L16.6865 16.5794L16.7645 16.6388L16.8611 16.6351C17.0505 16.6314 17.0839 16.6314 17.2845 16.6314H17.4108L17.4851 16.5497L17.4962 16.5534L17.5445 16.572C17.6856 16.6277 17.8527 16.6574 18.0162 16.6574C18.3356 16.6574 18.551 16.5497 18.6475 16.3343C18.6995 16.2191 18.7367 16.0334 18.6141 15.7697C18.525 15.5729 18.4098 15.4503 18.2687 15.3538L18.3356 15.3203L18.2427 15.0863L18.1833 14.9341C18.1647 14.8932 18.1499 14.8486 18.1313 14.8078L18.0979 14.7261L18.057 14.6852L18.0013 14.6295L17.9456 14.6072C17.8862 14.5812 17.7265 14.5144 17.4999 14.5144C17.3588 14.5144 17.2548 14.5404 17.1694 14.5812L17.1731 14.5738L17.1619 14.4772C17.1582 14.3844 17.1434 14.2581 17.1322 14.1504L17.1211 14.0501C17.1062 13.9239 17.0914 13.7939 17.0802 13.6676C17.0617 13.4707 17.0245 13.1811 17.0022 12.9953C16.9985 12.9619 16.9985 12.9359 16.9911 12.9025H17.3365C17.3885 12.9025 17.8267 12.8951 18.0273 12.8654C19.0338 12.7242 19.1526 12.1708 19.1638 12.1077L19.1712 12.0557H19.1898C20.3151 12.0148 20.876 10.9304 20.8982 10.8784L21.1211 10.4252L20.9317 10.4475C21.7747 10.013 21.953 9.2479 21.9604 9.21076L22.0533 8.78365L21.6893 8.86907C22.7924 8.40482 22.9261 7.2869 22.941 7.05292L22.9595 6.75951C23.2046 6.56638 23.2715 6.41411 23.2864 6.27669L23.3346 5.883L22.9447 5.99071Z" fill="white"/>
<path d="M11.0571 16.6129C11.0459 17.1663 11.0385 17.534 11.0273 17.8385C11.0273 17.8422 11.0273 17.8459 11.0311 17.8534C11.0682 17.9499 11.4916 18.1171 12.0078 18.1171C12.3235 18.1096 12.7841 18.0242 12.9883 17.8534C12.9883 17.8496 12.9883 17.8459 12.9883 17.8385C12.9735 17.4522 12.9661 17.1143 12.9512 16.6129C12.6392 16.6055 12.3273 16.598 12.0078 16.598C11.6884 16.598 11.369 16.6055 11.0571 16.6129Z" fill="#0156E1"/>
<path d="M11.9899 17.6045C11.7447 17.6045 11.4996 17.5785 11.2693 17.5265C11.2693 17.5897 11.2656 17.6491 11.2656 17.7085C11.3808 17.7642 11.663 17.8497 12.0121 17.8497C12.2907 17.8422 12.5952 17.7754 12.7624 17.6937C12.7624 17.638 12.7587 17.5785 12.7587 17.5191C12.5061 17.5711 12.2573 17.6045 11.9899 17.6045Z" fill="#4089F2"/>
<path d="M13.7364 11.0678L21.6806 9.1662C21.6806 9.1662 21.4838 10.0501 20.4179 10.3658C17.1458 10.9229 14.208 11.3463 13.6992 11.4132L13.7364 11.0678Z" fill="url(#paint0_linear_487_48984)"/>
<path d="M13.7912 10.5664C14.2815 10.4996 15.21 10.2545 15.6817 9.3668C19.4811 8.21546 20.1682 8.00004 20.2388 7.97405C20.3168 7.95176 20.9853 7.75863 21.6724 7.49494C22.0995 7.33152 22.4226 7.17925 22.6603 7.04926C22.6455 7.24238 22.5192 8.39002 21.3233 8.72056C20.0716 9.06597 14.2184 10.7373 13.7578 10.8673L13.7912 10.5664Z" fill="url(#paint1_linear_487_48984)"/>
<path d="M14.4686 8.33052V8.65364C14.4686 8.65364 14.4909 9.47444 13.5438 9.48558C13.243 9.48558 13.0647 9.48558 12.957 9.48558L13.0053 11.8626H13.3061L13.4733 10.247C13.4733 10.247 14.918 10.2544 15.4269 9.08075C19.5828 7.82542 20.1325 7.64343 20.1325 7.64343C20.1325 7.64343 22.9403 6.84491 23.0035 6.25067C20.3294 6.90805 14.4686 8.33052 14.4686 8.33052Z" fill="url(#paint2_linear_487_48984)"/>
<path d="M13.6899 11.5506L20.6425 10.7669C20.6425 10.7669 20.1486 11.7511 19.1755 11.7883C18.0241 11.8068 14.5478 11.8514 13.6602 11.8663L13.6899 11.5506Z" fill="url(#paint3_linear_487_48984)"/>
<path d="M17.3265 12.0446C16.3719 12.026 14.4778 12.052 12.9922 12.0483L13.007 12.6314H17.3339C17.3339 12.6314 17.7981 12.624 17.9913 12.5943C18.8195 12.4791 18.8901 12.0669 18.8901 12.0669L17.3265 12.0446Z" fill="url(#paint4_linear_487_48984)"/>
<path d="M10.2607 11.0678L2.31641 9.16254C2.31641 9.16254 2.51325 10.0465 3.57174 10.3622C6.84751 10.923 9.7853 11.3427 10.2904 11.4169L10.2607 11.0678Z" fill="url(#paint5_linear_487_48984)"/>
<path d="M10.2384 10.8561C9.77791 10.7224 3.92461 9.0548 2.67298 8.7094C1.47707 8.38256 1.35079 7.23121 1.33594 7.03809C1.57363 7.1755 1.89304 7.32035 2.32387 7.48377C3.01468 7.75118 3.6832 7.94802 3.76119 7.96659C3.83547 7.98888 4.52628 8.208 8.32201 9.35935C8.79369 10.247 9.7222 10.4921 10.2124 10.559L10.2384 10.8561Z" fill="url(#paint6_linear_487_48984)"/>
<path d="M0.992188 6.25446C1.06275 6.8487 3.86312 7.64721 3.86312 7.64721C3.86312 7.64721 4.4128 7.82549 8.56879 9.08454C9.08504 10.2619 10.5224 10.2507 10.5224 10.2507L10.6895 11.8663H10.9903L11.0386 9.48937C10.9346 9.48937 10.7601 9.48937 10.4518 9.48937C9.50101 9.48194 9.52701 8.65743 9.52701 8.65743V8.33431C9.53072 8.33059 3.67 6.90812 0.992188 6.25446Z" fill="url(#paint7_linear_487_48984)"/>
<path d="M10.338 11.8589C9.45037 11.844 5.97033 11.8032 4.8227 11.7809C3.84963 11.7475 3.35938 10.7632 3.35938 10.7632L10.312 11.5469L10.338 11.8589Z" fill="url(#paint8_linear_487_48984)"/>
<path d="M10.9817 12.6314H6.59914C6.59914 12.6314 6.13489 12.624 5.94176 12.5943C5.11354 12.4791 5.04297 12.0669 5.04297 12.0669L6.59914 12.0446C7.5685 12.026 9.49608 12.052 10.9891 12.0483L10.9817 12.6314Z" fill="url(#paint9_linear_487_48984)"/>
<path d="M11.794 6.43267C11.7272 6.37325 11.6863 6.29154 11.6863 6.19869C11.6863 6.02413 11.8312 5.883 12.0057 5.883C12.184 5.883 12.3251 6.02413 12.3251 6.19869C12.3251 6.29154 12.2843 6.37325 12.2174 6.43267C12.1432 6.36582 12.0726 6.29154 12.002 6.22469C11.9352 6.29525 11.8683 6.3621 11.794 6.43267ZM12.0095 7.00834C12.08 7.0752 12.1543 7.14948 12.2286 7.21633C12.2286 7.16062 12.2286 7.10862 12.2286 7.05291C12.1543 6.98606 12.0837 6.91549 12.0132 6.84493C11.9426 6.91178 11.8683 6.98606 11.794 7.05291V7.21633C11.8683 7.14948 11.9352 7.0752 12.0095 7.00834ZM11.7866 7.59516C11.8609 7.52831 11.9352 7.45403 12.0095 7.38717C12.0837 7.45403 12.158 7.52831 12.2323 7.59516C12.2323 7.54316 12.2323 7.49488 12.2323 7.44288C12.158 7.37603 12.0837 7.30547 12.0132 7.2349C11.9389 7.30175 11.8683 7.37603 11.794 7.44288C11.7866 7.49488 11.7866 7.54688 11.7866 7.59516ZM12.0095 6.61466C12.08 6.68151 12.1543 6.75579 12.2286 6.82264C12.2286 6.76693 12.2286 6.71494 12.2286 6.65923C12.1543 6.59237 12.0837 6.51809 12.0132 6.45124C11.9426 6.51809 11.8683 6.59237 11.794 6.65923V6.82264C11.8683 6.75579 11.9352 6.68151 12.0095 6.61466ZM12.7968 12.6314C12.7745 11.8329 12.7448 10.2655 12.7225 9.46703C12.3511 9.42246 12.2694 9.25904 12.2471 9.07334C12.2471 9.07334 12.2471 9.07334 12.2434 9.07334C12.2434 9.0362 12.2434 8.99906 12.2434 8.96563C12.1654 8.89878 12.0837 8.82821 12.0095 8.75765C11.9315 8.8245 11.8497 8.89878 11.7718 8.96563V9.07334C11.7718 9.09191 11.768 9.10677 11.7606 9.12534C11.846 9.05106 11.924 8.98049 12.0057 8.90621C12.0837 8.98049 12.1692 9.05106 12.2509 9.12534C12.2509 9.25904 12.2546 9.38903 12.2546 9.52274V9.54502C12.2546 9.66387 12.1432 9.76043 12.002 9.76043C11.8609 9.76043 11.7495 9.66387 11.7495 9.54502C11.7495 9.53759 11.7495 9.52645 11.7495 9.52274C11.7495 9.38903 11.7532 9.25904 11.7532 9.12534C11.7198 9.28504 11.6232 9.42617 11.2889 9.46331C11.2592 10.2618 11.2369 11.8291 11.2109 12.6277H12.7894V12.6314H12.7968ZM11.7792 8.73536C11.8572 8.66851 11.9389 8.59423 12.0132 8.52738C12.0912 8.59423 12.1654 8.66851 12.2471 8.73536C12.2471 8.68337 12.2471 8.63509 12.2471 8.58309C12.1692 8.51624 12.0949 8.44567 12.0132 8.3751C11.9389 8.44196 11.8609 8.51624 11.7792 8.58309V8.73536ZM11.7829 7.97399C11.8572 7.90714 11.9352 7.83286 12.0095 7.766C12.0837 7.83286 12.158 7.90714 12.2323 7.97399C12.2323 7.92199 12.2323 7.87371 12.2323 7.82171C12.158 7.75486 12.0837 7.6843 12.0095 7.61373C11.9352 7.68058 11.8609 7.75486 11.7866 7.82171C11.7829 7.87371 11.7829 7.92199 11.7829 7.97399ZM11.7792 8.35653C11.8572 8.28968 11.9315 8.2154 12.0057 8.14855C12.08 8.2154 12.158 8.28968 12.2323 8.35653C12.2323 8.30454 12.2323 8.25625 12.2323 8.20426C12.158 8.13741 12.08 8.06684 12.0057 7.99627C11.9315 8.06313 11.8572 8.13741 11.7792 8.20426C11.7829 8.25254 11.7829 8.30082 11.7792 8.35653Z" fill="#0156E1"/>
<path d="M12.338 10.8672C12.3714 10.8672 12.3974 10.8672 12.4309 10.8709C12.4457 10.8895 12.4606 10.9043 12.4717 10.9229C12.4383 10.9192 12.4012 10.9192 12.3677 10.9192C11.9815 10.9192 11.6509 11.1606 11.5247 11.4986C11.6138 11.1346 11.9443 10.8672 12.338 10.8672ZM12.338 10.8078H12.3566C12.338 10.7929 12.3195 10.7818 12.2972 10.7669C11.8812 10.7669 11.5432 11.0603 11.4727 11.4466C11.5841 11.0752 11.9295 10.8078 12.338 10.8078Z" fill="#F18700"/>
<path d="M12.1801 10.7149C11.9832 10.6555 11.7641 10.7 11.6081 10.8523C11.4781 10.9786 11.4224 11.1531 11.441 11.3203C11.545 10.9972 11.8347 10.7595 12.1801 10.7149Z" fill="#E30613"/>
<path d="M12.5207 10.9898C12.4724 10.9824 12.4242 10.975 12.3722 10.975C11.9822 10.975 11.6554 11.2387 11.5625 11.5915C11.5774 11.6101 11.5922 11.6249 11.6034 11.6435C11.8262 11.8626 12.1865 11.8663 12.413 11.6472C12.595 11.4727 12.6321 11.2015 12.5207 10.9898Z" fill="#E30613"/>
<path d="M6.87643 15.1903C6.84301 15.1458 6.80215 15.0901 6.69073 15.0901C6.61274 15.0901 6.53103 15.1346 6.50132 15.2126C6.46789 15.2869 6.50132 15.3352 6.57188 15.4058C6.70187 15.5432 6.79472 15.6286 6.70187 15.87C6.64616 16.0149 6.5496 16.1337 6.44561 16.2117C6.26733 16.3491 6.09277 16.3751 5.93307 16.3751C5.81051 16.3751 5.69909 16.3528 5.62481 16.3083C5.62481 16.3045 5.62109 16.2934 5.62109 16.2897C5.65081 16.234 5.68052 16.1746 5.71023 16.1226C5.73251 16.078 5.75851 16.026 5.7808 15.9814C5.78451 15.9814 5.79565 15.9777 5.79937 15.9777C5.81794 16.0037 5.87365 16.0743 6.02221 16.0743C6.17448 16.0743 6.24505 15.9554 6.25619 15.922C6.28962 15.844 6.24505 15.7994 6.18934 15.74C6.17077 15.7214 6.14848 15.6992 6.12991 15.6806C6.06306 15.6063 5.97021 15.5023 6.08906 15.2572C6.15963 15.1012 6.2599 14.9898 6.36018 14.9155C6.48275 14.8301 6.61274 14.7892 6.7613 14.7892C6.93214 14.7892 7.01385 14.8412 7.03985 14.8635V14.8784C7.01756 14.9341 6.98785 14.9861 6.96557 15.0418C6.94328 15.0938 6.92471 15.1421 6.89872 15.1941C6.88386 15.1866 6.88015 15.1903 6.87643 15.1903ZM8.25805 14.8115C8.13177 14.8152 8.09463 14.8152 7.93121 14.8152C7.9275 14.8189 7.92007 14.8227 7.91636 14.8301C7.88293 14.9304 7.87922 14.9526 7.84951 15.0381C7.77523 15.2646 7.70094 15.5135 7.62295 15.74C7.57095 15.896 7.51896 16.0594 7.3704 16.0594C7.34069 16.0594 7.29983 16.0557 7.27755 16.0074C7.24783 15.948 7.27755 15.8663 7.3444 15.6694C7.44096 15.3872 7.54124 15.0975 7.64152 14.8152C7.64152 14.8115 7.63781 14.8078 7.63781 14.8004C7.45211 14.8041 7.41125 14.8041 7.24041 14.8041C7.23669 14.8078 7.22926 14.8115 7.22555 14.8189C7.1847 14.9452 7.15127 15.0344 7.09556 15.1866C7.01756 15.3946 7.00642 15.4206 6.95443 15.5692C6.94328 15.6026 6.93214 15.6286 6.921 15.662C6.84672 15.8626 6.80958 15.9629 6.80587 16.0483C6.7873 16.364 7.13641 16.364 7.23298 16.364C7.32583 16.364 7.57838 16.364 7.77151 16.1708C7.88665 16.052 7.92007 15.948 8.00549 15.6732C8.01664 15.636 8.02778 15.5989 8.03892 15.5692C8.18377 15.0901 8.21719 14.9824 8.26548 14.8115C8.26176 14.8227 8.25805 14.8152 8.25805 14.8115ZM9.31654 15.3092C9.29797 15.3909 9.24598 15.6657 8.986 15.7957C8.85601 15.8589 8.73344 15.8589 8.60717 15.8589C8.54031 16.1226 8.52174 16.182 8.49575 16.338C8.49203 16.3417 8.4846 16.3454 8.48089 16.3528C8.28405 16.3528 8.23948 16.3528 8.05378 16.3565C8.05006 16.3528 8.05006 16.3491 8.04263 16.3417C8.1912 15.8292 8.26176 15.5952 8.39175 15.1198C8.42518 15.0009 8.44375 14.9266 8.46603 14.8338C8.46975 14.8301 8.47718 14.8264 8.48089 14.8189C8.56631 14.8189 8.5886 14.8189 8.82629 14.8152H8.90429C9.07142 14.8115 9.41311 14.8115 9.31654 15.3092ZM8.83372 15.1123C8.81887 15.1123 8.81515 15.1123 8.78544 15.1123C8.7483 15.2535 8.71487 15.3983 8.68145 15.5395C8.71859 15.5395 8.75201 15.5395 8.78544 15.5246C8.87086 15.4837 8.908 15.3686 8.92657 15.2906C8.94886 15.1941 8.93771 15.1123 8.83372 15.1123ZM10.1671 15.7029C10.1893 15.584 10.1968 15.5395 10.2191 15.4206C10.2153 15.4169 10.2153 15.4132 10.2079 15.4058C10.1151 15.4095 9.94793 15.4132 9.82536 15.4132C9.84393 15.2906 9.84765 15.2609 9.87365 15.1309H10.0333H10.2599C10.2636 15.1272 10.271 15.1235 10.2748 15.1161C10.2933 15.0084 10.297 14.9638 10.3268 14.8227C10.323 14.8189 10.323 14.8152 10.3156 14.8078C10.2191 14.8078 10.1819 14.8078 9.85879 14.8115C9.63966 14.8115 9.61738 14.8115 9.53196 14.8115C9.52824 14.8152 9.52081 14.8189 9.5171 14.8264C9.47996 15.0863 9.42796 15.3723 9.37225 15.6472C9.3054 15.9926 9.26826 16.1746 9.23112 16.3343C9.23483 16.338 9.23484 16.3417 9.24226 16.3491C9.3834 16.3454 9.41311 16.3454 9.64338 16.3454H10.1336C10.1373 16.3417 10.1448 16.338 10.1485 16.3305C10.1708 16.1968 10.1782 16.156 10.2042 16.0149C10.2005 16.0111 10.1931 16.0074 10.1931 16C10.0631 16.0074 9.83279 16.0149 9.73251 16.0149C9.74737 15.9109 9.76594 15.8069 9.78451 15.6992H10.1559C10.1559 15.7103 10.1633 15.7066 10.1671 15.7029ZM11.493 16.3231C11.4892 16.3268 11.4892 16.3305 11.4818 16.338C11.2775 16.3417 11.2256 16.3454 11.0287 16.3565C11.025 16.3528 11.0176 16.3491 11.0139 16.3417C11.0027 16.3194 10.999 16.2971 10.9953 16.2674C10.9656 16.1597 10.9396 16.0446 10.9173 15.9331C10.9024 15.8774 10.895 15.8292 10.8801 15.7734C10.8579 15.7734 10.843 15.7734 10.8207 15.7734C10.7984 16.0409 10.791 16.1337 10.7873 16.3305C10.7836 16.3343 10.7762 16.338 10.7724 16.3454C10.5719 16.3454 10.5496 16.3454 10.3453 16.3491C10.3416 16.3454 10.3342 16.3417 10.3305 16.3343C10.3453 16.2303 10.4085 15.7066 10.4233 15.5877C10.4382 15.4503 10.479 15.0492 10.4939 14.8227C10.4976 14.8189 10.4976 14.8152 10.505 14.8078C10.5756 14.8078 10.9061 14.8041 10.9841 14.8041C11.0956 14.8041 11.2107 14.8078 11.2924 14.8598C11.4447 14.9526 11.4521 15.1718 11.4447 15.2646C11.4335 15.5283 11.3035 15.6249 11.2404 15.6694C11.2627 15.7437 11.2924 15.8143 11.3147 15.8886C11.3593 15.9926 11.4113 16.1523 11.493 16.3231ZM11.0324 15.1755C11.0176 15.1421 10.999 15.1161 10.9396 15.1161C10.921 15.1161 10.8987 15.1161 10.8801 15.1198C10.869 15.2201 10.8504 15.3872 10.843 15.4875C10.8913 15.4912 10.9173 15.4837 10.9284 15.4837C11.025 15.4503 11.0436 15.3463 11.0436 15.2869C11.0473 15.2572 11.0473 15.2126 11.0324 15.1755ZM13.0009 15.5692C12.8226 15.5766 12.7929 15.5766 12.6109 15.5729C12.6072 15.5766 12.6072 15.5803 12.5997 15.5877C12.6035 15.6397 12.6146 15.7066 12.6183 15.8552V16.0111C12.6035 16.0149 12.5849 16.026 12.5477 16.026C12.3286 16.026 12.3212 15.714 12.3138 15.6063C12.3138 15.4615 12.3323 15.1272 12.6443 15.1272C12.7297 15.1272 12.8226 15.1532 12.9006 15.2275C12.9043 15.2238 12.9117 15.2238 12.9154 15.2201C12.9154 15.1681 12.9191 15.1161 12.9191 15.0604C12.9191 15.0009 12.9229 14.9378 12.9229 14.8784C12.9191 14.8747 12.9191 14.8709 12.9191 14.8635C12.8077 14.8041 12.6666 14.7818 12.5552 14.7818C12.4289 14.7818 12.2358 14.8004 12.0761 14.9898C11.9721 15.1161 11.8904 15.324 11.8792 15.6026C11.8755 15.7883 11.9089 15.9777 12.0018 16.1077C12.1689 16.3603 12.4437 16.3714 12.5886 16.3714C12.7483 16.3714 12.9006 16.3491 13.0454 16.2971C13.0491 16.2934 13.0491 16.2897 13.0566 16.2823C13.0454 16.1226 13.038 16.0074 13.0268 15.8589C13.0157 15.7029 13.0157 15.6397 13.0157 15.5766C13.0083 15.5766 13.0009 15.5729 13.0009 15.5692ZM13.7325 16.3417C13.6917 16.0446 13.6582 15.7474 13.6248 15.454C13.5914 15.1309 13.5765 14.9489 13.5691 14.8301C13.5654 14.8264 13.558 14.8227 13.5542 14.8152C13.3723 14.8227 13.3314 14.8227 13.1568 14.8189C13.1531 14.8227 13.1457 14.8264 13.1457 14.8338C13.1643 14.9898 13.1791 15.1458 13.1977 15.4132C13.22 15.7289 13.2385 16.0371 13.2571 16.3528C13.2608 16.3565 13.2683 16.3603 13.272 16.3603C13.4577 16.3565 13.5097 16.3528 13.7177 16.3565C13.7288 16.3454 13.7288 16.3454 13.7325 16.3417ZM15.1476 16.3305C15.1438 16.3343 15.1438 16.338 15.1364 16.3454C14.9507 16.3454 14.9099 16.3491 14.7019 16.3528C14.6982 16.3491 14.6907 16.3454 14.687 16.3454C14.635 16.2006 14.6016 16.1114 14.5533 15.9777C14.4382 15.9777 14.3268 15.9777 14.2079 15.9777C14.1931 16.1003 14.1856 16.2191 14.1782 16.3417C14.1745 16.3454 14.1671 16.3491 14.1671 16.3565C13.9962 16.3565 13.9331 16.3565 13.7771 16.3603C13.7734 16.3565 13.7659 16.3528 13.7622 16.3528C13.7919 16.2154 13.7957 16.1783 13.8328 15.9294C13.8514 15.8069 13.8699 15.688 13.8848 15.5655C13.9034 15.4578 13.9182 15.3463 13.9331 15.2386C13.9442 15.1829 13.9702 14.9006 13.9814 14.8375C13.9851 14.8338 13.9851 14.8301 13.9925 14.8301C14.2302 14.8301 14.2673 14.8301 14.4642 14.8264C14.4679 14.8301 14.4753 14.8338 14.479 14.8412C14.4902 14.8672 14.5013 14.8969 14.5162 14.9266C14.6684 15.3018 14.6833 15.3278 14.7873 15.5543C14.843 15.6806 14.8987 15.8106 14.9544 15.9369C14.9916 16.0223 15.051 16.1597 15.0956 16.2414C15.1067 16.2414 15.1401 16.3157 15.1476 16.3305ZM14.4456 15.6657C14.4159 15.584 14.3899 15.5023 14.3602 15.4243C14.3045 15.2646 14.2933 15.2238 14.2562 15.1049C14.2562 15.2201 14.2525 15.2572 14.2413 15.4429C14.2376 15.5209 14.2265 15.5952 14.2228 15.6694C14.297 15.6694 14.3713 15.6694 14.4456 15.6657ZM15.6787 15.9109C15.8235 16.078 15.8978 16.1671 16.0463 16.3454C16.0501 16.3491 16.0612 16.3528 16.0649 16.3603C16.232 16.3565 16.2618 16.3565 16.4252 16.3565C16.4289 16.3528 16.4289 16.3491 16.4363 16.3417C16.3992 16.2191 16.3472 16.0669 16.2655 15.7809C16.2172 15.6286 16.0278 14.9638 15.9869 14.8338C15.9832 14.8301 15.9758 14.8264 15.9721 14.8189C15.8755 14.8189 15.8198 14.8227 15.6749 14.8227C15.6712 14.8264 15.6712 14.8301 15.6675 14.8375C15.6898 14.9006 15.7715 15.1792 15.7901 15.2386C15.8272 15.3612 15.8644 15.4837 15.8978 15.6026C15.8012 15.4949 15.7084 15.3872 15.6155 15.2795C15.389 15.0046 15.3444 14.9564 15.2553 14.8264C15.2515 14.8227 15.2404 14.8189 15.2367 14.8189C15.0844 14.8227 15.0361 14.8227 14.8839 14.8227C14.8801 14.8264 14.8801 14.8301 14.8727 14.8375C14.9061 14.9749 14.9396 15.1049 14.9656 15.2423C14.9916 15.3798 15.0881 15.7994 15.1178 15.9629C15.155 16.1374 15.1736 16.2414 15.1958 16.3491C15.1996 16.3528 15.207 16.3565 15.2107 16.364C15.3778 16.3603 15.389 16.3603 15.5561 16.3603C15.5598 16.3565 15.5672 16.3528 15.571 16.3454C15.5041 16.1077 15.4967 16.0928 15.4298 15.8329C15.4001 15.7289 15.3704 15.6249 15.3407 15.5172C15.4521 15.6435 15.5635 15.7734 15.6787 15.9109ZM17.2794 16.3417C17.1717 16.0743 17.0566 15.7549 16.96 15.48C16.9043 15.324 16.8671 15.2201 16.8374 15.1346C16.9303 15.1346 16.9674 15.1346 17.1086 15.1383C17.1123 15.1346 17.1123 15.1309 17.1197 15.1235C17.0714 14.9861 17.064 14.9564 17.0231 14.8264C17.0194 14.8227 17.012 14.8189 17.0083 14.8115C16.9526 14.8115 16.8597 14.8115 16.7892 14.8152C16.7149 14.8152 16.6443 14.8152 16.57 14.8152C16.4066 14.8152 16.2469 14.8152 16.0872 14.8152C16.0835 14.8189 16.0835 14.8227 16.0761 14.8301C16.1132 14.9675 16.1281 15.0084 16.1541 15.1272C16.1578 15.1309 16.1652 15.1346 16.1689 15.1421C16.206 15.1421 16.2469 15.1421 16.2915 15.1383C16.3435 15.1383 16.3955 15.1383 16.4437 15.1346C16.4623 15.1866 16.7632 16.1263 16.8263 16.3491C16.83 16.3528 16.8374 16.3565 16.8411 16.3565C17.038 16.3528 17.0751 16.3528 17.2757 16.3528C17.2757 16.3454 17.2757 16.3454 17.2794 16.3417ZM17.9702 15.1866C17.9516 15.1346 17.9294 15.0863 17.9108 15.0344C17.8885 14.9786 17.8699 14.9266 17.8514 14.8709C17.8476 14.8672 17.8402 14.8635 17.8365 14.8561C17.7882 14.8375 17.6694 14.7818 17.4948 14.7818C17.3463 14.7818 17.2497 14.8227 17.2014 14.9081C17.1643 14.9824 17.1606 15.0938 17.2163 15.2498C17.3091 15.5023 17.4874 15.6026 17.6137 15.6732C17.6508 15.6917 17.6879 15.714 17.7251 15.7326C17.8328 15.792 17.9108 15.8366 17.9442 15.9146C17.9591 15.948 17.9925 16.0669 17.8328 16.0669C17.6842 16.0669 17.5691 15.9926 17.532 15.9703C17.5282 15.9703 17.5208 15.974 17.5171 15.974C17.532 16.026 17.5505 16.0706 17.5691 16.1151C17.5877 16.1708 17.6062 16.2303 17.6248 16.2823C17.6285 16.286 17.6397 16.2971 17.6434 16.3008C17.7548 16.3454 17.8848 16.3677 18.0073 16.3677C18.1671 16.3677 18.323 16.3417 18.3862 16.2043C18.4233 16.1263 18.4196 16.0074 18.3528 15.8626C18.245 15.6212 18.0816 15.5357 17.8328 15.3983C17.7028 15.3315 17.6322 15.2795 17.5988 15.2052C17.5654 15.1272 17.61 15.0826 17.6879 15.0826C17.7994 15.0826 17.8885 15.1383 17.9591 15.1829C17.9591 15.1903 17.9665 15.1866 17.9702 15.1866Z" fill="url(#paint10_linear_487_48984)"/>
<path d="M8.11683 12.8988C8.10569 12.9322 8.09826 12.9582 8.08341 12.9916C8.04255 13.1105 7.86057 13.7084 7.81229 13.8384C7.79372 13.8978 7.77515 13.9535 7.75658 14.013C7.74543 14.0464 7.72686 14.0984 7.70829 14.169C7.85314 14.169 7.99799 14.1652 8.14283 14.1541C8.14655 14.1578 8.14655 14.1615 8.15398 14.169C8.10198 14.3101 8.08712 14.3509 8.04255 14.4958C8.03884 14.4995 8.0277 14.5032 8.02398 14.5106C7.80857 14.5106 7.58944 14.5106 7.37774 14.5106C7.29975 14.5106 7.24404 14.5144 7.14005 14.5144C7.13633 14.5106 7.13633 14.5069 7.12891 14.4995C7.19576 14.3064 7.22176 14.2321 7.29232 14.0352C7.32575 13.9387 7.48174 13.4633 7.51888 13.3593C7.54116 13.2962 7.55973 13.233 7.58573 13.1625C7.62658 13.0362 7.64144 12.9953 7.67115 12.9025C7.67487 12.8988 7.68229 12.895 7.68972 12.8876C7.89028 12.8876 7.94599 12.8876 8.09826 12.8802C8.11312 12.8913 8.11683 12.895 8.11683 12.8988ZM9.67672 12.8988C9.63958 13.0807 9.6173 13.1922 9.51331 13.6973C9.50216 13.7344 9.49845 13.7715 9.49102 13.8124C9.43531 14.0984 9.41303 14.2135 9.30161 14.3361C9.11962 14.5404 8.85593 14.5404 8.75193 14.5404C8.64794 14.5404 8.27654 14.5404 8.26911 14.2061C8.2654 14.1095 8.29139 14.0055 8.3471 13.7938C8.35825 13.7604 8.36567 13.7307 8.37682 13.6973C8.41767 13.5376 8.4251 13.5153 8.48452 13.2962C8.53281 13.129 8.55509 13.0399 8.58852 12.9025C8.59223 12.8988 8.59966 12.895 8.60337 12.8876C8.78536 12.8876 8.82621 12.8876 9.02306 12.8802C9.02677 12.8839 9.02677 12.8876 9.0342 12.895C8.9562 13.1959 8.88564 13.4967 8.81136 13.7938C8.75936 13.9981 8.74079 14.0872 8.77793 14.1504C8.80022 14.1949 8.8485 14.2061 8.88192 14.2061C9.04163 14.2061 9.07877 14.0315 9.11591 13.8681C9.17162 13.6267 9.22733 13.3704 9.28304 13.1253C9.30161 13.0325 9.30532 13.0102 9.33132 12.9025C9.33503 12.8988 9.34246 12.895 9.34618 12.8876C9.51331 12.8876 9.55416 12.8839 9.68787 12.8802C9.67301 12.8913 9.67672 12.895 9.67672 12.8988ZM10.7055 14.1058C10.6832 14.2618 10.6721 14.2915 10.6498 14.4735C10.6461 14.4772 10.6387 14.4809 10.6387 14.4884C10.5644 14.5218 10.4492 14.5441 10.2933 14.5441C10.1447 14.5441 9.91071 14.5292 9.76586 14.3435C9.63958 14.1838 9.63216 13.9573 9.67301 13.727C9.70272 13.5747 9.777 13.2664 10.0036 13.051C10.1855 12.8839 10.3675 12.8653 10.505 12.8653C10.5607 12.8653 10.7129 12.869 10.8169 12.9285C10.8169 12.9322 10.8206 12.9359 10.8281 12.9433C10.8132 13.0102 10.8058 13.077 10.7946 13.1402C10.7835 13.1996 10.7761 13.2553 10.7649 13.3147C10.7612 13.3184 10.7538 13.3184 10.7501 13.3184C10.7167 13.285 10.6535 13.2219 10.5347 13.2219C10.3898 13.2219 10.3118 13.3036 10.2747 13.3593C10.219 13.4336 10.167 13.545 10.1447 13.7121C10.1224 13.8867 10.1447 14.0315 10.219 14.1095C10.2858 14.1764 10.3638 14.1875 10.427 14.1875C10.5384 14.1875 10.6089 14.1541 10.6832 14.1058C10.6981 14.0984 10.7018 14.0984 10.7055 14.1058ZM11.3369 14.5106C11.1475 14.5069 11.0918 14.5069 10.8801 14.5181C10.8764 14.5144 10.8764 14.5106 10.8689 14.5032C10.8875 14.3435 10.9172 14.0872 10.9432 13.7901C10.9543 13.675 10.9952 13.1847 11.0101 12.9062C11.0138 12.9025 11.0212 12.8988 11.0212 12.8913C11.2032 12.8913 11.2552 12.8913 11.426 12.8839C11.4297 12.8876 11.4297 12.8913 11.4372 12.8988C11.4372 12.9248 11.4149 13.2516 11.4075 13.2962C11.3963 13.3964 11.3926 13.493 11.3852 13.5933C11.478 13.4299 11.5634 13.2664 11.6489 13.0993C11.7009 13.0027 11.7046 12.9842 11.738 12.9025C11.7417 12.8988 11.7491 12.895 11.7529 12.8876C11.9386 12.8839 11.9683 12.8839 12.1391 12.8802C12.1391 12.8839 12.1428 12.8876 12.1428 12.895C12.0648 13.0213 12.0351 13.0733 11.972 13.1884C11.9014 13.311 11.8271 13.4336 11.7491 13.5524C11.8011 13.675 11.8531 13.7938 11.9089 13.9164C11.9571 14.0204 12.0351 14.1838 12.0797 14.2841C12.1131 14.3472 12.1465 14.4104 12.1837 14.4772C12.1837 14.4809 12.18 14.4846 12.18 14.4921C11.9348 14.4995 11.8531 14.4995 11.6712 14.5144C11.6674 14.5106 11.66 14.5069 11.6563 14.4995C11.6452 14.4809 11.6414 14.4586 11.634 14.4401C11.5597 14.2209 11.5486 14.1949 11.5003 14.0575C11.4595 13.9535 11.4149 13.8495 11.3777 13.7418C11.3555 14.2024 11.348 14.3064 11.348 14.4884C11.3443 14.5032 11.3406 14.5069 11.3369 14.5106ZM12.6145 13.6267C12.6257 13.7344 12.6294 13.8495 12.6368 13.961C12.6517 14.2358 12.6554 14.2469 12.6739 14.4995C12.6702 14.5032 12.6628 14.5069 12.6591 14.5144C12.4808 14.5144 12.4697 14.5144 12.2914 14.5218C12.2877 14.5181 12.2803 14.5144 12.2765 14.5069C12.2765 14.3881 12.2803 14.2804 12.2765 14.0947C12.2765 13.9201 12.2654 13.4744 12.2654 13.3333C12.2617 13.1922 12.2543 13.051 12.2505 12.9099C12.2543 12.9062 12.2617 12.9025 12.2654 12.895C12.4288 12.895 12.4734 12.895 12.6368 12.8876C12.6405 12.8913 12.6479 12.895 12.6554 12.895C12.7259 13.0325 12.7519 13.0807 12.9376 13.3704C13.0119 13.4856 13.0899 13.597 13.1642 13.7121C13.1493 13.5858 13.1419 13.4521 13.127 13.3259C13.1233 13.2664 13.0936 12.9693 13.0862 12.9062C13.0899 12.9025 13.0973 12.8988 13.0973 12.8913C13.2459 12.8876 13.3053 12.8876 13.4093 12.8839C13.413 12.8876 13.4205 12.8913 13.4242 12.8988C13.439 13.0399 13.4985 13.7418 13.5133 13.9015C13.543 14.2024 13.5616 14.3658 13.5727 14.4958C13.569 14.4995 13.5653 14.5032 13.5579 14.5106C13.387 14.5106 13.3536 14.5106 13.1753 14.5181C13.1716 14.5144 13.1642 14.5106 13.1568 14.5032C13.0342 14.3101 12.9748 14.2209 12.8596 14.0464C12.7891 13.9053 12.6999 13.7641 12.6145 13.6267ZM14.6424 13.0362C14.8652 13.2442 14.9395 13.5933 14.9618 13.7121C14.9803 13.8124 14.9952 13.9127 14.9952 14.013C14.9952 14.1207 14.9729 14.2209 14.9209 14.3101C14.7872 14.5329 14.5161 14.5366 14.4418 14.5366C14.3675 14.5366 14.1001 14.5329 13.9033 14.3138C13.7993 14.1987 13.7064 14.013 13.6804 13.7158C13.6656 13.5896 13.6396 13.2442 13.7956 13.0362C13.9218 12.869 14.1038 12.8542 14.1967 12.8542C14.2635 12.8579 14.4604 12.8653 14.6424 13.0362ZM14.4121 13.3482C14.3972 13.3147 14.3415 13.1922 14.2338 13.1922C14.2004 13.1922 14.167 13.2107 14.1447 13.233C14.1076 13.2776 14.089 13.3593 14.0964 13.5153C14.1001 13.571 14.1076 13.6378 14.115 13.7121C14.1261 13.7753 14.1335 13.8347 14.1484 13.8941C14.1633 13.961 14.2004 14.1021 14.2821 14.169C14.3118 14.1912 14.349 14.2061 14.3787 14.2061C14.4084 14.2061 14.4455 14.1912 14.4641 14.169C14.5235 14.1095 14.5198 13.9758 14.5161 13.8941C14.5124 13.831 14.5012 13.7716 14.4938 13.7084C14.4975 13.6676 14.4604 13.4596 14.4121 13.3482ZM15.894 13.4781C15.9051 13.5524 15.9088 13.623 15.9163 13.6973C15.946 13.9647 15.972 14.2321 15.9906 14.4995C15.9868 14.5032 15.9794 14.5069 15.9757 14.5144C15.9088 14.5106 15.8457 14.5106 15.7789 14.5106C15.6749 14.5106 15.5969 14.5106 15.4632 14.5181C15.4595 14.5144 15.452 14.5106 15.4446 14.5032C15.4335 14.4698 15.4223 14.4438 15.4075 14.4178C15.3369 14.2507 15.3295 14.2321 15.2626 14.065C15.2106 13.9424 15.1586 13.8124 15.1141 13.6898C15.0732 13.5858 15.0286 13.4819 14.9878 13.3741C14.8652 13.0733 14.8541 13.0362 14.8021 12.9099C14.8058 12.9062 14.8058 12.9025 14.8132 12.895C14.9952 12.8913 15.0286 12.8913 15.2106 12.8765C15.2143 12.8802 15.2218 12.8839 15.2255 12.8913C15.2775 13.0436 15.348 13.2256 15.4112 13.3927C15.478 13.5673 15.5412 13.7456 15.6117 13.9201C15.6303 13.9758 15.6526 14.0241 15.6712 14.0798C15.6674 14.0278 15.6674 13.9795 15.66 13.9238C15.6192 13.4633 15.6117 13.3816 15.556 12.9025C15.5597 12.8988 15.5597 12.895 15.5672 12.8876C15.7714 12.8876 15.8123 12.8839 15.9943 12.8802C15.998 12.8839 16.0054 12.8876 16.0091 12.895C16.232 13.4187 16.2654 13.4967 16.4437 13.8867C16.4734 13.9498 16.4994 14.0092 16.5291 14.0724C16.492 13.857 16.4771 13.7678 16.4325 13.415C16.3917 13.1105 16.3805 13.0585 16.3471 12.9025C16.3508 12.8988 16.3508 12.895 16.3582 12.8876C16.5105 12.8839 16.5439 12.8839 16.6999 12.8802C16.7037 12.8839 16.7111 12.8876 16.7148 12.895C16.7185 12.9359 16.7259 12.9767 16.7296 13.0176C16.7594 13.2033 16.7891 13.5004 16.8076 13.6898C16.8225 13.8161 16.8374 13.9461 16.8485 14.0724C16.8596 14.1912 16.8782 14.3769 16.8856 14.4921C16.8819 14.4958 16.8819 14.4995 16.8745 14.5069C16.8039 14.5032 16.7408 14.5032 16.6739 14.5032C16.5774 14.5032 16.4882 14.5032 16.3545 14.5106C16.3508 14.5069 16.3397 14.5032 16.336 14.4958C16.3062 14.4364 16.1911 14.143 16.1651 14.0761C16.1243 13.9758 16.0797 13.8793 16.0388 13.7827C15.9831 13.6898 15.9348 13.5858 15.894 13.4781Z" fill="url(#paint11_linear_487_48984)"/>
<path d="M10.1968 13.4039C10.0631 13.4113 9.93306 13.4262 9.79936 13.441C9.7585 13.545 9.7325 13.649 9.71393 13.7381C9.66565 13.9944 9.69536 14.1912 9.79936 14.3175C9.92563 14.4772 10.1188 14.4995 10.2933 14.4995C10.4196 14.4995 10.531 14.4809 10.6053 14.4549C10.6239 14.3212 10.6276 14.273 10.6424 14.1875C10.5867 14.2135 10.5199 14.2321 10.4345 14.2321C10.3676 14.2321 10.271 14.2247 10.193 14.1392C10.1076 14.0538 10.0816 13.8941 10.1076 13.701C10.1188 13.5636 10.1559 13.467 10.1968 13.4039Z" fill="url(#paint12_linear_487_48984)"/>
<path d="M8.8038 13.5637C8.68123 13.5822 8.55867 13.6045 8.43982 13.6231C8.43611 13.6491 8.42497 13.6788 8.41754 13.7159L8.38783 13.8125C8.3284 14.0279 8.3024 14.1245 8.30983 14.2099C8.32097 14.4068 8.45839 14.4959 8.74809 14.4959C8.84094 14.4959 9.09349 14.4959 9.26062 14.3102C9.36461 14.1951 9.3869 14.0911 9.44261 13.8088L9.46489 13.6937L9.51317 13.4708C9.42032 13.4783 9.32376 13.4931 9.23091 13.508C9.2012 13.6342 9.1752 13.7642 9.14177 13.8868C9.10463 14.0502 9.06378 14.2619 8.86322 14.2619C8.7778 14.2619 8.74066 14.2211 8.72209 14.1839C8.67381 14.1022 8.70352 14.0019 8.7518 13.7977C8.77037 13.7122 8.78523 13.6342 8.8038 13.5637Z" fill="url(#paint13_linear_487_48984)"/>
<path d="M16.559 14.0688L16.4699 14.0948C16.4402 14.0317 16.4142 13.9722 16.3845 13.9091L16.3436 13.8125C16.3399 13.8051 16.3399 13.7977 16.3325 13.7902C16.2359 13.768 16.1356 13.7457 16.0391 13.7271C16.0502 13.742 16.0539 13.7605 16.0576 13.7717L16.0725 13.8051C16.1096 13.8905 16.1468 13.9797 16.1839 14.0651C16.2136 14.1394 16.3176 14.3882 16.351 14.4662C16.4736 14.4625 16.5553 14.4588 16.6519 14.4588H16.8153C16.8116 14.3771 16.7967 14.2731 16.7856 14.1802L16.7744 14.0762C16.7707 14.0168 16.7596 13.9574 16.7559 13.8942C16.6779 13.872 16.5925 13.8534 16.5145 13.8311C16.5367 13.9091 16.5442 13.976 16.559 14.0688Z" fill="url(#paint14_linear_487_48984)"/>
<path d="M7.38121 14.4661H8.00887C8.04601 14.351 8.06087 14.3064 8.09801 14.2024C7.97173 14.2098 7.84174 14.2098 7.71547 14.2098H7.65604L7.6709 14.1504C7.68947 14.0836 7.70433 14.0316 7.71918 13.9944C7.73032 13.961 7.73775 13.935 7.74889 13.9016C7.76004 13.8756 7.76746 13.8459 7.77861 13.8199C7.78232 13.8013 7.79346 13.7753 7.80089 13.7419C7.6709 13.7679 7.54462 13.7976 7.41835 13.8273C7.38492 13.9239 7.35892 14.0093 7.34407 14.0427C7.28464 14.221 7.25493 14.3027 7.19922 14.4624H7.2215C7.27721 14.4698 7.32178 14.4661 7.38121 14.4661Z" fill="url(#paint15_linear_487_48984)"/>
<path d="M12.1141 14.455C12.0918 14.4104 12.0621 14.3584 12.0398 14.3139C11.9915 14.2136 11.9135 14.0502 11.869 13.9388C11.8132 13.8162 11.7612 13.6936 11.7092 13.5748L11.6981 13.5525L11.713 13.5339C11.7538 13.4671 11.7984 13.3965 11.8392 13.3297C11.7501 13.3297 11.661 13.3297 11.5793 13.3334C11.5273 13.4299 11.4753 13.5191 11.427 13.6156L11.3378 13.5896L11.3564 13.3371C11.245 13.3408 11.1336 13.3445 11.0259 13.3519C11.011 13.5451 10.9962 13.7196 10.9887 13.7976C10.9702 14.0242 10.9479 14.2322 10.9293 14.3807C10.9256 14.4141 10.9256 14.4439 10.9219 14.4736C11.0333 14.4699 11.1001 14.4699 11.1781 14.4699H11.3044C11.3044 14.3102 11.3081 14.1876 11.3341 13.753L11.4233 13.7382C11.4604 13.8422 11.5013 13.9462 11.5458 14.0539C11.5793 14.1467 11.5941 14.1876 11.6238 14.273C11.6387 14.3139 11.6573 14.3659 11.6795 14.4327C11.6833 14.4401 11.6907 14.455 11.6944 14.4661C11.6944 14.4699 11.6981 14.4736 11.6981 14.481C11.8244 14.4773 11.9061 14.4736 12.0472 14.4661L12.1141 14.455Z" fill="url(#paint16_linear_487_48984)"/>
<path d="M15.1614 13.675C15.2134 13.7976 15.2579 13.9276 15.3099 14.0502C15.3285 14.0947 15.3434 14.1319 15.3582 14.1579C15.3916 14.2359 15.4065 14.2767 15.4548 14.3993C15.4585 14.4141 15.4659 14.4253 15.4733 14.4401C15.4771 14.4476 15.4845 14.4587 15.4845 14.4661C15.6071 14.4624 15.6813 14.4587 15.7816 14.4587H15.9413C15.919 14.1913 15.8893 13.9239 15.867 13.6936C15.867 13.6899 15.867 13.6899 15.867 13.6862C15.8076 13.6713 15.7408 13.6639 15.6813 13.649C15.685 13.727 15.6962 13.8125 15.7036 13.9165C15.7073 13.9685 15.7073 14.0167 15.711 14.0724L15.6219 14.091C15.6033 14.0353 15.5811 13.987 15.5625 13.9313C15.5402 13.8682 15.5142 13.805 15.4882 13.7382C15.4696 13.6936 15.4548 13.6528 15.4362 13.6045C15.3285 13.5859 15.2208 13.5673 15.1094 13.5488C15.1279 13.597 15.1428 13.6342 15.1614 13.675Z" fill="url(#paint17_linear_487_48984)"/>
<path d="M13.7072 13.3964C13.696 13.493 13.696 13.6007 13.7109 13.7158C13.7332 13.961 13.8074 14.1578 13.9263 14.2878C14.0526 14.4252 14.2234 14.4921 14.4351 14.4921C14.6468 14.4921 14.7954 14.4252 14.8771 14.2878C14.9179 14.2135 14.9439 14.1244 14.9476 14.0129C14.9514 13.9275 14.9365 13.8347 14.9179 13.7195C14.9031 13.6527 14.8882 13.5821 14.8659 13.519C14.7434 13.5004 14.6245 13.4856 14.502 13.4744C14.5317 13.5821 14.5502 13.6935 14.5502 13.6973C14.5614 13.7641 14.5688 13.8235 14.5725 13.8904C14.5762 14.0055 14.5762 14.1318 14.5057 14.2024C14.4722 14.2358 14.4314 14.2469 14.3905 14.2469C14.3497 14.2469 14.3014 14.2284 14.2643 14.2024C14.1751 14.1355 14.1343 14.0055 14.112 13.9015C14.0971 13.8384 14.0897 13.779 14.0786 13.7158C14.0674 13.6415 14.06 13.5747 14.0563 13.5153C14.0563 13.4818 14.0563 13.4558 14.0563 13.4298C13.9374 13.415 13.8223 13.4076 13.7072 13.3964Z" fill="url(#paint18_linear_487_48984)"/>
<path d="M12.3164 13.3333C12.3164 13.4001 12.3201 13.5412 12.3201 13.6898C12.3201 13.8458 12.3238 14.0055 12.3238 14.0909V14.4697C12.4575 14.466 12.491 14.466 12.6247 14.466L12.6135 14.3806C12.6024 14.2395 12.5987 14.1838 12.5838 13.9646C12.5764 13.8569 12.569 13.7418 12.5615 13.6304L12.6507 13.6044C12.7361 13.7418 12.8289 13.8829 12.9144 14.0241L12.9515 14.0798C13.0444 14.2209 13.1001 14.3138 13.2078 14.4772C13.3563 14.4735 13.3972 14.4735 13.5346 14.4735L13.5309 14.44C13.516 14.3175 13.4975 14.1652 13.4752 13.9126C13.464 13.8346 13.4529 13.6341 13.4343 13.4298C13.4343 13.415 13.4306 13.3964 13.4306 13.3852C13.3526 13.3815 13.2672 13.3778 13.1892 13.3704C13.2003 13.4855 13.2115 13.6044 13.2226 13.7158L13.1372 13.7418C13.0592 13.6267 12.9775 13.5152 12.9032 13.4001C12.8921 13.3815 12.8809 13.363 12.8698 13.3481C12.6841 13.337 12.5021 13.3333 12.3164 13.3333Z" fill="url(#paint19_linear_487_48984)"/>
</g>
<defs>
<linearGradient id="paint0_linear_487_48984" x1="13.7009" y1="10.2887" x2="21.6807" y2="10.2887" gradientUnits="userSpaceOnUse">
<stop stop-color="#B2B2B2"/>
<stop offset="1" stop-color="#EDEDED"/>
</linearGradient>
<linearGradient id="paint1_linear_487_48984" x1="13.7598" y1="8.95706" x2="22.6614" y2="8.95706" gradientUnits="userSpaceOnUse">
<stop stop-color="#A3195B"/>
<stop offset="0.0624116" stop-color="#B2374C"/>
<stop offset="0.1587" stop-color="#C75E38"/>
<stop offset="0.2618" stop-color="#D88026"/>
<stop offset="0.3711" stop-color="#E69C18"/>
<stop offset="0.4888" stop-color="#F1B10E"/>
<stop offset="0.619" stop-color="#F9C006"/>
<stop offset="0.7714" stop-color="#FEC901"/>
<stop offset="1" stop-color="#FFCC00"/>
</linearGradient>
<linearGradient id="paint2_linear_487_48984" x1="12.9565" y1="9.05519" x2="23.0081" y2="9.05519" gradientUnits="userSpaceOnUse">
<stop stop-color="#A3195B"/>
<stop offset="0.0360647" stop-color="#AB2552"/>
<stop offset="0.1527" stop-color="#C14639"/>
<stop offset="0.2781" stop-color="#D36224"/>
<stop offset="0.4132" stop-color="#E17714"/>
<stop offset="0.5626" stop-color="#EB8609"/>
<stop offset="0.7375" stop-color="#F18F02"/>
<stop offset="1" stop-color="#F39200"/>
</linearGradient>
<linearGradient id="paint3_linear_487_48984" x1="13.656" y1="11.3151" x2="20.6395" y2="11.3151" gradientUnits="userSpaceOnUse">
<stop stop-color="#3AAA35"/>
<stop offset="0.0838669" stop-color="#47AD32"/>
<stop offset="0.3425" stop-color="#69B629"/>
<stop offset="0.5883" stop-color="#81BC23"/>
<stop offset="0.8138" stop-color="#90C01F"/>
<stop offset="1" stop-color="#95C11E"/>
</linearGradient>
<linearGradient id="paint4_linear_487_48984" x1="12.9909" y1="12.3339" x2="18.8849" y2="12.3339" gradientUnits="userSpaceOnUse">
<stop stop-color="#006633"/>
<stop offset="1" stop-color="#3AAA35"/>
</linearGradient>
<linearGradient id="paint5_linear_487_48984" x1="10.2935" y1="10.2866" x2="2.31834" y2="10.2866" gradientUnits="userSpaceOnUse">
<stop stop-color="#B2B2B2"/>
<stop offset="1" stop-color="#EDEDED"/>
</linearGradient>
<linearGradient id="paint6_linear_487_48984" x1="10.2379" y1="8.94778" x2="1.3363" y2="8.94778" gradientUnits="userSpaceOnUse">
<stop stop-color="#A3195B"/>
<stop offset="0.0624116" stop-color="#B2374C"/>
<stop offset="0.1587" stop-color="#C75E38"/>
<stop offset="0.2618" stop-color="#D88026"/>
<stop offset="0.3711" stop-color="#E69C18"/>
<stop offset="0.4888" stop-color="#F1B10E"/>
<stop offset="0.619" stop-color="#F9C006"/>
<stop offset="0.7714" stop-color="#FEC901"/>
<stop offset="1" stop-color="#FFCC00"/>
</linearGradient>
<linearGradient id="paint7_linear_487_48984" x1="11.045" y1="9.05967" x2="0.99342" y2="9.05967" gradientUnits="userSpaceOnUse">
<stop stop-color="#A3195B"/>
<stop offset="0.0360647" stop-color="#AB2552"/>
<stop offset="0.1527" stop-color="#C14639"/>
<stop offset="0.2781" stop-color="#D36224"/>
<stop offset="0.4132" stop-color="#E17714"/>
<stop offset="0.5626" stop-color="#EB8609"/>
<stop offset="0.7375" stop-color="#F18F02"/>
<stop offset="1" stop-color="#F39200"/>
</linearGradient>
<linearGradient id="paint8_linear_487_48984" x1="10.3393" y1="11.3128" x2="3.36053" y2="11.3128" gradientUnits="userSpaceOnUse">
<stop stop-color="#3AAA35"/>
<stop offset="0.0838669" stop-color="#47AD32"/>
<stop offset="0.3425" stop-color="#69B629"/>
<stop offset="0.5883" stop-color="#81BC23"/>
<stop offset="0.8138" stop-color="#90C01F"/>
<stop offset="1" stop-color="#95C11E"/>
</linearGradient>
<linearGradient id="paint9_linear_487_48984" x1="10.9926" y1="12.3339" x2="5.04731" y2="12.3339" gradientUnits="userSpaceOnUse">
<stop stop-color="#006633"/>
<stop offset="1" stop-color="#3AAA35"/>
</linearGradient>
<linearGradient id="paint10_linear_487_48984" x1="12.0106" y1="16.3802" x2="12.0106" y2="14.7837" gradientUnits="userSpaceOnUse">
<stop stop-color="#2B3087"/>
<stop offset="0.3038" stop-color="#203A9F"/>
<stop offset="0.3503" stop-color="#1B3FAA"/>
<stop offset="0.4768" stop-color="#0F49C2"/>
<stop offset="0.6103" stop-color="#0750D3"/>
<stop offset="0.7543" stop-color="#0355DE"/>
<stop offset="0.9274" stop-color="#0156E1"/>
</linearGradient>
<linearGradient id="paint11_linear_487_48984" x1="12.0061" y1="14.5404" x2="12.0061" y2="12.8614" gradientUnits="userSpaceOnUse">
<stop stop-color="#2B3087"/>
<stop offset="0.3038" stop-color="#203A9F"/>
<stop offset="0.3503" stop-color="#1B3FAA"/>
<stop offset="0.4768" stop-color="#0F49C2"/>
<stop offset="0.6103" stop-color="#0750D3"/>
<stop offset="0.7543" stop-color="#0355DE"/>
<stop offset="0.9274" stop-color="#0156E1"/>
</linearGradient>
<linearGradient id="paint12_linear_487_48984" x1="10.1677" y1="13.4002" x2="10.1677" y2="14.495" gradientUnits="userSpaceOnUse">
<stop stop-color="#36A9E1"/>
<stop offset="0.7804" stop-color="#2581C4" stop-opacity="0"/>
</linearGradient>
<linearGradient id="paint13_linear_487_48984" x1="8.90969" y1="13.4674" x2="8.90969" y2="14.4937" gradientUnits="userSpaceOnUse">
<stop stop-color="#36A9E1"/>
<stop offset="0.7804" stop-color="#2581C4" stop-opacity="0"/>
</linearGradient>
<linearGradient id="paint14_linear_487_48984" x1="16.4314" y1="13.7282" x2="16.4314" y2="14.4707" gradientUnits="userSpaceOnUse">
<stop stop-color="#36A9E1"/>
<stop offset="0.7804" stop-color="#2581C4" stop-opacity="0"/>
</linearGradient>
<linearGradient id="paint15_linear_487_48984" x1="7.64823" y1="13.7477" x2="7.64823" y2="14.4705" gradientUnits="userSpaceOnUse">
<stop stop-color="#36A9E1"/>
<stop offset="0.7804" stop-color="#2581C4" stop-opacity="0"/>
</linearGradient>
<linearGradient id="paint16_linear_487_48984" x1="11.5159" y1="13.3293" x2="11.5159" y2="14.4722" gradientUnits="userSpaceOnUse">
<stop stop-color="#36A9E1"/>
<stop offset="0.7804" stop-color="#2581C4" stop-opacity="0"/>
</linearGradient>
<linearGradient id="paint17_linear_487_48984" x1="15.5237" y1="13.5588" x2="15.5237" y2="14.4704" gradientUnits="userSpaceOnUse">
<stop stop-color="#36A9E1"/>
<stop offset="0.7804" stop-color="#2581C4" stop-opacity="0"/>
</linearGradient>
<linearGradient id="paint18_linear_487_48984" x1="14.3223" y1="13.3977" x2="14.3223" y2="14.4945" gradientUnits="userSpaceOnUse">
<stop stop-color="#36A9E1"/>
<stop offset="0.7804" stop-color="#2581C4" stop-opacity="0"/>
</linearGradient>
<linearGradient id="paint19_linear_487_48984" x1="12.9283" y1="13.332" x2="12.9283" y2="14.4708" gradientUnits="userSpaceOnUse">
<stop stop-color="#36A9E1"/>
<stop offset="0.7804" stop-color="#2581C4" stop-opacity="0"/>
</linearGradient>
</defs>
</svg>
