<svg width="24" height="24" viewBox="0 0 24 24" fill="none" xmlns="http://www.w3.org/2000/svg">
<path d="M12.0054 22.7105C11.517 22.6237 9.46045 21.8803 7.52868 20.3881C6.41629 19.5253 5.5318 18.5594 4.89149 17.5176C4.10467 16.2261 3.70312 14.8207 3.70312 13.3447V2.78509L4.33258 2.99672C4.38142 3.01299 5.59691 3.40369 7.12714 3.40369C7.97364 3.40369 8.76588 3.28431 9.47673 3.05098C10.3449 2.76881 11.0992 2.30757 11.7178 1.68897L12.0542 1.35254L12.3907 1.68897C13.0147 2.313 13.7635 2.77424 14.6263 3.0564C15.3317 3.28974 16.1131 3.40912 16.9542 3.40912C18.4899 3.40912 19.7216 3.00214 19.7759 2.98586L20.4108 2.76881V13.3447C20.4108 14.8207 20.0147 16.2261 19.2387 17.5121C18.6092 18.554 17.7302 19.5199 16.6286 20.3827C14.6914 21.8966 12.5969 22.64 12.179 22.716L12.0976 22.7323L12.0163 22.716L12.0054 22.7105Z" fill="url(#paint0_linear_487_49005)"/>
<path d="M12.0054 22.7105C11.517 22.6237 9.46045 21.8803 7.52868 20.3881C6.41629 19.5253 5.5318 18.5594 4.89149 17.5176C4.10467 16.2261 3.70312 14.8207 3.70312 13.3447V2.78509L4.33258 2.99672C4.38142 3.01299 5.59691 3.40369 7.12714 3.40369C7.97364 3.40369 8.76588 3.28431 9.47673 3.05098C10.3449 2.76881 11.0992 2.30757 11.7178 1.68897L12.0542 1.35254L12.3907 1.68897C13.0147 2.313 13.7635 2.77424 14.6263 3.0564C15.3317 3.28974 16.1131 3.40912 16.9542 3.40912C18.4899 3.40912 19.7216 3.00214 19.7759 2.98586L20.4108 2.76881V13.3447C20.4108 14.8207 20.0147 16.2261 19.2387 17.5121C18.6092 18.554 17.7302 19.5199 16.6286 20.3827C14.6914 21.8966 12.5969 22.64 12.179 22.716L12.0976 22.7323L12.0163 22.716L12.0054 22.7105Z" fill="url(#paint1_linear_487_49005)"/>
<path d="M12.0532 1.54231L12.2919 1.78107C12.9322 2.42138 13.7028 2.88804 14.5818 3.18106C15.3035 3.41982 16.1012 3.5392 16.9531 3.5392C18.5431 3.5392 19.8074 3.11052 19.8182 3.10509L20.2741 2.94773V13.3337C20.2741 14.7825 19.8834 16.1663 19.1182 17.4306C18.4996 18.4562 17.6314 19.4112 16.5407 20.2631C14.6198 21.7662 12.5633 22.4933 12.1508 22.5693L12.0912 22.5802L12.0315 22.5693C11.5485 22.4825 9.52451 21.7499 7.60902 20.2686C6.50747 19.4166 5.63384 18.467 5.00438 17.436C4.22842 16.1663 3.83772 14.788 3.83772 13.3337V2.97486L4.28811 3.1268C4.29896 3.1268 5.55244 3.5392 7.12607 3.5392C7.98886 3.5392 8.79195 3.41982 9.51366 3.18106C10.4036 2.88804 11.1741 2.42138 11.809 1.7865L12.0477 1.54774M12.0477 1.16247L11.8578 1.35239L11.6191 1.59115C11.0113 2.1989 10.2788 2.64386 9.43226 2.9206C8.73769 3.1485 7.96173 3.26246 7.12607 3.26246C5.61213 3.26246 4.38578 2.86634 4.37493 2.86091L3.92454 2.70897L3.56641 2.58959V2.96401V3.4361V13.3283C3.56641 14.8314 3.97338 16.2639 4.77105 17.5717C5.41678 18.6298 6.31213 19.6065 7.4408 20.4748C9.39428 21.9887 11.478 22.7375 11.9772 22.8244L12.0369 22.8352L12.0857 22.8461L12.1346 22.8352L12.1943 22.8244C12.6229 22.7484 14.7446 21.9996 16.7035 20.4639C17.8214 19.5903 18.7058 18.6135 19.3462 17.5608C20.1384 16.2531 20.5399 14.826 20.5399 13.3229V2.57331L20.1818 2.69812L19.726 2.85548C19.726 2.85548 18.4834 3.27331 16.9477 3.27331C16.1229 3.27331 15.3524 3.15936 14.6632 2.92603C13.8222 2.64928 13.0896 2.1989 12.4819 1.59115L12.2431 1.35239L12.0532 1.15704L12.0477 1.16247Z" fill="white"/>
<path d="M12.0856 22.0585C11.6352 21.9608 9.73057 21.2662 7.91818 19.8662C6.86547 19.0523 6.03524 18.1461 5.43835 17.1748C4.71665 15.9864 4.34766 14.6949 4.34766 13.3384V3.66866C4.79261 3.79346 5.8399 4.04307 7.12051 4.04307C9.11197 4.04307 10.8104 3.42447 12.0476 2.25781C13.3011 3.44618 14.9507 4.0485 16.9476 4.0485C18.2445 4.0485 19.3026 3.78804 19.753 3.6578V13.3329C19.753 14.6895 19.3894 15.981 18.6732 17.1639C18.0817 18.1352 17.2569 19.0469 16.2205 19.8554C14.4189 21.2608 12.5306 21.9554 12.0856 22.053V22.0585Z" fill="#D72027"/>
<path d="M12.0548 2.49119C12.7168 3.08808 13.4982 3.53847 14.3718 3.82606C15.1587 4.08653 16.0323 4.22219 16.9548 4.22219C18.0889 4.22219 19.0548 4.02684 19.5865 3.88575V13.333C19.5865 14.657 19.2338 15.9159 18.5284 17.0771C17.9478 18.0322 17.1393 18.9221 16.1137 19.7252C14.3773 21.0818 12.5703 21.7655 12.0819 21.8849C11.5936 21.7655 9.77032 21.0818 8.02304 19.7306C6.99204 18.9329 6.16724 18.043 5.58663 17.0826C4.8812 15.9213 4.51764 14.6624 4.51764 13.333V3.89118C5.04942 4.02684 5.99903 4.21133 7.12228 4.21133C8.0556 4.21133 8.92924 4.0811 9.72691 3.82064C10.606 3.53304 11.3874 3.08266 12.0494 2.48576M12.0494 2.01367C10.5734 3.48963 8.68506 3.86947 7.12228 3.86947C5.46182 3.86947 4.17578 3.43537 4.17578 3.43537V13.3276C4.17578 19.3888 11.2354 22.0748 12.0819 22.2267C12.9339 22.0748 19.923 19.3779 19.923 13.3276V3.42452C19.923 3.42452 18.6261 3.8749 16.9439 3.8749C15.392 3.8749 13.5199 3.48963 12.044 2.01367H12.0494Z" fill="white"/>
<path d="M15.6387 10.2856C14.9062 10.15 14.141 10.0848 13.3542 10.036C13.3108 10.036 12.9961 10.0197 12.9961 9.67787C12.9961 9.66701 12.9961 6.72052 12.9961 6.72052H15.172C15.4596 6.72052 15.6333 6.88331 15.6333 7.0678V7.52362L14.8736 7.48563C14.7868 7.48563 14.7162 7.42594 14.7162 7.3554V7.1492H13.9131V9.63446C13.9131 9.63446 14.5372 9.66159 14.7162 9.69957V8.33214L14.3147 8.31043L14.4666 7.89803L15.1938 7.92516C15.1938 7.92516 15.6387 7.94144 15.6387 8.40811C15.6387 8.40811 15.6387 10.2205 15.6387 10.291V10.2856Z" fill="white"/>
<path d="M15.6949 10.3455L15.6352 10.3346C14.843 10.1881 14.0019 10.123 13.3562 10.0905C13.1012 10.0742 12.9492 9.92224 12.9492 9.67806V6.67188H15.174C15.505 6.67188 15.6841 6.87265 15.6841 7.068V7.57264L14.8701 7.52923C14.7616 7.52923 14.6694 7.44784 14.6639 7.35017V7.19823H13.9639V9.58581C14.0996 9.59124 14.4794 9.61294 14.6639 9.64007V8.38117C14.5717 8.38117 14.3818 8.36489 14.3112 8.35946H14.2461L14.4306 7.84396L15.1903 7.87109C15.1903 7.87109 15.6841 7.89822 15.6841 8.40287C15.6841 8.41915 15.6841 10.2207 15.6841 10.2858V10.3455H15.6949ZM13.0523 6.77498V9.67806C13.0523 9.9331 13.2477 9.98193 13.3616 9.98736C13.9965 10.0253 14.8159 10.085 15.5918 10.2261C15.5918 9.90596 15.5918 8.41915 15.5918 8.40287C15.5918 7.99047 15.212 7.96877 15.1957 7.96877L14.5066 7.94163L14.3926 8.25636C14.5283 8.26721 14.7019 8.27807 14.7236 8.27807H14.7725V8.3269V9.75403L14.7128 9.74317C14.5446 9.70519 13.926 9.67806 13.9205 9.67806H13.8717V7.0897H14.7725V7.34474C14.7725 7.38815 14.8213 7.42613 14.881 7.42613L15.5918 7.46412V7.06257C15.5918 6.88893 15.4236 6.76955 15.1794 6.76955H13.0523V6.77498Z" fill="url(#paint2_linear_487_49005)"/>
<path d="M12.5239 6.72595H11.6123V7.86547L10.8038 6.72595H9.88672V10.112C10.1906 10.074 10.4945 10.0686 10.8038 10.0469V7.84377L11.6069 9.005V10.0089C11.7805 10.0089 11.9596 10.0034 12.1332 10.0034C12.2634 10.0034 12.3937 10.0034 12.5185 10.0034V6.72052L12.5239 6.72595Z" fill="white"/>
<path d="M9.83203 10.1664V6.67188H10.825L11.5576 7.70288V6.67188H12.5723V10.0525H12.5235C12.377 10.0525 12.2522 10.0525 12.1382 10.0525C11.9646 10.0525 11.7909 10.0525 11.6064 10.0579H11.5576V9.02147L10.8522 8.00675V10.0959H10.8033C10.7057 10.1067 10.608 10.1122 10.5103 10.1176C10.3041 10.1284 10.0925 10.1393 9.89172 10.1664H9.83746H9.83203ZM9.92971 6.7804V10.0633C10.1196 10.0416 10.315 10.0308 10.4995 10.0199C10.5809 10.0199 10.6623 10.0091 10.7491 10.0036V7.6866L11.6553 8.98892V9.96023C11.8181 9.96023 11.9809 9.9548 12.1328 9.9548C12.2359 9.9548 12.3444 9.9548 12.4692 9.9548V6.77498H11.6553V8.0176L10.7708 6.77498H9.92971V6.7804Z" fill="url(#paint3_linear_487_49005)"/>
<path d="M18.6665 7.75152V7.12207C18.6665 6.8616 18.4657 6.72052 18.2269 6.72052H16.0836V7.97943C16.0836 8.3647 16.5068 8.41353 16.5068 8.41353C16.5068 8.41353 17.4944 8.52749 17.7494 8.56004V10.1771C17.5107 10.1065 17.0006 10.0089 17.0006 10.0089C17.0006 10.0089 17.0006 9.36857 17.0006 9.31973C17.0006 9.24919 16.9355 9.17864 16.8541 9.16237C16.6262 9.12438 16.0781 9.03756 16.0781 9.03756C16.0781 9.03756 16.0781 10.0252 16.0781 10.367C16.9952 10.5569 17.8634 10.8174 18.6611 11.143V8.68485C18.6611 8.19648 18.2107 8.12594 18.2107 8.12594C18.2107 8.12594 17.8254 8.06082 16.9952 7.99571V7.13835H17.7386V7.46393C17.7386 7.63214 17.9122 7.64842 17.9122 7.64842L18.6556 7.7461L18.6665 7.75152Z" fill="white"/>
<path d="M18.7173 11.2246L18.6467 11.1974C17.8491 10.8718 16.9809 10.6114 16.0692 10.4269L16.0312 10.416V10.3781C16.0312 10.0362 16.0312 9.0486 16.0312 9.0486V8.98892L16.0909 8.99977C16.0964 8.99977 16.639 9.08116 16.8669 9.12457C16.9754 9.14628 17.0514 9.23853 17.0514 9.33077C17.0514 9.36876 17.0514 9.83542 17.0514 9.97651C17.1654 9.99821 17.4855 10.0633 17.6971 10.1176V8.60907C17.3933 8.57109 16.5088 8.46799 16.4979 8.46799C16.3351 8.45171 16.0312 8.3269 16.0312 7.98505V6.67188H18.2235C18.3537 6.67188 18.4785 6.70986 18.5653 6.78583C18.663 6.86722 18.7119 6.98118 18.7119 7.12226V7.8114L17.9088 7.7083C17.8328 7.70288 17.6917 7.64319 17.6917 7.47497V7.19823H17.046V7.95791C17.4529 7.99047 17.746 8.02303 17.9196 8.04473C18.077 8.06101 18.1638 8.07187 18.2072 8.08272H18.2126C18.3863 8.10985 18.7064 8.27807 18.7064 8.69589V11.2246H18.7173ZM16.1344 10.3346C17.008 10.5191 17.8436 10.7687 18.6196 11.0781V8.69589C18.6196 8.25636 18.2289 8.18582 18.2126 8.18582V8.13698H18.2181L18.2072 8.18582C18.2072 8.18582 17.8165 8.1207 16.9971 8.06101H16.9537V7.10598H17.8002V7.4804C17.8002 7.59978 17.925 7.61063 17.9305 7.61606L18.6196 7.7083V7.13311C18.6196 7.02459 18.5816 6.93776 18.5057 6.87265C18.4351 6.81296 18.3374 6.7804 18.2289 6.7804H16.1344V7.99047C16.1344 8.3269 16.4979 8.37031 16.5142 8.37031C16.525 8.37031 17.5072 8.48427 17.7568 8.51683H17.8002V10.2532L17.7351 10.237C17.5018 10.1719 16.9971 10.0688 16.9917 10.0688H16.9537V10.0199C16.9537 10.0199 16.9537 9.37961 16.9537 9.3362C16.9537 9.28736 16.9049 9.23853 16.8506 9.22767C16.6716 9.19512 16.2809 9.13543 16.1344 9.11372C16.1344 9.31992 16.1344 10.0308 16.1344 10.3455V10.3346Z" fill="url(#paint4_linear_487_49005)"/>
<path d="M8.13504 10.3668L7.54357 8.37537L7.30481 8.39708L8.03194 6.72577H7.07148L6.43117 8.08235V6.72577H5.42188V11.1536C5.42188 11.1536 5.8397 10.9637 6.43117 10.7901V8.53816L6.59939 8.51103L7.14745 10.5785C7.41876 10.4971 8.13504 10.3668 8.13504 10.3668Z" fill="white"/>
<path d="M5.37261 11.23V6.67188H6.47958V7.85481L7.0385 6.67188H8.10206L7.38035 8.33776L7.5757 8.32148L8.1943 10.4052L8.14004 10.416C8.14004 10.416 7.41834 10.5463 7.15787 10.6277L7.10904 10.6439L6.56098 8.56566L6.47958 8.57651V10.823L6.4416 10.8339C5.86098 11.0075 5.44316 11.192 5.43773 11.1974L5.36719 11.23H5.37261ZM5.47029 6.76955V11.0726C5.61137 11.0129 5.9478 10.8773 6.38191 10.747V8.48969L6.63152 8.44628L7.17958 10.5083C7.42919 10.4377 7.90671 10.3509 8.0695 10.3184L7.50516 8.41915L7.22299 8.44628L7.95012 6.76412H7.09818L6.37648 8.29435V6.76412H5.46486L5.47029 6.76955Z" fill="url(#paint5_linear_487_49005)"/>
<path d="M9.39969 6.72528H8.46094V10.3012C8.46094 10.3012 8.84078 10.2198 9.39969 10.1601V6.72528Z" fill="white"/>
<path d="M8.41406 10.3609V6.67645H9.45592V10.209H9.41251C8.86445 10.2687 8.47918 10.3501 8.47918 10.3501L8.41949 10.3609H8.41406ZM8.51174 6.77413V10.2361C8.63654 10.209 8.94584 10.1547 9.35282 10.1113V6.7687H8.51174V6.77413Z" fill="url(#paint6_linear_487_49005)"/>
<path d="M12.8802 5.09073L12.8096 4.89538H13.184V6.11088H12.3864C12.2996 6.11088 12.229 6.04033 12.229 5.95351V5.66049H12.5383V5.91553H12.8802V5.09073ZM15.6856 5.48142C15.6856 5.48142 15.8429 5.51941 15.8429 5.64421V5.97522C15.8429 6.05119 15.7833 6.1163 15.7019 6.1163H14.7631V5.09615L14.698 4.90081H15.6964C15.7724 4.90081 15.8375 4.9605 15.8375 5.04189V5.32949C15.8375 5.44344 15.6856 5.48685 15.6856 5.48685M15.0778 5.38375H15.5336V5.09615H15.0778V5.38375ZM15.5391 5.5791H15.0778V5.91553H15.5391V5.5791ZM14.2042 4.90081L14.5949 6.1163H14.3019L14.1988 5.79615H13.743L13.6399 6.1163H13.3468L13.6996 5.09073V4.90081H14.2096H14.2042ZM13.9654 5.09073L13.8026 5.58995H14.1282L13.9654 5.09073ZM9.22283 4.90081C9.31508 4.90081 9.39105 4.97677 9.39105 5.06902V5.54111C9.39105 5.54111 9.39105 5.57367 9.38562 5.58995C9.38562 5.60623 9.37477 5.62251 9.36392 5.63879C9.35306 5.65507 9.33679 5.66592 9.31508 5.67677C9.29337 5.68762 9.26624 5.69305 9.23369 5.69305H8.62594V6.11088H8.31664V5.09073L8.24609 4.89538H9.21741M9.08175 5.09073H8.62051V5.4977H9.08175V5.09073ZM10.3786 5.92095H9.91198V4.89538H9.53756L9.6081 5.09073V5.95351C9.6081 6.04033 9.67864 6.11088 9.76546 6.11088H10.6825V4.89538H10.3135L10.3841 5.09073V5.92095H10.3786ZM11.7189 5.72018L11.2143 4.88995H10.8345L10.905 5.0853V6.10545H11.2143V5.32949L11.6972 6.10545H12.0282V4.88995H11.7244V5.72018H11.7189Z" fill="url(#paint7_linear_487_49005)"/>
<path d="M12.0533 2.16037C12.7261 2.81152 13.5292 3.29447 14.4463 3.59834C15.2114 3.85338 16.0525 3.97818 16.9587 3.97818C18.3261 3.97818 19.4548 3.67974 19.8346 3.56578V13.3332C19.8346 14.7006 19.4656 16.0029 18.7439 17.2021C18.1525 18.1843 17.3168 19.0959 16.2695 19.9153C14.4409 21.3424 12.5199 22.0424 12.0913 22.1292C11.6626 22.0424 9.71996 21.3424 7.88044 19.9207C6.82231 19.1013 5.98665 18.1897 5.38433 17.2076C4.65178 16.0083 4.28279 14.706 4.28279 13.3332V3.57664C4.6572 3.68516 5.77503 3.97276 7.12618 3.97276C8.03238 3.97276 8.88431 3.84253 9.65485 3.59291C10.5773 3.28904 11.3804 2.81152 12.0533 2.16037ZM12.0533 2.01928C10.5773 3.49524 8.68896 3.87508 7.12618 3.87508C5.46573 3.87508 4.17969 3.44098 4.17969 3.44098V13.3332C4.17969 19.3944 11.2393 22.0804 12.0858 22.2323C12.9378 22.0804 19.9269 19.3835 19.9269 13.3332V3.4247C19.9269 3.4247 18.63 3.87508 16.9478 3.87508C15.3959 3.87508 13.5238 3.48981 12.0479 2.01385L12.0533 2.01928Z" fill="#4C65AF"/>
<path d="M15.5661 18.8683C15.5661 18.8683 15.5118 19.1179 15.094 19.2101C15.2079 19.2698 15.3165 19.3729 15.3165 19.3729C15.3165 19.3729 15.1157 19.6551 14.6273 19.6551C13.9816 19.6551 13.5855 19.0962 13.5855 19.0962C13.5855 19.0962 13.8785 19.2373 14.1606 19.2156C13.0591 18.5373 13.6668 17.2512 13.6668 17.2512C13.6668 17.2512 13.5909 18.1303 13.9436 18.5698C14.4428 19.183 15.3653 18.9551 15.5661 18.8629V18.8683ZM16.5211 15.504C15.8862 15.2489 15.2134 15.4171 15.2134 15.4171C15.1482 15.8512 15.0289 16.4319 15.0289 16.4319C15.0289 16.4319 15.4901 15.9815 15.6312 15.4985L15.7017 15.6613C15.7017 15.6613 15.9839 15.4877 16.2661 15.6885L16.38 15.6016L16.4071 16.4427C16.4071 16.4427 17.0746 15.7264 16.5265 15.504H16.5211ZM15.8537 18.0109C15.7071 18.3908 15.3002 18.5373 15.3002 18.5373L15.2839 18.6187C15.0723 18.5373 14.8769 18.5644 14.7575 18.6024C14.9475 18.3311 14.8986 17.897 14.8986 17.897C14.8986 17.897 14.7141 18.3636 14.1498 18.6078C14.1498 18.6078 14.5025 18.8954 14.9963 18.89C15.2568 18.89 15.463 18.8194 15.6149 18.6838C15.8591 18.4613 15.8754 18.1032 15.8537 18.0163V18.0109ZM10.5142 12.3241C10.3242 12.1939 10.0258 12.0799 9.89555 12.0474C11.1653 11.7652 12.701 12.1559 12.701 12.1559C12.701 12.1559 11.6591 11.3962 10.3242 11.3962C8.43045 11.3962 7.47541 12.5249 7.47541 12.5249C7.47541 12.5249 7.95293 12.1668 9.1847 12.1179C7.05216 12.7854 6.62891 14.7009 6.62891 14.7009C6.62891 14.7009 7.84983 12.4272 10.5196 12.3187L10.5142 12.3241ZM14.1118 17.1807C14.0792 17.7016 14.3668 17.9838 14.3668 17.9838C14.3668 17.9838 14.3072 17.2078 14.7521 16.345C14.5134 16.345 14.1389 16.6652 14.1118 17.1861V17.1807ZM12.9669 12.0365C12.9669 12.0365 13.8622 12.004 14.4103 12.3458C14.4103 12.3458 13.7754 11.1955 12.7986 10.9133C12.7986 10.9133 13.3087 11.2823 13.4335 11.6513C12.8529 11.1195 12.2072 10.8699 11.632 10.7885C10.5847 10.642 9.79245 10.9296 9.79245 10.9296C9.79245 10.9296 10.7312 10.9241 11.5831 11.2117C12.5545 11.5427 12.9669 12.0365 12.9669 12.0365ZM17.1234 14.7714C17.1234 14.7714 16.8467 15.097 16.7599 15.3466L16.749 15.3846H16.787C16.787 15.3846 16.787 15.3846 16.7924 15.3846C16.8304 15.3846 17.004 15.3683 17.0909 15.0861L17.2102 14.6629L17.118 14.766L17.1234 14.7714ZM10.3622 15.3412C10.3622 15.3412 9.71106 15.7481 9.30408 16.5946C9.24439 15.9381 9.72734 14.8365 9.72734 14.8365C7.88239 17.0613 8.90254 19.1559 8.90254 19.1559C8.90254 19.1559 8.92967 18.3582 9.09788 17.8047C9.20641 18.9822 9.97152 19.8233 9.97152 19.8233C9.97152 19.8233 8.98936 17.6853 10.3568 15.3466L10.3622 15.3412ZM11.9413 16.3613C11.9413 16.3613 11.4095 17.1047 11.3172 17.9458C11.1273 17.1644 11.4746 15.9978 11.4746 15.9978C11.4746 15.9978 10.818 16.6381 10.6986 17.4846C10.5467 16.1931 11.1599 15.1784 11.1599 15.1784C11.1599 15.1784 10.2211 15.9001 10.1397 17.6745C10.0746 19.1179 10.7475 20.1977 10.7475 20.1977C10.7475 20.1977 10.6607 19.3349 10.6932 18.8466C11.0622 20.2032 11.9847 20.6644 11.9847 20.6644C11.9847 20.6644 11.5397 20.1001 11.4204 18.9063C11.5777 19.3675 12.0607 19.9861 12.5436 20.2411C11.3335 18.5807 11.9359 16.3613 11.9359 16.3613H11.9413ZM9.45602 14.283L9.53199 14.1908C9.53199 14.1908 8.82114 14.4241 8.18626 15.2001C8.40331 14.5761 9.08703 13.8978 9.08703 13.8978C9.08703 13.8978 8.49014 14.0768 7.91495 14.614C8.2568 13.8109 9.58083 12.9265 9.58083 12.9265C9.58083 12.9265 8.30564 13.29 7.54053 14.2016C6.62348 15.2978 6.65061 16.3071 6.65061 16.3071C6.65061 16.3071 6.9165 15.7481 7.32348 15.4063C6.93821 16.2799 7.14441 17.2512 7.22038 17.5388L7.25836 17.6799L7.28007 17.5334C7.36689 16.9908 7.56223 16.2636 7.82812 15.7753C7.73045 16.4047 7.70874 17.7993 8.03975 18.4016L8.132 18.5698L8.09401 18.3799C8.09401 18.3799 7.7413 16.4481 9.45602 14.2722V14.283ZM11.1653 13.2249C11.1653 13.2249 10.4219 12.6497 9.93354 12.8885C9.77617 12.9699 9.62966 13.0947 9.64594 13.3768C9.66222 13.6807 10.0258 14.0443 10.6986 13.8761C10.6986 13.8761 10.0746 13.9249 9.93354 13.4962C9.83586 13.2086 10.1343 13.0947 10.1343 13.0947C10.1343 13.0947 10.2645 13.5396 10.7692 13.5559C10.818 13.5559 10.9266 13.5559 11.0188 13.5016C10.9428 13.3389 10.8289 13.2629 10.7909 13.2358C10.8777 13.2195 11.0514 13.1978 11.1653 13.2249ZM13.7754 16.6001L13.7537 16.7357L14.4699 15.6559C14.4699 15.6559 13.8948 15.39 13.8785 14.9016C13.8622 14.4078 14.3072 14.2613 14.5242 14.2613C14.0467 14.5109 14.2149 14.9071 14.2149 14.9071C14.2149 14.9071 14.318 14.4133 14.9529 14.6195C14.8064 14.6466 14.5622 14.7117 14.5188 14.9668C14.4971 15.1024 14.611 15.2489 14.8715 15.2272C16.3312 15.1241 16.6947 15.39 16.6947 15.39C16.6947 15.39 16.9661 14.5381 16.0816 14.2125C16.418 14.1582 16.7327 14.2125 17.0095 14.3699L17.1777 14.4675L17.0474 14.321C16.6893 13.9195 16.0382 13.4311 15.0017 13.3877H14.9637C14.9637 13.3877 14.9583 13.3877 14.9529 13.3877C14.9529 13.3877 14.5839 13.5939 14.1986 13.2954C13.8893 13.4582 13.4715 13.2195 13.4715 13.2195C13.4715 13.2195 13.5475 13.4365 13.911 13.4528C13.5746 13.6102 13.2816 13.4637 13.1622 13.3551C12.8746 13.0892 12.9234 12.7582 12.9234 12.7582C13.3196 13.0675 13.6723 12.9047 13.7428 12.8885C14.2203 12.7799 14.394 13.1706 14.394 13.1706C14.394 13.1706 14.8606 13.3714 15.1428 12.959L15.0885 12.9156C15.0777 12.9047 14.7792 12.6551 14.2583 12.4706C13.7808 12.3024 13.0103 12.1668 12.0824 12.4706C11.9684 12.5032 11.3878 12.6389 10.8072 12.4001L10.6769 12.3458L10.7692 12.4489C11.2413 12.9699 11.8219 12.921 12.1149 12.8559C11.887 13.2249 11.2413 13.3823 11.2413 13.3823C11.2413 13.3823 11.5343 13.621 11.9793 13.4962C11.5126 13.8761 11.4583 14.3753 11.6157 14.7063C11.849 15.1838 12.3428 15.2055 12.3428 15.2055C12.3428 15.2055 12.1258 14.6303 12.4514 14.1094C12.4188 14.3319 12.4025 14.766 12.7172 15.0699C13.3033 15.645 13.2219 16.2853 13.1948 16.4047L13.1731 16.5133L13.2436 16.4319C13.4389 16.2094 13.4769 15.8078 13.4769 15.6288C13.5855 15.7481 13.8242 16.0846 13.7482 16.6055L13.7754 16.6001Z" fill="url(#paint8_linear_487_49005)"/>
<defs>
<linearGradient id="paint0_linear_487_49005" x1="3.70313" y1="12.037" x2="20.4054" y2="12.037" gradientUnits="userSpaceOnUse">
<stop stop-color="#FFDBA7"/>
<stop offset="0.13" stop-color="#C4B296"/>
<stop offset="0.25" stop-color="#FFE7C4"/>
<stop offset="0.5" stop-color="#C29977"/>
<stop offset="0.64" stop-color="#FFE7C4"/>
<stop offset="1" stop-color="#C29977"/>
</linearGradient>
<linearGradient id="paint1_linear_487_49005" x1="3.70313" y1="12.037" x2="20.4054" y2="12.037" gradientUnits="userSpaceOnUse">
<stop stop-color="#FFDBA7"/>
<stop offset="0.13" stop-color="#C4B296"/>
<stop offset="0.25" stop-color="#FFE7C4"/>
<stop offset="0.5" stop-color="#C29977"/>
<stop offset="0.64" stop-color="#FFE7C4"/>
<stop offset="1" stop-color="#C29977"/>
</linearGradient>
<linearGradient id="paint2_linear_487_49005" x1="12.9601" y1="9.87341" x2="15.798" y2="7.03544" gradientUnits="userSpaceOnUse">
<stop offset="0.06" stop-color="#FFDBA7"/>
<stop offset="0.5" stop-color="#C4B296"/>
<stop offset="1" stop-color="#FFDBA7"/>
</linearGradient>
<linearGradient id="paint3_linear_487_49005" x1="9.61498" y1="9.9548" x2="12.7351" y2="6.83467" gradientUnits="userSpaceOnUse">
<stop offset="0.06" stop-color="#FFDBA7"/>
<stop offset="0.5" stop-color="#C4B296"/>
<stop offset="1" stop-color="#FFDBA7"/>
</linearGradient>
<linearGradient id="paint4_linear_487_49005" x1="15.9716" y1="10.3563" x2="19.0537" y2="7.26877" gradientUnits="userSpaceOnUse">
<stop offset="0.06" stop-color="#FFDBA7"/>
<stop offset="0.5" stop-color="#C4B296"/>
<stop offset="1" stop-color="#FFDBA7"/>
</linearGradient>
<linearGradient id="paint5_linear_487_49005" x1="4.73231" y1="10.5951" x2="8.3788" y2="6.94862" gradientUnits="userSpaceOnUse">
<stop offset="0.06" stop-color="#FFDBA7"/>
<stop offset="0.5" stop-color="#C4B296"/>
<stop offset="1" stop-color="#FFDBA7"/>
</linearGradient>
<linearGradient id="paint6_linear_487_49005" x1="7.71407" y1="9.66093" x2="10.0745" y2="7.29505" gradientUnits="userSpaceOnUse">
<stop offset="0.06" stop-color="#FFDBA7"/>
<stop offset="0.5" stop-color="#C4B296"/>
<stop offset="1" stop-color="#FFDBA7"/>
</linearGradient>
<linearGradient id="paint7_linear_487_49005" x1="8.25152" y1="5.50313" x2="15.8375" y2="5.50313" gradientUnits="userSpaceOnUse">
<stop stop-color="#FFDBA7"/>
<stop offset="0.13" stop-color="#C4B296"/>
<stop offset="0.25" stop-color="#FFE7C4"/>
<stop offset="0.5" stop-color="#C29977"/>
<stop offset="0.64" stop-color="#FFE7C4"/>
<stop offset="1" stop-color="#C29977"/>
</linearGradient>
<linearGradient id="paint8_linear_487_49005" x1="6.62348" y1="15.7102" x2="17.2102" y2="15.7102" gradientUnits="userSpaceOnUse">
<stop stop-color="#FFDBA7"/>
<stop offset="0.13" stop-color="#C4B296"/>
<stop offset="0.25" stop-color="#FFE7C4"/>
<stop offset="0.5" stop-color="#C29977"/>
<stop offset="0.64" stop-color="#FFE7C4"/>
<stop offset="1" stop-color="#C29977"/>
</linearGradient>
</defs>
</svg>
