<svg width="24" height="24" viewBox="0 0 24 24" fill="none" xmlns="http://www.w3.org/2000/svg">
<g clip-path="url(#clip0_487_48716)">
<path fill-rule="evenodd" clip-rule="evenodd" d="M5.72773 17.9511H6.65925V20.8754H5.72773V17.9511ZM14.8478 20.5723C14.8438 20.5746 14.8391 20.5772 14.8351 20.5792C14.8082 20.5937 14.7809 20.6082 14.7537 20.6212C14.6695 20.6632 14.5826 20.7008 14.4937 20.7341C14.3043 20.8051 14.1077 20.8592 13.9053 20.8951C13.7098 20.9293 13.5109 20.9472 13.3068 20.9472C13.2975 20.9472 13.2882 20.9472 13.2793 20.9472C13.0606 20.9472 12.853 20.9325 12.6576 20.9032C12.4612 20.8757 12.278 20.8343 12.1077 20.779C11.938 20.7237 11.7805 20.6574 11.6343 20.5806C11.4886 20.5042 11.3548 20.4182 11.2329 20.3218C11.1264 20.2375 11.0282 20.1475 10.9387 20.0519L10.8985 20.0076C10.798 19.8955 10.7079 19.7754 10.6295 19.6485C10.5507 19.5214 10.4815 19.3882 10.4216 19.2484C10.3622 19.1105 10.3135 18.9689 10.275 18.8244C10.2371 18.68 10.2081 18.534 10.1887 18.3869C10.1841 18.3545 10.1804 18.3206 10.1769 18.2876C10.1754 18.2749 10.1746 18.2618 10.1734 18.2491C10.1714 18.2265 10.1691 18.2039 10.167 18.1813C10.1638 18.1373 10.1612 18.093 10.1595 18.0484C10.1578 18.0044 10.1566 17.9607 10.1563 17.9167C10.1563 17.897 10.1578 17.8779 10.1581 17.8582C10.1595 17.7218 10.1676 17.5866 10.185 17.4528C10.2047 17.3013 10.2345 17.1508 10.275 16.9993C10.297 16.9148 10.324 16.832 10.3535 16.75C10.3758 16.6878 10.3993 16.6258 10.4253 16.565C10.4705 16.4613 10.5209 16.36 10.5771 16.2609C10.595 16.2285 10.6141 16.1972 10.6338 16.1654C10.6358 16.1628 10.6379 16.1596 10.6399 16.157V16.1552C10.6561 16.1295 10.6732 16.104 10.6906 16.0782C10.7589 15.9757 10.8336 15.879 10.9153 15.7863C11.0166 15.6728 11.1304 15.5648 11.2558 15.4629C11.3789 15.363 11.5132 15.2732 11.6592 15.1948C11.8057 15.116 11.9629 15.0485 12.1303 14.9918C12.2982 14.9347 12.4775 14.8904 12.6686 14.8618C12.862 14.8322 13.0653 14.8169 13.279 14.816C13.4805 14.816 13.6771 14.8363 13.8688 14.8728C14.0625 14.9104 14.2502 14.9663 14.4326 15.0407C14.476 15.059 14.5212 15.0786 14.5667 15.1004C14.5881 15.1108 14.6089 15.1206 14.6295 15.1302V16.1205L14.6084 16.1054C14.5316 16.0484 14.4503 15.9971 14.3643 15.952V15.9502C14.28 15.9065 14.1937 15.8677 14.1051 15.8341C14.0174 15.8017 13.9273 15.7727 13.8352 15.751H13.8344C13.7426 15.7287 13.6514 15.7134 13.5584 15.7029C13.4655 15.6914 13.3722 15.6867 13.2796 15.6867H13.279C13.1261 15.6876 12.981 15.6992 12.8446 15.7194C12.7065 15.7417 12.5777 15.7727 12.4575 15.815C12.3364 15.8573 12.2235 15.9071 12.119 15.9659C12.0124 16.0249 11.916 16.0904 11.8271 16.1648V16.1654C11.7382 16.2404 11.6574 16.3191 11.5853 16.404C11.5132 16.4882 11.4484 16.5777 11.3916 16.6727H11.391C11.3346 16.7677 11.2859 16.8655 11.2445 16.9675C11.2022 17.0688 11.1681 17.1725 11.1417 17.2785C11.1148 17.3844 11.0951 17.4898 11.0821 17.597C11.0693 17.7015 11.0635 17.8084 11.0641 17.9175C11.0653 18.0235 11.0716 18.1286 11.0858 18.2332C11.0986 18.3403 11.1191 18.4448 11.1443 18.5468C11.1663 18.6348 11.1947 18.719 11.2268 18.8021C11.2332 18.8187 11.2387 18.8354 11.2454 18.852C11.2859 18.9481 11.3328 19.0407 11.3861 19.1317C11.3873 19.1337 11.3881 19.1357 11.3893 19.1378C11.4452 19.2307 11.5086 19.3187 11.5804 19.4021C11.6513 19.4841 11.7301 19.5608 11.8178 19.6332C11.9064 19.7056 12.0026 19.7702 12.1071 19.826C12.2111 19.8816 12.3243 19.9297 12.4468 19.9702C12.5687 20.0117 12.699 20.0418 12.8377 20.0632C12.9746 20.0832 13.1215 20.093 13.279 20.0942H13.2796C13.3713 20.0942 13.4666 20.0881 13.5636 20.0751C13.6598 20.0629 13.7565 20.0441 13.8532 20.0198C13.9511 19.9934 14.0452 19.9633 14.1372 19.9268C14.2302 19.8903 14.3211 19.8486 14.4106 19.8003C14.4983 19.7528 14.5837 19.6992 14.6637 19.6399C14.6944 19.6176 14.7248 19.5938 14.754 19.5704C14.7708 19.5565 14.787 19.5423 14.8032 19.5278L14.8354 19.564L14.8481 19.5785L14.9167 19.6569L15.3876 20.1967C15.2651 20.3027 15.1383 20.3979 15.0059 20.4807C14.9761 20.4993 14.9466 20.5169 14.9167 20.534C14.8939 20.5474 14.871 20.5598 14.8481 20.5723H14.8478ZM9.14719 18.8421L10.9037 20.8554L9.71994 20.8748L7.96577 18.8615L7.17439 17.9534H8.55242C8.6474 17.9534 8.73687 17.9462 8.81882 17.9314C8.90395 17.9164 8.98242 17.8935 9.05482 17.8637C9.12026 17.8359 9.18049 17.8034 9.23637 17.767C9.24072 17.7641 9.24535 17.7617 9.24969 17.7588C9.28473 17.7342 9.31745 17.7073 9.34814 17.6792C9.36841 17.6607 9.38839 17.6422 9.40664 17.6216C9.45355 17.5701 9.49408 17.5162 9.52796 17.46C9.56184 17.4036 9.58993 17.3445 9.61223 17.2816V17.2805C9.63336 17.2177 9.65016 17.1542 9.65971 17.0894C9.67101 17.0248 9.67651 16.9599 9.67651 16.8954C9.67651 16.8308 9.6713 16.7642 9.65971 16.6993C9.64929 16.635 9.6325 16.5713 9.61078 16.5091H9.6102C9.58761 16.4445 9.55953 16.3854 9.52536 16.329C9.4909 16.2725 9.45065 16.2189 9.40461 16.168C9.3577 16.1179 9.30471 16.0716 9.24564 16.031C9.18628 15.9911 9.1217 15.9563 9.05192 15.9271C8.98127 15.897 8.90308 15.8744 8.81766 15.8593C8.73427 15.8443 8.64566 15.8367 8.55271 15.8367H8.13226H8.09491H5.72773L5.265 15.3051L4.92969 14.92H5.265H6.93144H7.58094H7.74251H8.55271C8.72645 14.92 8.8889 14.9342 9.03918 14.962C9.19439 14.9897 9.33946 15.0312 9.47352 15.0856C9.60528 15.1389 9.72689 15.2011 9.83693 15.2729C9.94696 15.3442 10.046 15.425 10.134 15.5156H10.1346C10.2235 15.6062 10.3011 15.7032 10.3683 15.8063C10.4114 15.8735 10.4491 15.9444 10.4838 16.0171C10.4777 16.0267 10.4714 16.0357 10.4653 16.0452L10.4337 16.0956V16.097C10.421 16.1182 10.4085 16.1396 10.3967 16.161C10.339 16.2624 10.2846 16.3713 10.2362 16.4822C10.1705 16.6342 10.1166 16.7903 10.0755 16.946L10.0689 16.9718C10.0298 17.1233 10.0002 17.2759 9.98055 17.4258C9.96694 17.5298 9.9597 17.6355 9.95536 17.7418C9.95275 17.8003 9.95015 17.8587 9.95044 17.9175C9.95044 17.9471 9.95159 17.9772 9.95246 18.0073C9.9542 18.0698 9.95681 18.133 9.96144 18.1964C9.96434 18.2352 9.96752 18.2734 9.97215 18.3113C9.97447 18.3339 9.97766 18.3591 9.98084 18.3837C9.95304 18.4043 9.92524 18.4248 9.89513 18.4437H9.89455C9.79957 18.5045 9.69417 18.5575 9.57719 18.6026C9.46049 18.6481 9.33164 18.6852 9.19062 18.7147L9.03165 18.7353L9.14777 18.8418L9.14719 18.8421ZM18.6906 19.4334C18.6701 19.4985 18.6388 19.5579 18.5983 19.6112C18.5598 19.6616 18.5152 19.7067 18.4642 19.7476C18.4144 19.7875 18.3591 19.8223 18.2994 19.8504C18.2407 19.8776 18.1798 19.9013 18.1176 19.9207C18.0545 19.941 17.9899 19.9563 17.9244 19.9679C17.8581 19.9795 17.7941 19.9873 17.7322 19.9931C17.6691 19.998 17.608 20.0015 17.548 20.0015H15.7802V18.2407H17.548C17.6088 18.2407 17.6717 18.2447 17.7362 18.254C17.7999 18.2633 17.8645 18.2772 17.9308 18.2943C17.9971 18.3128 18.0626 18.3354 18.1263 18.3623C18.1877 18.3889 18.2488 18.4208 18.307 18.4555C18.3669 18.492 18.4216 18.5329 18.47 18.578C18.5192 18.6241 18.5624 18.6736 18.6009 18.7286C18.6391 18.783 18.6675 18.8609 18.6877 18.9443C18.7109 19.0405 18.7225 19.1435 18.7225 19.22C18.7225 19.297 18.7121 19.368 18.6912 19.4328L18.6906 19.4334ZM15.7799 15.769H17.5477L17.5486 15.7695C17.641 15.7704 17.7255 15.7774 17.8023 15.7901C17.8813 15.804 17.9528 15.8234 18.0183 15.8506C18.0823 15.877 18.1402 15.9065 18.1911 15.9398C18.243 15.9746 18.289 16.0122 18.3281 16.0542C18.3666 16.0953 18.3999 16.1376 18.4274 16.1807C18.4561 16.2242 18.4787 16.2696 18.4963 16.3157C18.5117 16.3571 18.523 16.4115 18.5308 16.4648C18.5412 16.5337 18.5456 16.6055 18.5456 16.6475C18.5456 16.7147 18.5372 16.801 18.5198 16.8823C18.5047 16.9524 18.4819 17.0199 18.4506 17.0706C18.4173 17.1256 18.3724 17.1748 18.3171 17.2194C18.2629 17.262 18.1992 17.2993 18.1266 17.3303C18.0533 17.3619 17.9661 17.3865 17.8677 17.4024C17.7716 17.4177 17.665 17.4261 17.5477 17.4261H15.817H15.7799V15.769ZM19.6471 19.0069C19.6392 18.9394 19.6282 18.8711 19.6143 18.8198C19.599 18.7599 19.5781 18.7005 19.5532 18.6406C19.5269 18.5789 19.4965 18.5178 19.4623 18.4561C19.4308 18.4011 19.3951 18.3487 19.3546 18.298C19.3506 18.2928 19.3471 18.2876 19.343 18.2827C19.2967 18.2268 19.2449 18.1735 19.1884 18.1237C19.1334 18.0748 19.0717 18.0319 19.0037 17.9943C18.9356 17.9578 18.8612 17.9251 18.7798 17.8999L18.5864 17.8385L18.7714 17.7545C18.8577 17.7151 18.9359 17.6714 19.0054 17.6236C19.0734 17.5767 19.134 17.5257 19.1855 17.4704C19.2379 17.4151 19.2834 17.3569 19.3219 17.2961C19.334 17.277 19.3442 17.257 19.3549 17.2373C19.3778 17.1951 19.3986 17.1519 19.4145 17.1065C19.4368 17.0459 19.4539 16.9678 19.4667 16.8867C19.4806 16.7937 19.4875 16.6988 19.4872 16.6229C19.4861 16.4732 19.4725 16.3142 19.4458 16.1662C19.4238 16.0467 19.3934 15.9358 19.3549 15.8437C19.3506 15.8332 19.3465 15.8222 19.3422 15.8124C19.295 15.7111 19.2379 15.6184 19.1719 15.535C19.105 15.4516 19.0288 15.3781 18.9431 15.3115C18.856 15.2454 18.7624 15.1878 18.6599 15.1389C18.5569 15.0894 18.4471 15.0485 18.3298 15.0164C18.2129 14.9842 18.0881 14.9605 17.9575 14.9446C17.8269 14.9286 17.6908 14.9208 17.5486 14.9208H17.3783H17.2246H14.8484V19.2675L15.6795 20.2172C15.6795 20.2172 15.3563 20.5172 15.1151 20.6562C15.0827 20.6748 15.0517 20.6947 15.0213 20.7121C14.992 20.7292 14.9631 20.7451 14.9341 20.7608C14.9052 20.7764 14.8756 20.7917 14.8487 20.8048V20.8754H17.5486C17.7 20.8754 17.8451 20.8682 17.9835 20.8543C18.1219 20.8398 18.2569 20.819 18.3866 20.7906C18.5146 20.7622 18.6339 20.726 18.7451 20.6797C18.8566 20.6339 18.9614 20.5792 19.0566 20.5161C19.1516 20.453 19.2365 20.3803 19.3094 20.2966C19.3259 20.2781 19.3401 20.2566 19.3555 20.2369C19.409 20.1686 19.4583 20.0956 19.5 20.0137C19.5541 19.9089 19.5944 19.791 19.6213 19.6619C19.6491 19.5295 19.6624 19.3859 19.6636 19.229C19.6636 19.1797 19.6586 19.0946 19.6482 19.0069H19.6471Z" fill="url(#paint0_linear_487_48716)"/>
<path fill-rule="evenodd" clip-rule="evenodd" d="M15.3761 7.32168C15.2808 7.19427 15.2009 6.98665 15.2394 6.94351C16.137 5.93901 16.38 5.40013 16.3884 5.46181C16.3276 5.8727 16.0832 6.31979 15.8513 6.65539C15.522 7.13172 15.571 7.42331 15.5432 7.43721C15.5374 7.44011 15.5313 7.44156 15.5249 7.44156C15.4728 7.44156 15.4021 7.35614 15.3764 7.32168M10.7607 5.62686C10.836 5.5174 10.818 5.43111 10.8134 5.29068C10.8047 5.02601 11.2249 4.67304 11.2614 4.70547C11.2706 4.71386 11.0549 4.95275 11.0535 5.22089C11.0526 5.43546 11.0509 5.62367 10.9669 5.82521C10.7761 6.28272 10.9211 6.36612 10.8977 6.41679C10.887 6.43996 10.882 6.44343 10.8563 6.44488H10.8554C10.8088 6.44488 10.302 6.29401 10.761 5.62657L10.7607 5.62686ZM11.3332 4.09449C11.3364 4.09333 11.3358 4.09536 11.3381 4.09709C11.3364 4.09622 11.3349 4.09536 11.3332 4.09449ZM9.52544 4.34322C9.21589 4.32759 9.07922 4.18889 9.00914 3.91264C9.0019 3.88369 8.92054 3.64335 8.95992 3.64914C8.96745 3.6503 9.35401 4.08754 9.93198 4.15732C10.0052 4.1663 9.76751 4.34351 9.54571 4.34351C9.53905 4.34351 9.5321 4.34351 9.52544 4.34293V4.34322ZM11.0853 1.89872C11.1325 1.89872 11.171 1.95837 11.171 2.03221C11.171 2.10605 11.1328 2.1657 11.0853 2.1657C11.0378 2.1657 10.9996 2.10605 10.9996 2.03221C10.9996 1.95837 11.0378 1.89872 11.0853 1.89872ZM10.1587 3.11113C10.7665 2.87832 11.3946 2.88556 12.0412 3.11113C11.6647 2.86616 11.3517 2.80506 11.0995 2.80332C10.8476 2.80158 10.4529 2.87861 10.1584 3.11113H10.1587ZM6.11727 7.1074C6.07123 6.99708 5.96727 6.90876 5.87172 6.7938C5.52308 6.3748 4.88344 5.85619 5.78977 4.73211C5.35745 6.38407 6.5991 7.12796 6.66049 7.83247C6.6712 7.95553 6.57912 7.80467 6.53424 7.75487C6.04488 7.21222 5.63399 7.37988 5.40205 7.54783C5.28651 7.63122 5.21528 7.71491 5.2008 7.71056C5.12957 7.68971 5.25466 7.12564 5.90936 7.14562C5.96467 7.14649 6.04227 7.174 6.08831 7.174C6.12219 7.174 6.13899 7.15894 6.11727 7.10711V7.1074ZM5.2619 4.99677C4.84637 5.4815 4.89589 6.2529 5.24452 6.61572C5.29954 6.67305 5.38844 6.73821 5.34906 6.79264C5.32242 6.82942 4.73808 6.89486 4.67234 7.4986C4.62312 7.94945 5.00361 8.442 5.09337 8.442C5.15244 8.442 5.18285 8.10379 5.38409 7.93295C5.63225 7.72243 6.04893 7.70072 6.28724 7.93787C6.94368 8.5917 6.22557 10.8604 6.05183 11.2959C5.62125 10.7351 5.1397 10.998 4.99579 11.4665C4.90631 11.7575 4.98913 12.2692 5.06441 12.235C5.10756 12.0219 5.38844 11.4355 5.82047 12.1148C5.86564 12.1858 5.98291 12.5083 5.88069 12.4956C5.22338 12.4145 5.08584 12.8518 5.05804 13.0133C5.03053 13.1735 5.15186 12.9439 5.48776 12.9323C5.9334 12.9169 5.9803 13.2256 6.09266 13.6119C6.23483 14.0995 6.74273 14.9404 8.28176 14.6387C8.38426 14.6187 8.39527 14.6031 8.38948 14.4904C8.38629 14.4244 8.27539 13.6701 8.1752 13.6863C6.65267 13.9342 6.51918 12.9366 6.44332 12.5871C6.3162 11.9999 6.38425 10.5448 7.47996 10.718C7.61229 10.7388 7.66875 10.8558 7.68033 10.6847C7.70437 10.332 7.53787 10.0497 7.15159 10.0578C7.03808 10.0601 6.96714 10.1131 6.98249 10.0725C7.51441 8.65802 7.50544 7.44214 7.30101 6.73473C6.81367 5.04657 7.5593 4.95681 7.55553 4.82042C7.49472 4.73906 6.91646 4.96579 6.73085 5.15516C6.35442 5.5397 6.3052 6.12636 6.32865 6.19238C5.98986 5.23189 6.46098 5.09812 6.33184 4.3354C6.28261 4.04381 6.07268 3.78031 6.01592 3.76815C6.00955 3.7667 6.00434 3.76612 6.00028 3.76612C5.93224 3.76612 6.13928 3.97229 5.26103 4.99677H5.2619ZM12.8713 11.0432C13.1265 11.2907 14.2879 12.0419 14.5983 12.173C14.7396 12.2327 15.3932 12.4536 15.4852 12.4733C15.1679 12.4406 14.4799 12.4003 14.2259 12.3485C14.148 12.3326 14.126 12.3184 14.1194 12.3867C14.1147 12.4365 14.0933 12.515 14.0545 12.5755C13.9896 12.6766 13.8848 12.7831 13.8944 12.6236C13.9077 12.4015 13.5799 11.9275 13.5226 11.9284C13.4942 12.1038 13.2272 12.4704 13.2292 12.3989C13.2518 11.5797 12.7425 11.3275 12.7216 11.3119C12.7144 11.3064 12.7686 11.5864 12.5772 11.8429C12.4787 11.975 12.4978 11.8936 12.5256 11.6921C12.6015 11.1431 12.0548 10.6094 12.0545 10.6097C12.0889 10.5654 12.5809 10.7626 12.8705 11.0437L12.8713 11.0432ZM14.6429 10.5463C14.6429 10.5463 14.6426 10.5457 14.6423 10.5457C14.6423 10.546 14.6426 10.5463 14.6429 10.5463ZM13.3622 9.57304C13.5918 9.75257 14.422 10.2469 14.6423 10.5454C14.6241 10.5141 14.38 9.52787 14.1034 9.16938C14.0742 9.13145 13.8324 8.86274 13.8101 8.86998C13.9882 8.81235 14.2902 8.96466 14.4147 9.0831C14.5757 9.23656 14.6339 9.47603 14.6887 9.68336C14.9073 10.5095 15.6251 10.5202 15.6425 10.484C15.6491 10.4698 15.255 10.2677 15.2828 9.54727C15.295 9.22904 15.0799 8.84652 14.7732 8.66236C14.2474 8.34673 13.6025 8.3505 13.0966 8.35397C12.8435 8.35571 12.6255 8.35745 12.4746 8.31951C12.88 8.79527 13.0517 9.3298 13.3622 9.57304ZM11.6042 5.61383C11.568 5.7062 11.5903 5.69404 11.6164 5.68767C11.9039 5.60717 12.0209 5.67666 12.1981 5.75485C12.6073 5.93496 12.9012 5.84635 13.0529 5.54868C12.9296 5.54868 12.7494 5.78612 12.2329 5.37957C12.1483 5.31297 12.0638 5.28199 11.9841 5.28199C11.8254 5.28199 11.6859 5.40476 11.6039 5.61383H11.6042ZM13.8944 8.15591L13.8672 8.15388L13.9097 8.14491C14.0004 8.09829 14.448 7.9981 14.6678 7.99433C15.2339 7.99433 15.6069 8.42607 15.8582 8.87779C16.1208 9.34949 16.53 9.39409 16.6383 9.39756C16.6464 9.39756 16.6487 9.40741 16.6423 9.41233C16.5865 9.45808 16.4877 9.55682 16.3131 9.60894C15.7065 9.78992 15.4896 9.09844 15.2148 8.7194C14.8163 8.16981 13.9184 8.20224 13.8938 8.16054C13.8929 8.1591 13.8932 8.15736 13.8944 8.15562V8.15591ZM11.136 7.63846C11.1403 7.63064 11.1444 7.62369 11.1487 7.6179C11.1618 7.59618 11.1736 7.57534 11.1843 7.55507C11.2043 7.51771 11.3798 7.71375 11.4785 8.0618C11.5851 7.57273 11.471 7.39117 11.2339 7.19369C11.1774 7.14678 11.2226 7.37177 10.6484 7.90573C10.4101 7.62109 10.4868 7.09176 10.4497 7.05875C10.4587 7.06686 10.21 7.47109 9.84743 7.63788C9.32911 7.87648 9.26135 8.08613 9.23587 8.04066C9.05837 7.7233 9.24485 7.4181 9.33867 7.17892C9.39832 7.02748 9.76346 6.33195 9.73537 6.27461C9.66645 6.32905 9.05461 6.65481 9.0659 6.56099C9.17188 5.68767 9.77388 5.7366 9.85757 5.12244C9.86104 5.09754 9.5625 5.31008 9.52225 5.33353C9.35749 5.4288 9.33722 5.46239 9.38152 5.27938C9.48142 4.86675 9.88102 4.58501 9.8234 4.58906C9.02102 4.64263 9.2211 5.45631 8.43233 5.71633C8.44768 5.75977 8.52355 5.7699 8.59796 5.7699C8.65501 5.7699 8.71147 5.76382 8.73869 5.76267C8.79834 5.75977 8.966 5.75687 9.02044 5.7589C8.4387 6.40347 8.68976 6.85866 8.38137 7.3211C8.34431 7.37669 8.71205 7.22873 8.84959 7.1103C8.92778 7.04283 9.00538 7.02314 8.91561 7.18819C8.57393 7.81857 8.39064 8.50715 8.98135 9.2994C8.99177 9.3133 9.00943 9.31532 9.01291 9.29853C9.04939 9.12016 9.19997 8.59257 9.8066 8.12377C9.8651 8.07831 10.2068 7.81249 10.2273 7.8177C10.2844 7.83189 10.1781 8.0508 10.565 8.37598C10.6628 8.45822 10.6171 8.33573 10.6875 8.24307C10.7975 8.09829 11.0089 7.84202 11.1351 7.63846H11.136ZM11.8243 14.8964C11.729 14.6146 11.6213 14.4331 11.5906 14.3618C11.3303 13.7532 12.3774 13.7729 12.9521 13.373C12.9715 13.3594 12.9875 13.3536 13.0014 13.3536C13.0433 13.3536 13.0671 13.4074 13.1157 13.4685C13.5272 13.9814 14.056 14.3697 14.649 14.6691V14.9219C14.6024 14.8996 14.5549 14.879 14.5077 14.859C14.3125 14.7794 14.111 14.7195 13.9054 14.6792C13.6986 14.6395 13.4884 14.619 13.2782 14.6187C13.0636 14.6193 12.8496 14.634 12.638 14.6665C12.4437 14.6957 12.252 14.7415 12.0658 14.8049C11.9841 14.8327 11.9033 14.8631 11.824 14.8967L11.8243 14.8964ZM9.39224 14.8469C9.56453 14.3039 9.47853 13.759 9.4626 13.5936C9.37284 12.6641 10.3397 12.7235 10.9023 11.117C10.4746 11.9677 8.77547 12.3586 8.97295 13.6854C9.03202 14.0821 9.0853 14.4145 9.01204 14.7577C8.88174 14.7371 8.74969 14.7264 8.61765 14.7238C8.66051 14.2556 8.52615 13.7283 8.5554 13.2968C8.64574 11.9628 11.1143 11.6237 10.8962 9.98827C10.8948 9.97698 10.9069 9.968 10.9179 9.97206C11.4751 10.1736 11.6705 10.6838 11.6957 10.6847C11.7073 10.685 11.751 10.6337 11.7994 10.5408H11.7988L11.8003 10.539C11.9059 10.3343 12.0328 9.93036 11.8915 9.43578C11.8813 9.40046 12.4938 9.74098 12.6186 9.88142C12.719 9.99464 12.794 10.2072 12.8068 9.98335C12.8131 9.87071 12.8647 9.6628 12.8143 9.34515C12.8905 9.39177 13.0804 9.77255 13.2883 9.9735C13.5304 10.2075 14.7657 10.8326 15.4013 11.4732C15.5831 11.6564 15.8979 11.6851 16.1527 11.6153C16.5256 11.5134 16.5659 10.7924 17.3605 10.8147C17.4117 10.8161 17.4673 10.8115 17.5241 10.8069C17.721 10.7907 17.9323 10.7744 18.0178 11.013C18.054 11.1138 17.9929 11.1011 17.917 11.0883C17.8878 11.0834 17.8562 11.0785 17.8275 11.0802C17.688 11.088 17.6112 11.1459 17.6051 11.2765C17.5901 11.5994 17.0107 11.7398 17.0081 11.7859C17.046 11.7978 17.1279 11.7943 17.2307 11.7905C17.4737 11.7821 17.833 11.7734 18.0021 11.9715C18.0545 12.0329 18.0574 12.1102 18.0974 12.1774C18.3566 12.6143 18.221 12.8515 18.1993 12.8402C18.1017 12.7881 18.131 12.6036 17.9908 12.5694C17.9361 12.5561 17.8779 12.5802 17.8197 12.6042C17.7517 12.6323 17.6839 12.6601 17.6216 12.6288C17.2623 12.4467 16.9252 12.5026 16.8534 12.5732C16.9009 12.6193 17.2519 12.7339 17.3332 12.7999C17.4795 12.9181 17.5753 13.1225 17.4592 13.4051C17.4004 13.5487 17.4392 13.6391 17.3387 13.7642C17.211 13.9232 17.1998 13.867 17.2426 13.7176C17.2527 13.6822 17.2073 13.6521 17.1468 13.5311C17.1071 13.4517 16.616 13.5876 16.5036 13.0475C16.38 13.1132 15.8336 13.5299 15.1919 12.8237C14.7996 12.3919 14.3533 13.0168 13.4406 13.1329C13.3926 13.139 13.6523 12.8506 13.5654 12.5266C13.533 12.4061 13.5402 12.4305 13.4644 12.4878C13.3309 12.5888 13.0445 12.7191 12.8557 12.7191C12.8102 12.7191 13.1128 12.4722 12.8682 11.8247C12.8531 11.7847 12.6414 12.2115 12.2103 12.2246C12.3264 11.4784 12.1935 11.3979 11.6604 11.1179L11.6572 11.117L11.6445 11.1138L11.6453 11.11L11.6358 11.1051C12.2436 12.0144 11.6841 12.4826 11.7684 12.5081C12.0583 12.5967 12.3061 12.515 12.472 12.4333C12.5951 12.3728 12.6733 12.3123 12.6898 12.3213C12.7477 12.3523 12.6817 12.614 12.5638 12.8124C12.3829 13.1173 12.0331 13.3437 11.6948 13.5204C11.4261 13.6605 10.9385 13.8372 11.015 14.2226C11.0428 14.3636 11.3456 14.7791 11.4606 15.0805C11.3456 15.1489 11.2356 15.2253 11.1314 15.3096C11.0517 15.3745 10.9747 15.4428 10.9014 15.5149C10.9235 15.3414 10.9113 15.1428 10.8537 14.9152C10.7969 15.2297 10.6825 15.4917 10.5406 15.7095L10.5343 15.6996C10.459 15.5838 10.3721 15.4761 10.2757 15.3776L10.2175 15.3186H10.2146C10.1309 15.2404 10.0406 15.17 9.94415 15.1078C9.81934 15.0264 9.68557 14.9589 9.54744 14.903C9.49648 14.8825 9.44523 14.8637 9.39282 14.8469H9.39224ZM8.02752 14.1849L8.02434 14.1893L8.0142 14.1838L8.01189 14.1826C7.98032 14.1817 7.92589 14.1959 7.85263 14.2098C7.66817 14.2452 7.36326 14.2805 6.99175 14.0795C6.78935 13.9701 6.48328 13.75 6.46561 13.7575C6.42797 13.7737 6.76242 14.4452 7.6479 14.4803C7.66644 14.4797 7.69192 14.48 7.72116 14.4803C7.86334 14.4811 8.09846 14.482 8.11758 14.3914C8.12974 14.3335 8.08138 14.2063 8.02984 14.1858L8.02752 14.1849ZM7.7646 5.39115V5.38536L7.76807 5.39115C7.78487 5.39347 7.82975 5.4259 7.8949 5.45833C7.98582 5.50351 8.11642 5.54868 8.26583 5.51219C8.85394 5.34222 8.78097 4.75151 9.20228 4.48829C8.71697 4.31253 8.94197 3.87992 8.66254 3.51999C8.59043 3.42907 8.44478 3.39606 8.44073 3.37492C8.43812 3.36276 8.55771 3.33583 8.73348 3.33583C9.00219 3.33583 9.40266 3.39838 9.7012 3.67143C9.89405 3.84778 9.82687 3.87297 9.97889 3.73601C10.5734 3.20031 12.1622 3.38332 12.3333 3.96737C12.395 4.00009 12.8569 4.09622 13.0587 4.09622C13.1858 4.09622 13.4027 4.13937 13.3645 4.29544C13.2767 4.65306 13.0477 4.65045 13.0627 4.71821C13.127 5.01038 12.9307 5.41142 12.8913 5.40071C12.8589 5.39202 12.8551 5.24145 12.8236 5.21973C12.5389 5.02717 12.0252 4.97563 11.7635 4.70286C11.4681 4.85054 11.5026 5.3121 11.4956 5.46268C11.4751 5.91295 11.3387 5.95001 11.365 6.00213C11.4838 6.16024 11.6879 6.23465 11.9363 6.23871C12.1764 6.24276 12.1495 6.30762 12.3823 6.27751C12.4828 6.26448 12.6281 6.12723 12.649 6.1362C12.6692 6.14489 12.6519 6.33745 12.574 6.4692C12.4958 6.60095 12.3194 6.64497 12.1495 6.62701C11.8764 6.59835 11.4305 6.54854 11.2773 6.84824C11.1757 7.04659 11.323 6.95161 11.5643 6.8604C11.8495 6.75268 12.0499 6.8161 12.2488 6.87951C12.556 6.97768 12.8592 7.07584 13.4658 6.54072C13.471 6.53609 13.48 6.53841 13.4803 6.54507C13.4858 6.68753 13.5342 7.0657 13.0095 7.30894C12.7434 7.43229 12.201 7.38046 12.062 7.49455C12.8244 7.83768 13.4699 7.33152 13.9042 7.30575C14.2109 7.2849 14.682 7.42592 14.7518 7.78266C14.697 7.70882 14.4964 7.68016 14.3412 7.69174C14.287 7.70014 14.2323 7.71288 14.1781 7.72765C13.2104 8.09858 12.6771 8.01605 12.3901 7.93324C12.2337 7.88806 12.15 7.84289 12.1092 7.87127C11.9804 7.96074 11.9772 8.22251 12.0247 8.33573C12.1283 8.58244 12.3698 8.87258 12.5187 9.44302C12.0197 9.00926 11.4409 8.9803 11.3173 8.51787C11.286 8.40146 11.2773 8.21904 11.2423 8.10263C11.2344 8.10929 11.2269 8.11595 11.22 8.1229C11.1901 8.18979 11.1299 8.33052 11.1105 8.41102C11.0219 8.7776 11.5689 9.08773 11.5703 9.93007C11.5061 9.9014 11.4461 9.87245 11.3891 9.8432C11.3413 9.82206 11.2877 9.79224 11.2321 9.75778C10.4659 9.31272 10.468 8.861 10.483 8.74459C10.4842 8.7362 10.4729 8.73214 10.4683 8.73938C10.4187 8.81293 10.3006 9.0886 10.5007 9.73635C10.6362 10.1753 10.4497 10.6215 10.448 10.601C10.4185 10.2541 9.97426 9.87997 9.815 9.42102C9.65371 8.95569 9.94675 8.61371 9.93401 8.58736C9.91403 8.54595 9.3795 8.84391 9.47766 9.50036C9.546 9.95874 9.85901 10.0925 9.99106 10.4597C10.1219 10.8242 10.0629 11.4433 9.16985 11.62C9.07285 11.6391 9.13366 11.5838 9.18983 11.5099C9.45826 11.1578 9.16348 10.5657 9.09746 10.5327C9.07893 10.5234 9.02449 10.5715 8.93096 10.6192C8.83946 10.6659 8.71031 10.7128 8.54034 10.7061C8.07588 10.6879 7.93312 10.2385 7.98727 10.2416H7.99046L7.99017 10.2358L7.99538 10.2419C8.36544 10.2608 8.51602 10.0731 8.56872 9.88519C8.62229 9.69379 8.57422 9.50238 8.55366 9.52989C8.51602 9.57999 7.85407 9.87795 7.69655 9.41494C7.69047 9.39698 7.70321 9.37758 7.72203 9.37671C8.47635 9.34689 8.19199 8.59721 8.16825 8.32907C8.13032 7.90109 8.39874 7.70796 8.37616 7.65554C8.37326 7.64888 8.32056 7.65583 8.24412 7.66278C8.01883 7.68305 7.58594 7.70332 7.60013 7.38075C8.32867 7.42158 8.08949 6.74052 8.23919 6.39797C8.29797 6.26303 8.44884 6.13012 8.48243 6.02182C8.39121 6.03601 7.67512 6.19006 7.76083 5.39579C7.76112 5.39289 7.76257 5.39115 7.76489 5.39087L7.7646 5.39115ZM11.6633 4.21726L11.661 4.21668L11.7171 4.20163C11.8168 4.1747 11.8915 4.10897 11.941 4.02152C11.9418 4.01804 11.9471 4.00472 11.9471 4.00183C11.9447 3.99951 11.9326 3.99719 11.9285 3.99633C11.7965 3.94826 11.6558 3.89961 11.5173 3.87413C11.3488 3.84286 11.1788 3.84836 11.008 3.86515C11.0315 3.90251 11.1583 3.93291 11.4148 4.14111C11.4893 4.20047 11.5744 4.22479 11.663 4.21755L11.6633 4.21726ZM10.1801 2.69358C10.1984 2.64435 10.2143 2.58036 10.2158 2.52216C10.2132 2.50768 10.2097 2.49291 10.2056 2.47872C10.1599 2.50218 10.1144 2.52534 10.0687 2.5488C9.99887 2.43123 9.95891 2.3157 9.94328 2.2019H10.13C10.1141 2.18366 10.0941 2.15644 10.0739 2.12806L9.94907 1.98907C10.0941 1.92305 10.2276 1.8854 10.3571 1.8579C10.362 1.93955 10.3669 2.02121 10.3715 2.10258C10.4251 2.06175 10.4784 2.02092 10.5317 1.98009C10.5754 2.09273 10.6116 2.23172 10.6322 2.37564C10.5612 2.3794 10.4859 2.37274 10.4153 2.3765C10.4842 2.4515 10.5464 2.55024 10.6892 2.55719C10.7969 2.5624 10.8679 2.47554 10.9049 2.35913C10.825 2.34871 10.7512 2.32062 10.6811 2.27747H10.6652L10.6707 2.27081L10.6631 2.26589C10.6802 2.21377 10.7095 2.17642 10.7419 2.14341C10.699 2.1185 10.6649 2.08347 10.6388 2.03771L10.633 2.0354L10.6362 2.03337C10.6324 2.02671 10.629 2.01947 10.6255 2.01223C10.6481 1.98154 10.684 1.95924 10.7332 1.94505C10.6915 1.90075 10.6701 1.83965 10.6516 1.77595C10.6889 1.76697 10.7387 1.76437 10.7943 1.76437C10.7636 1.69255 10.7601 1.60945 10.768 1.5414C10.8514 1.53503 10.9136 1.54748 10.966 1.56022C10.984 1.4583 11.0289 1.38822 11.0856 1.33292C11.1424 1.38822 11.187 1.4583 11.2052 1.56022C11.2576 1.54748 11.3199 1.53474 11.4033 1.5414C11.4111 1.60945 11.4079 1.69255 11.3769 1.76437C11.4325 1.76437 11.4823 1.76697 11.5197 1.77595C11.5011 1.83965 11.4797 1.90075 11.438 1.94505C11.491 1.95953 11.5252 1.9827 11.546 2.01223C11.5185 2.07044 11.4797 2.11416 11.4293 2.14341C11.4618 2.17642 11.4907 2.21348 11.5081 2.26589L11.4988 2.27197L11.5023 2.27632H11.4922C11.4218 2.32004 11.3465 2.34842 11.2663 2.35913C11.3034 2.47554 11.374 2.56269 11.482 2.55719C11.6251 2.55024 11.687 2.4515 11.7559 2.3765C11.685 2.37245 11.6097 2.3794 11.5388 2.37564C11.5593 2.23201 11.5955 2.09302 11.6393 1.98009C11.6928 2.02092 11.7461 2.06175 11.7997 2.10258C11.8046 2.02092 11.8095 1.93926 11.8141 1.8579C11.9436 1.88511 12.0771 1.92305 12.2221 1.98907L12.08 2.14775C12.0649 2.1686 12.0504 2.18771 12.0386 2.2019H12.2282C12.2126 2.3157 12.1726 2.43094 12.1028 2.5488C12.0571 2.52534 12.0116 2.50218 11.9659 2.47872C11.9566 2.51115 11.9511 2.54387 11.952 2.5763C11.9557 2.60294 11.9615 2.62929 11.9688 2.65391C11.9806 2.68142 11.9992 2.70748 12.0273 2.73209C12.0872 2.78508 12.177 2.77466 12.2809 2.72051C12.2381 2.6846 12.1955 2.64869 12.1527 2.6125C12.2158 2.60179 12.2789 2.59107 12.342 2.58036C12.3255 2.51144 12.309 2.44253 12.2925 2.37332C12.3426 2.37795 12.3996 2.38606 12.4674 2.39967C12.4752 2.34523 12.483 2.29079 12.4909 2.23636C12.5366 2.28066 12.5835 2.32062 12.6307 2.35884C12.8349 2.29919 12.9301 2.34205 13.0095 2.39967C12.7196 2.47409 12.7882 2.66491 12.6539 2.87774C12.5931 2.97387 12.45 2.9788 12.3478 3.02918C12.2786 3.09607 12.2485 3.18236 12.3038 3.31151C12.2054 3.39056 12.1515 3.46527 12.1179 3.53824C11.8622 3.37405 11.5298 3.28226 11.0859 3.29587C10.642 3.28226 10.3099 3.37405 10.0539 3.53824C10.0203 3.46527 9.96644 3.39056 9.86799 3.31151C9.9233 3.18236 9.89318 3.09607 9.82398 3.02918C9.72205 2.9788 9.57872 2.97387 9.51791 2.87774C9.38355 2.6652 9.45218 2.47409 9.16232 2.39967C9.24166 2.34234 9.33693 2.29919 9.54107 2.35884C9.58827 2.32091 9.63518 2.28066 9.68093 2.23636C9.68875 2.29079 9.69657 2.34523 9.70439 2.39967C9.77186 2.38606 9.82919 2.37795 9.87928 2.37332C9.86278 2.44224 9.84627 2.51115 9.82977 2.58036C9.89289 2.59107 9.95602 2.60179 10.0191 2.6125C9.97658 2.64841 9.93372 2.68431 9.89087 2.72051C9.99482 2.77494 10.0843 2.78508 10.1445 2.73209C10.1587 2.71964 10.1706 2.7069 10.1801 2.69358ZM16.5905 4.08088C16.3328 4.41967 16.2694 4.82737 16.1318 5.21944C15.9674 5.68825 15.6057 6.03022 15.2898 6.39971C15.1262 6.5914 14.8743 6.8882 14.7127 7.08163C14.9889 7.31386 15.0767 7.45198 15.103 7.69377C15.6807 7.75429 15.8368 8.34036 15.8588 8.31865C16.0939 8.08584 16.0247 7.5348 16.0438 7.52929C16.12 7.50816 16.2332 8.012 16.3117 8.02097C16.3985 8.03111 16.488 7.59618 16.5019 7.5209C16.563 7.19398 16.5152 6.85258 16.6971 6.55144C16.8155 6.35569 16.9745 6.37712 17.1693 6.43503C17.3382 6.48513 17.7577 6.61051 18.0615 6.1029C18.1162 6.01169 18.2911 5.72502 18.2639 5.65871C18.2494 5.64394 18.1704 5.6784 18.0933 5.71286C18.0181 5.74674 17.9442 5.78033 17.9338 5.76817C17.7473 5.54694 17.5744 5.57763 17.4459 5.60891C17.3871 5.6231 17.3376 5.63728 17.3002 5.62715C17.1609 5.5898 17.1705 5.41924 17.2275 5.31297C17.3654 5.057 17.7224 5.14416 17.9483 5.03905C18.0861 4.97505 18.1139 4.85778 18.217 4.77207C18.3183 4.6878 18.4428 4.74687 18.5448 4.7767C18.6073 4.79494 18.6053 4.77728 18.6062 4.74716C18.6073 4.7101 18.5103 4.53173 18.3441 4.4353C17.8388 4.14313 17.4369 4.40664 17.2988 4.53868C17.2643 4.5714 17.2438 4.44978 17.3095 4.32788C17.3738 4.20829 17.5209 4.0887 17.8185 4.11534C17.8429 4.09738 17.8831 3.96129 17.983 3.89845C18.0797 3.83735 18.2309 3.86313 18.2277 3.84199C18.2019 3.66796 17.9601 3.66941 17.8267 3.67057C17.7884 3.67086 17.7589 3.67143 17.7459 3.66767C17.6503 3.63958 17.5582 3.62771 17.4708 3.62771C17.0231 3.62771 16.6936 3.94449 16.5899 4.08059L16.5905 4.08088Z" fill="url(#paint1_linear_487_48716)"/>
<path d="M19.6618 21.2284H5.17578V22.6667H19.6618V21.2284Z" fill="url(#paint2_linear_487_48716)"/>
<path d="M13.7543 21.8431C13.7543 21.7878 13.7743 21.7479 13.8139 21.7233C13.8539 21.6987 13.8982 21.6865 13.9474 21.6865H13.9683C13.9755 21.6865 13.9842 21.6865 13.9943 21.6874C14.0045 21.6879 14.0149 21.6888 14.0259 21.69C14.0386 21.6917 14.0511 21.694 14.063 21.6963C14.0748 21.6987 14.0844 21.7018 14.0916 21.7053V21.7957C14.0916 21.7957 14.0905 21.7945 14.0899 21.7942C14.0893 21.7942 14.0887 21.7933 14.0882 21.7928C14.0766 21.7844 14.0621 21.7763 14.0444 21.7687C14.0268 21.7612 14.0088 21.7554 13.9906 21.7519C13.9833 21.7508 13.9764 21.7496 13.9697 21.7487C13.9631 21.7479 13.9564 21.7473 13.9497 21.7473C13.9309 21.7473 13.9135 21.7511 13.8973 21.7583C13.8811 21.7655 13.8681 21.778 13.8577 21.7957C13.8571 21.7968 13.8565 21.7983 13.8559 21.7997C13.8553 21.8012 13.8548 21.8029 13.8542 21.8046C13.8542 21.8052 13.8542 21.8058 13.8536 21.8064C13.8536 21.807 13.8527 21.8075 13.8522 21.8081C13.8516 21.8104 13.851 21.813 13.8504 21.8154C13.8498 21.8177 13.8496 21.82 13.8496 21.8217C13.8496 21.84 13.8591 21.857 13.8782 21.8733C13.8973 21.8895 13.919 21.9025 13.9434 21.9129L14.0337 21.9587C14.0398 21.9616 14.0465 21.9653 14.0537 21.9697C14.0609 21.974 14.0685 21.979 14.0766 21.9842C14.0937 21.9957 14.109 22.0105 14.1232 22.0285C14.1371 22.0464 14.144 22.0667 14.144 22.089C14.144 22.1431 14.1215 22.1854 14.076 22.2158C14.0308 22.2462 13.9758 22.2616 13.9112 22.2616C13.8947 22.2616 13.8779 22.2604 13.8606 22.2584C13.8432 22.2564 13.8261 22.2532 13.809 22.2488C13.8018 22.2471 13.7945 22.2454 13.7876 22.2439C13.7806 22.2425 13.7737 22.2404 13.767 22.2381L13.7479 22.135C13.7618 22.1472 13.7766 22.1576 13.7922 22.166C13.8079 22.1744 13.8235 22.1816 13.8391 22.1869C13.8524 22.1918 13.8658 22.1953 13.8794 22.1973C13.8927 22.1993 13.9054 22.2005 13.9176 22.2005C13.9474 22.2005 13.9741 22.1947 13.9978 22.1828C14.0216 22.1709 14.0355 22.155 14.0398 22.135C14.041 22.1307 14.0415 22.1266 14.0415 22.1229V22.1124C14.0415 22.1009 14.0386 22.0901 14.0328 22.08C14.0271 22.0699 14.0184 22.06 14.0068 22.0505C14.0001 22.045 13.9926 22.0395 13.9839 22.034C13.9755 22.0285 13.966 22.023 13.9555 22.0175L13.8635 21.9717C13.8585 21.97 13.8536 21.9677 13.849 21.9648C13.8441 21.9619 13.8391 21.959 13.8345 21.9561C13.8157 21.9445 13.7983 21.9291 13.7821 21.91C13.7659 21.8909 13.7566 21.8686 13.7543 21.8429V21.8431ZM13.3419 22.1796V21.7765C13.3419 21.7461 13.3391 21.7265 13.3333 21.7178C13.3275 21.7091 13.3205 21.7024 13.3127 21.6981C13.311 21.6969 13.3092 21.696 13.3078 21.6955C13.3063 21.6949 13.3049 21.694 13.3037 21.6929H13.4862C13.5409 21.6929 13.5869 21.7033 13.624 21.7244C13.661 21.7456 13.6796 21.7803 13.6796 21.829C13.6796 21.8654 13.6689 21.8956 13.6477 21.9193C13.6266 21.943 13.6028 21.9601 13.5765 21.9703C13.5722 21.972 13.5681 21.9737 13.5638 21.9749C13.5594 21.9761 13.5554 21.9772 13.551 21.9787C13.5548 21.983 13.5583 21.9874 13.5614 21.992C13.5649 21.9966 13.5684 22.001 13.5719 22.0053C13.5817 22.0175 13.5913 22.0296 13.6005 22.0418C13.6098 22.0539 13.6194 22.0661 13.6283 22.0783C13.6558 22.113 13.6836 22.1449 13.7117 22.1744C13.7401 22.2039 13.7708 22.2274 13.8044 22.2451H13.714C13.7068 22.2451 13.6998 22.2448 13.6935 22.2442C13.6871 22.2436 13.6804 22.2422 13.6738 22.2396C13.6645 22.2364 13.6553 22.2315 13.646 22.2242C13.6364 22.217 13.6263 22.2068 13.6153 22.1941L13.4456 21.9659C13.4589 21.961 13.4714 21.9564 13.483 21.9517C13.4945 21.9471 13.505 21.9428 13.5139 21.9384C13.5394 21.9268 13.5583 21.9147 13.5704 21.9013C13.5826 21.8883 13.5887 21.8712 13.5887 21.8498V21.8362C13.5887 21.8096 13.5797 21.7887 13.5611 21.7742C13.5429 21.7598 13.5171 21.7522 13.4835 21.7522C13.478 21.7522 13.4723 21.7522 13.4662 21.7531C13.4601 21.754 13.454 21.7543 13.4479 21.7548C13.4447 21.7554 13.4421 21.756 13.4398 21.7563C13.4375 21.7563 13.4349 21.7571 13.4326 21.7577V22.1735C13.4326 22.19 13.4358 22.2042 13.4421 22.2164C13.4485 22.2286 13.4581 22.2381 13.4708 22.2448H13.3029C13.3156 22.2419 13.3252 22.2343 13.3315 22.2225C13.3379 22.2106 13.3411 22.1964 13.3411 22.1799L13.3419 22.1796ZM12.905 22.1733V21.7847C12.905 21.7708 12.9033 21.7569 12.8995 21.7432C12.8957 21.7296 12.8868 21.7169 12.872 21.7053H13.1479C13.1514 21.7053 13.1549 21.7053 13.1584 21.7044C13.1613 21.7039 13.1644 21.7033 13.1679 21.7027C13.1714 21.7021 13.1746 21.701 13.1775 21.6992V21.8023C13.1659 21.7884 13.1497 21.7792 13.1291 21.7748C13.1086 21.7705 13.0848 21.7684 13.0579 21.7684H13.031C13.0214 21.7684 13.0121 21.7687 13.0032 21.7693C13.0008 21.7693 12.9982 21.7693 12.9959 21.7699C12.9936 21.7702 12.991 21.7705 12.9887 21.7705V21.9202H13.0672C13.0805 21.9202 13.0921 21.9202 13.1019 21.9193C13.1117 21.9187 13.1196 21.917 13.1256 21.9138V22.005C13.1196 21.9946 13.1091 21.9876 13.0947 21.9842C13.0802 21.9804 13.0645 21.9787 13.048 21.9787H12.9887V22.1738C12.9936 22.1744 12.9982 22.1753 13.0029 22.1761C13.0075 22.177 13.0121 22.1779 13.0171 22.1785C13.0243 22.1796 13.0315 22.1808 13.0391 22.1816C13.0463 22.1825 13.0535 22.1837 13.0611 22.1848C13.0683 22.1854 13.0755 22.186 13.0831 22.1866C13.0903 22.1871 13.0976 22.1874 13.1051 22.1874C13.1144 22.1874 13.1233 22.1869 13.1323 22.186C13.1416 22.1851 13.1505 22.1837 13.1598 22.1819C13.1769 22.1782 13.1934 22.1727 13.2096 22.1651C13.2258 22.1576 13.2415 22.1478 13.2565 22.1353L13.2099 22.2448H12.8723C12.8784 22.2387 12.8836 22.2332 12.8879 22.228C12.8923 22.2228 12.8954 22.2176 12.898 22.2121C12.9004 22.206 12.9024 22.1999 12.9035 22.1938C12.9047 22.1877 12.9053 22.1811 12.9053 22.1738L12.905 22.1733ZM12.2737 21.9781C12.2836 21.8753 12.3212 21.8029 12.3873 21.7606C12.4533 21.7183 12.5286 21.6972 12.6131 21.6972C12.6247 21.6972 12.6366 21.6978 12.649 21.6987C12.6615 21.6995 12.6739 21.7007 12.6861 21.7018C12.6971 21.7036 12.7075 21.7053 12.7179 21.7068C12.7284 21.7082 12.7382 21.7099 12.7481 21.7117V21.8084C12.733 21.7957 12.7159 21.7852 12.6971 21.7774C12.6783 21.7696 12.6592 21.7641 12.6398 21.7609C12.6337 21.7603 12.6276 21.7598 12.6215 21.7592C12.6154 21.7586 12.6094 21.7583 12.6033 21.7583H12.5978C12.5425 21.7595 12.4915 21.7789 12.4449 21.8168C12.3983 21.8544 12.3751 21.9057 12.3751 21.97C12.3751 21.9711 12.3751 21.9723 12.3757 21.9737C12.376 21.9749 12.3763 21.9761 12.3763 21.9775C12.3763 21.979 12.3763 21.9798 12.3768 21.9813C12.3771 21.9824 12.3774 21.9836 12.3774 21.985C12.3823 22.0537 12.4032 22.104 12.4402 22.1365C12.4773 22.1686 12.5176 22.1895 12.5607 22.1984C12.5717 22.2008 12.5824 22.2025 12.5931 22.2034C12.6038 22.2042 12.6143 22.2048 12.6247 22.2048H12.6302C12.6441 22.2042 12.658 22.2028 12.6716 22.2002C12.6852 22.1979 12.6974 22.195 12.7078 22.1921C12.711 22.1915 12.7136 22.1906 12.7159 22.1898C12.7182 22.1889 12.7208 22.188 12.7231 22.1874V22.0644C12.7231 22.0412 12.7208 22.0227 12.7159 22.0082C12.711 21.9937 12.7003 21.9818 12.6841 21.9723H12.8135C12.8135 21.9723 12.8123 21.9746 12.812 21.9755C12.8118 21.9763 12.8112 21.9772 12.8106 21.9778C12.8089 21.9833 12.8077 21.9894 12.8074 21.996C12.8071 22.0027 12.8068 22.0143 12.8068 22.0308V22.2005C12.8068 22.2066 12.8071 22.2129 12.8077 22.2193C12.8083 22.2257 12.81 22.2323 12.8132 22.239C12.7938 22.2445 12.7732 22.2491 12.7521 22.2526C12.7307 22.2564 12.7095 22.259 12.6881 22.2607C12.6783 22.2619 12.6687 22.2627 12.6589 22.263C12.649 22.263 12.6398 22.2636 12.6305 22.2636C12.541 22.2636 12.4596 22.2422 12.3861 22.1987C12.3125 22.1556 12.2752 22.0823 12.274 21.979L12.2737 21.9781ZM11.7346 22.1669V21.7957C11.7346 21.7684 11.7311 21.7487 11.7244 21.7369C11.7178 21.725 11.7103 21.7163 11.7016 21.7108C11.6993 21.7091 11.6966 21.7073 11.6943 21.7059C11.692 21.7044 11.6894 21.703 11.6871 21.7018C11.6865 21.7018 11.6856 21.7018 11.6848 21.701C11.6839 21.7004 11.683 21.6998 11.6825 21.6992H11.8055L12.1377 22.1226V21.7896C12.1377 21.7635 12.133 21.7427 12.124 21.727C12.1151 21.7114 12.1026 21.7021 12.0867 21.6992H12.2483C12.2454 21.7016 12.2422 21.7039 12.2393 21.7056C12.2361 21.7073 12.2332 21.7091 12.23 21.7102C12.2216 21.7152 12.2144 21.7218 12.2086 21.7302C12.2028 21.7386 12.1987 21.7563 12.1961 21.7832V22.2711C12.1906 22.2705 12.1846 22.2688 12.1773 22.2662C12.1704 22.2636 12.1631 22.2595 12.1559 22.2549C12.1492 22.2511 12.1426 22.2471 12.1362 22.2422C12.1298 22.2372 12.1238 22.2323 12.1185 22.2277C12.1162 22.2254 12.1139 22.2228 12.1116 22.2205C12.1096 22.2181 12.1075 22.2155 12.1058 22.2132L11.7928 21.8156V22.1614C11.7928 22.184 11.7963 22.201 11.8032 22.2129C11.8102 22.2248 11.8214 22.2355 11.8374 22.2454H11.6822C11.6854 22.2436 11.6882 22.2416 11.6909 22.2399C11.6935 22.2381 11.6961 22.2361 11.6987 22.2343C11.7076 22.2277 11.7155 22.2199 11.7215 22.2112C11.7276 22.2025 11.732 22.1877 11.7343 22.1677L11.7346 22.1669ZM11.2858 22.1733V21.7847C11.2858 21.7708 11.284 21.7569 11.2803 21.7432C11.2765 21.7296 11.2675 21.7169 11.2527 21.7053H11.5287C11.5322 21.7053 11.5356 21.7053 11.5391 21.7044C11.542 21.7039 11.5452 21.7033 11.5487 21.7027C11.5522 21.7021 11.5553 21.701 11.5582 21.6992V21.8023C11.5467 21.7884 11.5304 21.7792 11.5099 21.7748C11.4893 21.7705 11.4656 21.7684 11.4386 21.7684H11.4117C11.4022 21.7684 11.3929 21.7687 11.3839 21.7693C11.3816 21.7693 11.379 21.7693 11.3767 21.7699C11.3744 21.7702 11.3718 21.7705 11.3694 21.7705V21.9202H11.4479C11.4612 21.9202 11.4728 21.9202 11.4827 21.9193C11.4925 21.9187 11.5003 21.917 11.5064 21.9138V22.005C11.5003 21.9946 11.4899 21.9876 11.4754 21.9842C11.4609 21.9807 11.4453 21.9787 11.4288 21.9787H11.3694V22.1738C11.3744 22.1744 11.379 22.1753 11.3836 22.1761C11.3883 22.177 11.3929 22.1779 11.3978 22.1785C11.4051 22.1796 11.4123 22.1808 11.4198 22.1816C11.4271 22.1825 11.4343 22.1837 11.4418 22.1848C11.4491 22.1854 11.4563 22.186 11.4638 22.1866C11.4711 22.1871 11.4783 22.1874 11.4858 22.1874C11.4951 22.1874 11.5041 22.1869 11.5131 22.186C11.5223 22.1851 11.5313 22.1837 11.5406 22.1819C11.5577 22.1782 11.5742 22.1727 11.5904 22.1651C11.6066 22.1576 11.6222 22.1478 11.6373 22.1353L11.5907 22.2448H11.253C11.2591 22.2387 11.2643 22.2332 11.2687 22.228C11.273 22.2228 11.2762 22.2176 11.2788 22.2121C11.2811 22.206 11.2831 22.1999 11.2843 22.1938C11.2855 22.1877 11.286 22.1811 11.286 22.1738L11.2858 22.1733ZM10.8288 22.1541V21.7702C10.8288 21.7531 10.8274 21.7415 10.8248 21.7351C10.8219 21.7288 10.8184 21.7233 10.8143 21.7183C10.8112 21.716 10.8086 21.7131 10.8057 21.7102C10.8028 21.7073 10.7999 21.7036 10.7961 21.6992H10.9577C10.9577 21.6992 10.9562 21.7004 10.9554 21.701C10.9545 21.7016 10.9536 21.7021 10.953 21.7027C10.9513 21.7044 10.9493 21.7062 10.9475 21.7073C10.9458 21.7085 10.9438 21.7099 10.942 21.712C10.9365 21.7169 10.9313 21.7238 10.9264 21.7334C10.9215 21.743 10.9192 21.7571 10.9192 21.7768V22.1735C10.9258 22.1741 10.9322 22.1747 10.9383 22.1753C10.9444 22.1759 10.9504 22.1764 10.9565 22.177C10.9704 22.1788 10.9837 22.1805 10.9962 22.1816C11.0086 22.1828 11.0208 22.1834 11.0321 22.1834C11.0527 22.1834 11.0726 22.1814 11.0915 22.177C11.1103 22.1727 11.1291 22.1654 11.1479 22.155C11.1534 22.1527 11.1586 22.1495 11.1638 22.146C11.1691 22.1423 11.1743 22.1388 11.1798 22.135L11.1332 22.2445H10.7894C10.7949 22.2401 10.7999 22.2361 10.8039 22.232C10.8083 22.228 10.8117 22.2239 10.8149 22.2199C10.8204 22.2121 10.8239 22.2039 10.8259 22.1958C10.8277 22.1877 10.8288 22.1802 10.8288 22.1735V22.1544V22.1541ZM10.3783 22.1541V21.7702C10.3783 21.7531 10.3768 21.7415 10.3742 21.7351C10.3713 21.7288 10.3678 21.7233 10.3638 21.7183C10.3606 21.716 10.358 21.7131 10.3551 21.7102C10.3525 21.7073 10.3493 21.7036 10.3455 21.6992H10.5071C10.5071 21.6992 10.5057 21.7004 10.5048 21.701C10.5039 21.7016 10.5031 21.7021 10.5025 21.7027C10.5007 21.7044 10.4987 21.7062 10.497 21.7073C10.4952 21.7085 10.4932 21.7099 10.4915 21.712C10.486 21.7169 10.4808 21.7238 10.4758 21.7334C10.4709 21.743 10.4686 21.7571 10.4686 21.7768V22.1735C10.4753 22.1741 10.4816 22.1747 10.4877 22.1753C10.4938 22.1759 10.4999 22.1764 10.506 22.177C10.5199 22.1788 10.5332 22.1805 10.5456 22.1816C10.5581 22.1828 10.5702 22.1834 10.5815 22.1834C10.6021 22.1834 10.6221 22.1814 10.6409 22.177C10.6597 22.1727 10.6785 22.1654 10.6974 22.155C10.7029 22.1527 10.7081 22.1495 10.7133 22.146C10.7185 22.1423 10.7237 22.1388 10.7292 22.135L10.6826 22.2445H10.3389C10.3444 22.2401 10.3493 22.2361 10.3534 22.232C10.3577 22.228 10.3612 22.2239 10.3644 22.2199C10.3699 22.2121 10.3736 22.2039 10.3754 22.1958C10.3771 22.1877 10.378 22.1802 10.378 22.1735V22.1544L10.3783 22.1541ZM9.91756 21.9781H10.0728L9.99517 21.7765L9.91756 21.9781ZM9.7806 22.1541L9.93754 21.7574C9.93754 21.7574 9.9387 21.7551 9.93899 21.7543C9.93928 21.7534 9.93957 21.7522 9.93957 21.7511C9.94015 21.7482 9.94073 21.745 9.94131 21.7421C9.94189 21.7389 9.94218 21.7366 9.94218 21.7349C9.94218 21.7265 9.93986 21.7195 9.93494 21.714C9.93002 21.7085 9.92422 21.7036 9.91756 21.6995H10.047L10.2422 22.1675C10.2488 22.1808 10.2555 22.1915 10.2621 22.1999C10.2688 22.208 10.2758 22.2158 10.283 22.2231C10.2868 22.2262 10.2905 22.2294 10.2943 22.2332C10.2983 22.237 10.3024 22.2407 10.3067 22.2451H10.1324C10.1402 22.2413 10.1463 22.2375 10.1507 22.2332C10.155 22.2288 10.1579 22.2245 10.1596 22.2196C10.1608 22.2178 10.1617 22.2155 10.162 22.2132C10.162 22.2109 10.1625 22.2086 10.1625 22.2068C10.1625 22.2025 10.162 22.1984 10.1608 22.1941C10.1596 22.1898 10.1585 22.1857 10.157 22.1814C10.1559 22.179 10.1547 22.1764 10.1538 22.1741C10.153 22.1718 10.1521 22.1695 10.1515 22.1677L10.0985 22.0374H9.89614L9.84517 22.1808C9.84517 22.1808 9.84517 22.1831 9.84459 22.184C9.84459 22.1848 9.84373 22.186 9.84315 22.1871V22.1889C9.84199 22.1921 9.84112 22.1947 9.84054 22.197C9.83996 22.1993 9.83967 22.2016 9.83967 22.2034C9.83967 22.2094 9.84112 22.2147 9.84431 22.219C9.84749 22.2233 9.85096 22.2271 9.85531 22.2309C9.85647 22.2326 9.8582 22.2343 9.86023 22.2358C9.86226 22.2372 9.86429 22.239 9.86602 22.2407C9.8666 22.2419 9.86747 22.2427 9.86834 22.2436C9.86921 22.2442 9.87008 22.2448 9.87065 22.2454H9.70908C9.7114 22.2436 9.714 22.2416 9.71632 22.2399C9.71863 22.2381 9.72124 22.2361 9.72356 22.2343C9.74122 22.2204 9.75425 22.2066 9.76265 22.1929C9.77105 22.1793 9.77684 22.1666 9.78002 22.155L9.7806 22.1541ZM9.17223 22.1669V21.7847C9.17223 21.7786 9.17165 21.7728 9.17049 21.7673C9.16933 21.7557 9.16644 21.7447 9.16238 21.734C9.15804 21.7233 9.15051 21.7137 9.13951 21.7053H9.29471C9.28197 21.7114 9.27242 21.7224 9.26605 21.7383C9.25968 21.7543 9.25649 21.7734 9.25649 21.7957V21.9196H9.55648V21.7893C9.55648 21.7855 9.55648 21.7821 9.5559 21.7789C9.55561 21.7754 9.55503 21.7719 9.55445 21.7684C9.55214 21.7551 9.54721 21.7424 9.54026 21.7305C9.53331 21.7186 9.52318 21.7102 9.50957 21.7053H9.67925C9.6781 21.7071 9.67665 21.7091 9.6752 21.7108C9.67375 21.7126 9.67201 21.7143 9.67028 21.7155C9.66912 21.7166 9.66796 21.7178 9.66709 21.7186C9.66622 21.7195 9.66506 21.7207 9.66391 21.7218C9.65783 21.7279 9.65232 21.7357 9.6474 21.745C9.64248 21.7543 9.64016 21.769 9.64016 21.7893V22.1669C9.64016 22.1863 9.64248 22.2016 9.6474 22.2129C9.65232 22.2242 9.66304 22.2346 9.67925 22.2445H9.51594C9.52926 22.2396 9.53881 22.2323 9.54432 22.2225C9.54982 22.2126 9.55329 22.2025 9.55532 22.1915C9.55532 22.1883 9.55532 22.1854 9.5559 22.1822C9.5559 22.1793 9.55648 22.1761 9.55648 22.1733V21.9845H9.25649V22.1669C9.25649 22.1834 9.25968 22.1979 9.26605 22.2106C9.27242 22.2233 9.28197 22.2346 9.29471 22.2442H9.13314C9.14646 22.2375 9.1563 22.2271 9.16267 22.2126C9.16904 22.1984 9.17223 22.1831 9.17223 22.1666V22.1669ZM8.56009 21.9624C8.56009 21.9529 8.56009 21.9436 8.56067 21.9341C8.56096 21.9245 8.56183 21.9152 8.56327 21.9057C8.5708 21.8353 8.59715 21.771 8.64232 21.7123C8.6875 21.6535 8.76597 21.6242 8.87745 21.6242C8.89511 21.6242 8.91423 21.6251 8.93478 21.6268C8.95534 21.6286 8.97648 21.6312 8.9982 21.6344C9.00689 21.6358 9.01586 21.6373 9.02513 21.6393C9.03439 21.6413 9.04308 21.6433 9.05206 21.6454V21.7528C9.01499 21.7311 8.98083 21.7175 8.94984 21.7117C8.91886 21.7059 8.89251 21.703 8.87079 21.703C8.80332 21.703 8.75265 21.725 8.71877 21.7693C8.68489 21.8136 8.6681 21.8631 8.6681 21.9179C8.6681 21.9234 8.6681 21.9286 8.66868 21.9341C8.66925 21.9396 8.66954 21.9448 8.67012 21.9503C8.67678 22.0065 8.69995 22.0577 8.73962 22.1043C8.77929 22.151 8.83315 22.1744 8.9012 22.1744H8.90525C8.90525 22.1744 8.90843 22.1741 8.91046 22.1733H8.91133C8.91336 22.1733 8.91509 22.1733 8.91683 22.1727C8.91857 22.1724 8.92002 22.1721 8.92146 22.1721C8.94579 22.1721 8.96751 22.1698 8.98633 22.1654C9.00515 22.1611 9.02368 22.155 9.04192 22.1478C9.05061 22.1437 9.05959 22.1397 9.06827 22.1356C9.07696 22.1316 9.08623 22.1272 9.09578 22.1223L9.0593 22.2297C9.04308 22.2352 9.026 22.2399 9.00804 22.2433C8.99009 22.2471 8.97243 22.25 8.95476 22.252C8.94666 22.2526 8.93884 22.2532 8.93102 22.2535C8.9232 22.2537 8.91567 22.254 8.90814 22.254C8.82446 22.254 8.74686 22.2303 8.67563 22.1831C8.60439 22.1359 8.56588 22.0621 8.56067 21.9622L8.56009 21.9624ZM7.78319 22.1541V21.7702C7.78319 21.7531 7.78174 21.7415 7.77913 21.7351C7.77624 21.7288 7.77276 21.7233 7.76871 21.7183C7.76553 21.716 7.76263 21.7131 7.76002 21.7102C7.75713 21.7073 7.75423 21.7036 7.75047 21.6992H7.91204C7.91204 21.6992 7.9106 21.7004 7.90973 21.701C7.90886 21.7016 7.90799 21.7021 7.90741 21.7027C7.90567 21.7044 7.90365 21.7062 7.90191 21.7073C7.90017 21.7085 7.89815 21.7099 7.89641 21.712C7.89091 21.7169 7.88569 21.7238 7.88077 21.7334C7.87585 21.743 7.87353 21.7571 7.87353 21.7768V22.1735C7.88019 22.1741 7.88656 22.1747 7.89264 22.1753C7.89872 22.1759 7.90481 22.1764 7.91089 22.177C7.92479 22.1788 7.93811 22.1805 7.95056 22.1816C7.96301 22.1828 7.97517 22.1834 7.98646 22.1834C8.00702 22.1834 8.027 22.1814 8.04582 22.177C8.06465 22.1727 8.08347 22.1654 8.10229 22.155C8.10779 22.1527 8.113 22.1495 8.11821 22.146C8.12343 22.1423 8.12864 22.1388 8.13414 22.135L8.08752 22.2445H7.74381C7.74931 22.2401 7.75423 22.2361 7.75829 22.232C7.76263 22.228 7.7661 22.2239 7.76929 22.2199C7.77479 22.2121 7.77827 22.2039 7.78029 22.1958C7.78203 22.1877 7.78319 22.1802 7.78319 22.1735V22.1544V22.1541ZM7.32249 21.9781H7.47741L7.39981 21.7765L7.3222 21.9781H7.32249ZM7.18553 22.1541L7.34247 21.7574C7.34247 21.7574 7.34363 21.7551 7.34392 21.7543C7.34421 21.7534 7.3445 21.7522 7.3445 21.7511C7.34508 21.7482 7.34566 21.745 7.34624 21.7421C7.34682 21.7389 7.34711 21.7366 7.34711 21.7349C7.34711 21.7265 7.34479 21.7195 7.33987 21.714C7.33494 21.7085 7.32915 21.7036 7.32249 21.6995H7.45193L7.64709 22.1675C7.65375 22.1808 7.66041 22.1915 7.66707 22.1999C7.67373 22.208 7.68068 22.2158 7.68792 22.2231C7.69169 22.2262 7.69545 22.2294 7.69922 22.2332C7.70327 22.237 7.70732 22.2407 7.71138 22.2451H7.53706C7.54488 22.2413 7.55096 22.2375 7.5553 22.2332C7.55965 22.2288 7.56254 22.2245 7.56457 22.2196C7.56573 22.2178 7.5666 22.2155 7.56688 22.2132C7.56717 22.2109 7.56746 22.2086 7.56746 22.2068C7.56746 22.2025 7.56688 22.1984 7.56573 22.1941C7.56457 22.1898 7.56341 22.1857 7.56196 22.1814C7.5608 22.179 7.55965 22.1764 7.55878 22.1741C7.55791 22.1718 7.55704 22.1695 7.55646 22.1677L7.50347 22.0374H7.30106L7.2501 22.1808C7.2501 22.1808 7.2501 22.1831 7.24952 22.184C7.24894 22.1848 7.24865 22.186 7.24807 22.1871V22.1889C7.24692 22.1921 7.24605 22.1947 7.24547 22.197C7.24489 22.1993 7.2446 22.2016 7.2446 22.2034C7.2446 22.2094 7.24605 22.2147 7.24923 22.219C7.25242 22.2233 7.25589 22.2271 7.26024 22.2309C7.26139 22.2326 7.26313 22.2343 7.26516 22.2358C7.26719 22.2372 7.26921 22.239 7.27124 22.2407C7.27182 22.2419 7.27269 22.2427 7.27356 22.2436C7.27442 22.2442 7.27529 22.2448 7.27587 22.2454H7.11459C7.1169 22.2436 7.11951 22.2416 7.12182 22.2399C7.12414 22.2381 7.12675 22.2361 7.12906 22.2343C7.14673 22.2204 7.15976 22.2066 7.16844 22.1929C7.17684 22.1793 7.18263 22.1666 7.18582 22.155L7.18553 22.1541ZM6.84616 22.1796V22.0044L6.69761 21.7571C6.69153 21.7438 6.68256 21.732 6.67039 21.7221C6.65823 21.7123 6.64404 21.7021 6.62754 21.6926H6.70427C6.72686 21.6926 6.74308 21.696 6.7535 21.7027C6.76392 21.7094 6.77261 21.7192 6.77985 21.732C6.78159 21.7337 6.78332 21.7357 6.78448 21.7377C6.78564 21.7398 6.7868 21.7421 6.78825 21.7447L6.89944 21.9335L7.00976 21.7702C7.01092 21.7684 7.01208 21.7661 7.01295 21.7638C7.01382 21.7615 7.0144 21.7589 7.0144 21.7566C7.01498 21.7543 7.01555 21.7516 7.01584 21.7493C7.01613 21.747 7.01642 21.7447 7.01642 21.743V21.7375C7.01527 21.727 7.0115 21.7175 7.00542 21.7082C6.99934 21.6992 6.9921 21.694 6.98341 21.6926H7.14673L6.93245 22.0044V22.1733C6.93245 22.1892 6.93592 22.2019 6.94258 22.2115C6.94924 22.2213 6.95677 22.2294 6.96546 22.2361C6.9672 22.2372 6.96922 22.2387 6.97154 22.2401C6.97357 22.2416 6.97559 22.243 6.97762 22.2442H6.80881C6.82155 22.2375 6.8311 22.2291 6.83747 22.219C6.84384 22.2089 6.84703 22.1958 6.84703 22.1793L6.84616 22.1796ZM6.12544 21.9781C6.12544 22.0438 6.14744 22.0971 6.19146 22.1382C6.23547 22.1793 6.28527 22.1999 6.34058 22.1999C6.40023 22.1999 6.44772 22.1788 6.48276 22.1365C6.51808 22.0942 6.53575 22.0464 6.53575 21.9929V21.9784C6.53575 21.9746 6.53546 21.9711 6.53488 21.9674C6.5343 21.9636 6.53401 21.9601 6.53401 21.9564C6.52677 21.9054 6.50476 21.8582 6.46799 21.8154C6.43121 21.7725 6.38228 21.7511 6.32147 21.7511C6.31771 21.7511 6.31394 21.7511 6.31018 21.7516C6.30612 21.7516 6.30236 21.7525 6.29888 21.7531C6.25516 21.7586 6.2152 21.7792 6.179 21.8151C6.14281 21.851 6.12486 21.9011 6.12486 21.9656V21.972H6.12572V21.9784L6.12544 21.9781ZM6.02235 21.9845C6.02235 21.97 6.0238 21.9543 6.0264 21.9378C6.02901 21.9213 6.03335 21.9048 6.03857 21.8877C6.05507 21.8391 6.08605 21.7945 6.13152 21.7537C6.17727 21.7128 6.24242 21.6926 6.32755 21.6926C6.41268 21.6926 6.48392 21.7172 6.54154 21.7661C6.59887 21.8151 6.62986 21.8837 6.6342 21.9717C6.6342 21.9845 6.63304 21.9978 6.63101 22.0114C6.62899 22.025 6.62609 22.0389 6.62233 22.0528C6.60698 22.1052 6.57629 22.1533 6.52967 22.197C6.48305 22.2407 6.41992 22.2627 6.34029 22.2627C6.23923 22.2627 6.16279 22.2358 6.11038 22.1825C6.05797 22.1289 6.02872 22.0629 6.02206 21.9847L6.02235 21.9845ZM5.57468 22.1721V21.7241C5.57468 21.6903 5.5715 21.6685 5.56513 21.6587C5.55876 21.6489 5.55123 21.6416 5.54225 21.637C5.54023 21.6355 5.53849 21.6347 5.53675 21.6341C5.53501 21.6335 5.53357 21.6323 5.53212 21.6309H5.73481C5.79562 21.6309 5.84659 21.6425 5.8877 21.6659C5.92882 21.6891 5.94967 21.7279 5.94967 21.782C5.94967 21.8226 5.9378 21.8559 5.91405 21.8822C5.89031 21.9086 5.86396 21.9274 5.835 21.939C5.83037 21.941 5.82545 21.9428 5.82081 21.9439C5.81618 21.9454 5.81126 21.9465 5.80663 21.948C5.81068 21.9526 5.81444 21.9575 5.81821 21.9627C5.82197 21.9677 5.82574 21.9726 5.82979 21.9775C5.8405 21.9911 5.85122 22.0044 5.86164 22.018C5.87207 22.0317 5.88249 22.045 5.89263 22.0586C5.92303 22.0971 5.95401 22.1327 5.98529 22.1654C6.01685 22.1982 6.05102 22.2245 6.08808 22.2439H5.9876C5.9795 22.2439 5.97197 22.2436 5.96473 22.2427C5.95778 22.2422 5.95025 22.2404 5.94301 22.2378C5.93288 22.2343 5.92245 22.2288 5.91203 22.2205C5.9016 22.2123 5.89031 22.2013 5.87815 22.1871L5.68964 21.9338C5.70441 21.9283 5.71831 21.9231 5.73105 21.9181C5.74379 21.9132 5.75537 21.9083 5.76551 21.9034C5.79388 21.8906 5.81473 21.8767 5.82834 21.8623C5.84195 21.8478 5.84861 21.8287 5.84861 21.8049V21.7899C5.84861 21.76 5.83848 21.7372 5.81821 21.721C5.79794 21.7047 5.76927 21.6966 5.73221 21.6966C5.72613 21.6966 5.71976 21.6969 5.71281 21.6978C5.70615 21.6984 5.6992 21.6992 5.69254 21.6998C5.68906 21.7004 5.68617 21.701 5.68327 21.7013C5.68066 21.7016 5.67777 21.7021 5.67516 21.7027V22.1649C5.67516 22.1831 5.67864 22.199 5.68588 22.2126C5.69312 22.2262 5.70354 22.2367 5.71773 22.2439H5.53125C5.54544 22.2404 5.55615 22.2323 5.5631 22.219C5.57005 22.206 5.57382 22.19 5.57382 22.1718L5.57468 22.1721Z" fill="#1C4484"/>
<path d="M18.8655 22.0705V21.7641C18.8655 21.7476 18.8626 21.7343 18.8569 21.7236C18.8511 21.7129 18.8432 21.7027 18.8337 21.6932H18.9822C18.9773 21.6981 18.9727 21.7053 18.968 21.7152C18.9634 21.725 18.9602 21.7352 18.9585 21.7462C18.9579 21.7491 18.9573 21.7522 18.957 21.7551C18.9568 21.758 18.9565 21.7612 18.9565 21.7641V22.0577C18.9565 22.1003 18.9657 22.1316 18.9837 22.1513C19.0019 22.171 19.0222 22.1837 19.0448 22.1892C19.0509 22.1909 19.0569 22.1921 19.063 22.193C19.0691 22.1935 19.0749 22.1938 19.0804 22.1938C19.1253 22.1938 19.1606 22.1834 19.1858 22.1628C19.211 22.1423 19.2237 22.1156 19.2237 22.0835V21.7899C19.2237 21.7638 19.2203 21.7436 19.2133 21.7291C19.2064 21.7149 19.1965 21.7027 19.1838 21.6932H19.3407C19.3274 21.7059 19.3184 21.7204 19.3144 21.7366C19.31 21.7528 19.308 21.7705 19.308 21.7899V22.1675C19.308 22.1869 19.3103 22.2031 19.3152 22.2158C19.3202 22.2286 19.3309 22.2384 19.3471 22.2451H19.224V22.1941C19.2203 22.1979 19.2162 22.2019 19.2116 22.2069C19.2069 22.2118 19.2017 22.2167 19.1956 22.2213C19.1846 22.2306 19.1693 22.2387 19.1496 22.2459C19.1299 22.2532 19.1027 22.257 19.0679 22.257C19.0016 22.257 18.9536 22.2419 18.9237 22.2118C18.8939 22.1817 18.8757 22.1481 18.869 22.111C18.8679 22.1044 18.867 22.0977 18.8664 22.091C18.8658 22.0844 18.8655 22.0777 18.8655 22.0711V22.0705ZM18.4213 22.1799V21.7769C18.4213 21.7465 18.4185 21.7268 18.4127 21.7181C18.4069 21.7094 18.3999 21.7027 18.3921 21.6984C18.3904 21.6972 18.3886 21.6964 18.3872 21.6958C18.3857 21.6952 18.3843 21.6943 18.3831 21.6932H18.5656C18.6203 21.6932 18.6663 21.7036 18.7034 21.7247C18.7404 21.7459 18.759 21.7806 18.759 21.8293C18.759 21.8658 18.7483 21.8959 18.7271 21.9196C18.7057 21.9434 18.6822 21.9604 18.6559 21.9706C18.6516 21.9723 18.6475 21.974 18.6432 21.9752C18.6388 21.9764 18.6348 21.9775 18.6304 21.979C18.6342 21.9833 18.6377 21.9877 18.6408 21.9923C18.644 21.9969 18.6478 22.0013 18.6513 22.0056C18.6611 22.0178 18.6707 22.0299 18.6799 22.0421C18.6892 22.0543 18.6988 22.0664 18.7077 22.0786C18.7352 22.1133 18.763 22.1452 18.7911 22.1747C18.8195 22.2043 18.8502 22.2277 18.8838 22.2454H18.7934C18.7862 22.2454 18.7792 22.2451 18.7729 22.2445C18.7665 22.2439 18.7598 22.2425 18.7532 22.2399C18.7442 22.2367 18.7347 22.2318 18.7254 22.2245C18.7158 22.2173 18.7057 22.2071 18.6947 22.1944L18.525 21.9662C18.5383 21.9613 18.5508 21.9567 18.5624 21.952C18.5739 21.9474 18.5844 21.9431 18.5934 21.9387C18.6188 21.9271 18.6377 21.915 18.6498 21.9017C18.662 21.8886 18.6681 21.8715 18.6681 21.8501V21.8365C18.6681 21.8099 18.6588 21.789 18.6405 21.7745C18.6223 21.7601 18.5965 21.7525 18.5629 21.7525C18.5574 21.7525 18.5517 21.7525 18.5456 21.7534C18.5395 21.754 18.5334 21.7546 18.5273 21.7551C18.5241 21.7557 18.5215 21.7563 18.5192 21.7566C18.5169 21.7566 18.5143 21.7575 18.512 21.758V22.1738C18.512 22.1904 18.5152 22.2045 18.5215 22.2167C18.5279 22.2289 18.5375 22.2384 18.5502 22.2451H18.3823C18.395 22.2422 18.4046 22.2347 18.4109 22.2228C18.4173 22.2109 18.4205 22.1967 18.4205 22.1802L18.4213 22.1799ZM17.8486 22.0705V21.7641C17.8486 21.7476 17.8457 21.7343 17.8399 21.7236C17.8341 21.7129 17.8263 21.7027 17.8167 21.6932H17.9653C17.9604 21.6981 17.9557 21.7053 17.9511 21.7152C17.9465 21.725 17.9433 21.7352 17.9415 21.7462C17.941 21.7491 17.9404 21.7522 17.9401 21.7551C17.9398 21.758 17.9395 21.7612 17.9395 21.7641V22.0577C17.9395 22.1003 17.9488 22.1316 17.9667 22.1513C17.985 22.171 18.0052 22.1837 18.0278 22.1892C18.0339 22.1909 18.04 22.1921 18.0461 22.193C18.0522 22.1935 18.0579 22.1938 18.0634 22.1938C18.1083 22.1938 18.1437 22.1834 18.1688 22.1628C18.194 22.1423 18.2068 22.1156 18.2068 22.0835V21.7899C18.2068 21.7638 18.2033 21.7436 18.1964 21.7291C18.1894 21.7149 18.1796 21.7027 18.1668 21.6932H18.3238C18.3104 21.7059 18.3015 21.7204 18.2974 21.7366C18.2931 21.7528 18.291 21.7705 18.291 21.7899V22.1675C18.291 22.1869 18.2934 22.2031 18.2983 22.2158C18.3032 22.2286 18.3139 22.2384 18.3301 22.2451H18.2071V22.1941C18.2033 22.1979 18.1993 22.2019 18.1946 22.2069C18.19 22.2118 18.1848 22.2167 18.1787 22.2213C18.1677 22.2306 18.1523 22.2387 18.1327 22.2459C18.113 22.2532 18.0857 22.257 18.051 22.257C17.9847 22.257 17.9366 22.2419 17.9068 22.2118C17.877 22.1817 17.8587 22.1481 17.8521 22.111C17.8509 22.1044 17.85 22.0977 17.8495 22.091C17.8489 22.0844 17.8486 22.0777 17.8486 22.0711V22.0705ZM17.4116 22.1544V21.7705C17.4116 21.7534 17.4102 21.7418 17.4076 21.7354C17.405 21.7291 17.4012 21.7236 17.3972 21.7187C17.3943 21.7163 17.3914 21.7134 17.3885 21.7105C17.3859 21.7076 17.3827 21.7039 17.3789 21.6995H17.5405C17.5405 21.6995 17.539 21.7007 17.5382 21.7013C17.5373 21.7019 17.5364 21.7024 17.5359 21.703C17.5341 21.7048 17.5321 21.7065 17.5304 21.7076C17.5286 21.7088 17.5266 21.7103 17.5249 21.7123C17.5194 21.7172 17.5141 21.7242 17.5092 21.7337C17.5043 21.7433 17.502 21.7575 17.502 21.7771V22.1738C17.5086 22.1744 17.515 22.175 17.5211 22.1756C17.5272 22.1762 17.5333 22.1767 17.5393 22.1773C17.5532 22.1791 17.5666 22.1808 17.579 22.182C17.5915 22.1831 17.6033 22.1837 17.6149 22.1837C17.6355 22.1837 17.6555 22.1817 17.6743 22.1773C17.6931 22.173 17.7119 22.1657 17.7307 22.1553C17.7362 22.153 17.7415 22.1498 17.7467 22.1463C17.7519 22.1426 17.7571 22.1391 17.7626 22.1353L17.716 22.2448H17.372C17.3775 22.2404 17.3824 22.2364 17.3864 22.2323C17.3908 22.2283 17.3943 22.2242 17.3975 22.2202C17.403 22.2124 17.4064 22.2043 17.4085 22.1961C17.4105 22.188 17.4111 22.1805 17.4111 22.1738V22.1547L17.4116 22.1544ZM16.9509 21.9784H17.1059L17.0283 21.7769L16.9507 21.9784H16.9509ZM16.8143 22.1544L16.9712 21.7577C16.9712 21.7577 16.9724 21.7554 16.9727 21.7546C16.973 21.7537 16.9732 21.7525 16.9732 21.7514C16.9738 21.7485 16.9744 21.7453 16.975 21.7424C16.9756 21.7395 16.9758 21.7369 16.9758 21.7352C16.9758 21.7268 16.9735 21.7198 16.9686 21.7143C16.9637 21.7088 16.9579 21.7039 16.9512 21.6998H17.0807L17.2758 22.1678C17.2825 22.1811 17.2892 22.1918 17.2958 22.2002C17.3025 22.2086 17.3094 22.2161 17.317 22.2234C17.3204 22.2265 17.3245 22.2297 17.3282 22.2335C17.3323 22.2373 17.3364 22.241 17.3407 22.2454H17.1664C17.1742 22.2416 17.1803 22.2378 17.1846 22.2335C17.189 22.2292 17.1919 22.2248 17.1939 22.2199C17.195 22.2182 17.1959 22.2158 17.1962 22.2135C17.1965 22.2112 17.1968 22.2089 17.1968 22.2071C17.1968 22.2028 17.1962 22.1987 17.195 22.1944C17.1939 22.1901 17.1927 22.186 17.1913 22.1817C17.1901 22.1793 17.189 22.1767 17.1881 22.1744C17.1872 22.1721 17.1864 22.1698 17.1858 22.1681L17.1328 22.0378H16.9304L16.8794 22.1811C16.8794 22.1811 16.8794 22.1834 16.8788 22.1843C16.8788 22.1851 16.878 22.1863 16.8774 22.1875V22.1892C16.8762 22.1924 16.8754 22.195 16.8748 22.1973C16.8742 22.1996 16.8739 22.2019 16.8739 22.2037C16.8739 22.2098 16.8754 22.215 16.8786 22.2193C16.8814 22.2237 16.8852 22.2274 16.8896 22.2312C16.8907 22.2329 16.8925 22.2347 16.8945 22.2361C16.8965 22.2376 16.8985 22.2393 16.9003 22.241C16.9008 22.2422 16.9017 22.2431 16.9026 22.2439C16.9035 22.2445 16.9043 22.2451 16.9049 22.2457H16.7433C16.7456 22.2439 16.7482 22.2419 16.7506 22.2402C16.7529 22.2384 16.7555 22.2364 16.7578 22.2347C16.7755 22.2208 16.7885 22.2069 16.7972 22.1932C16.8056 22.1796 16.8114 22.1669 16.8146 22.1553L16.8143 22.1544ZM16.1848 21.9784C16.1946 21.8756 16.2322 21.8032 16.2983 21.7609C16.3643 21.7187 16.4396 21.6975 16.5241 21.6975C16.5357 21.6975 16.5476 21.6981 16.56 21.699C16.5725 21.6998 16.5849 21.701 16.5968 21.7021C16.6078 21.7039 16.6185 21.7056 16.6287 21.7071C16.6391 21.7085 16.6489 21.7103 16.6588 21.712V21.8087C16.6434 21.796 16.6266 21.7855 16.6078 21.7777C16.589 21.7699 16.5699 21.7644 16.5505 21.7612C16.5444 21.7606 16.5383 21.7601 16.5322 21.7595C16.5262 21.7589 16.5201 21.7586 16.514 21.7586H16.5085C16.4532 21.7598 16.4022 21.7792 16.3556 21.8171C16.309 21.8547 16.2858 21.906 16.2858 21.9703C16.2858 21.9714 16.2858 21.9726 16.2864 21.974C16.2864 21.9752 16.287 21.9764 16.287 21.9778C16.287 21.9793 16.287 21.9801 16.2876 21.9816C16.2878 21.9827 16.2881 21.9839 16.2881 21.9853C16.2931 22.054 16.3139 22.1044 16.351 22.1368C16.388 22.1689 16.4283 22.1898 16.4714 22.1988C16.4824 22.2011 16.4931 22.2028 16.5039 22.2037C16.5146 22.2045 16.525 22.2051 16.5354 22.2051H16.5409C16.5548 22.2045 16.5687 22.2031 16.5823 22.2005C16.5959 22.1982 16.6081 22.1953 16.6185 22.1924C16.6214 22.1918 16.6243 22.1909 16.6266 22.1901C16.6289 22.1892 16.6316 22.1883 16.6339 22.1877V22.0647C16.6339 22.0415 16.6316 22.023 16.6266 22.0085C16.6217 21.994 16.611 21.9822 16.5948 21.9726H16.7242C16.7242 21.9726 16.7231 21.9749 16.7228 21.9758C16.7225 21.9767 16.7219 21.9775 16.7213 21.9781C16.7196 21.9836 16.7184 21.9897 16.7181 21.9963C16.7178 22.003 16.7176 22.0146 16.7176 22.0311V22.2008C16.7176 22.2069 16.7178 22.2132 16.7184 22.2196C16.719 22.226 16.7207 22.2326 16.7239 22.2393C16.7045 22.2448 16.684 22.2494 16.6628 22.2529C16.6414 22.2567 16.6203 22.2593 16.5988 22.261C16.589 22.2622 16.5794 22.263 16.5696 22.2633C16.5597 22.2633 16.5505 22.2639 16.5412 22.2639C16.4517 22.2639 16.3704 22.2425 16.2968 22.199C16.2233 22.1559 16.1859 22.0826 16.1848 21.9793V21.9784ZM15.6456 22.1672V21.796C15.6456 21.7687 15.6421 21.7491 15.6355 21.7372C15.6288 21.7253 15.6213 21.7166 15.6126 21.7111C15.6103 21.7094 15.6077 21.7076 15.6053 21.7062C15.603 21.7048 15.6004 21.7033 15.5981 21.7021C15.5975 21.7021 15.5967 21.7021 15.5958 21.7013C15.5949 21.7007 15.594 21.7001 15.5935 21.6995H15.7165L16.0487 22.1229V21.7899C16.0487 21.7638 16.044 21.743 16.0351 21.7273C16.0258 21.7117 16.0133 21.7024 15.9977 21.6995H16.1593C16.1564 21.7019 16.1532 21.7042 16.1503 21.7059C16.1471 21.7076 16.1442 21.7094 16.141 21.7105C16.1326 21.7155 16.1254 21.7221 16.1196 21.7305C16.1138 21.7389 16.1098 21.7566 16.1072 21.7835V22.2714C16.1017 22.2709 16.0956 22.2691 16.0883 22.2665C16.0814 22.2639 16.0741 22.2598 16.0669 22.2552C16.0602 22.2515 16.0536 22.2474 16.0472 22.2425C16.0408 22.2376 16.0351 22.2326 16.0296 22.228C16.0272 22.2257 16.0249 22.2231 16.0226 22.2208C16.0206 22.2184 16.0185 22.2158 16.0168 22.2135L15.7038 21.8159V22.1617C15.7038 22.1843 15.7073 22.2014 15.7142 22.2132C15.7212 22.2251 15.7327 22.2358 15.7484 22.2457H15.5932C15.5964 22.2439 15.5993 22.2419 15.6019 22.2402C15.6045 22.2384 15.6071 22.2364 15.6097 22.2347C15.6187 22.228 15.6265 22.2202 15.6326 22.2115C15.6386 22.2028 15.643 22.188 15.6453 22.1681L15.6456 22.1672ZM15.1968 22.1736V21.785C15.1968 21.7711 15.195 21.7572 15.1913 21.7436C15.1875 21.7299 15.1785 21.7172 15.1638 21.7056H15.4397C15.4432 21.7056 15.4467 21.7056 15.4501 21.7048C15.4533 21.7042 15.4565 21.7036 15.4597 21.703C15.4632 21.7024 15.4663 21.7013 15.4692 21.6995V21.8026C15.4577 21.7887 15.4414 21.7795 15.4209 21.7751C15.4003 21.7708 15.3766 21.7687 15.3497 21.7687H15.3227C15.3132 21.7687 15.3039 21.769 15.2949 21.7696C15.2926 21.7696 15.29 21.7696 15.2877 21.7702C15.2854 21.7705 15.2828 21.7708 15.2804 21.7708V21.9205H15.3589C15.3722 21.9205 15.3838 21.9205 15.3937 21.9196C15.4035 21.919 15.4113 21.9173 15.4174 21.9141V22.0053C15.4113 21.9949 15.4009 21.9879 15.3864 21.9845C15.372 21.981 15.3563 21.979 15.3398 21.979H15.2804V22.1741C15.2854 22.1747 15.29 22.1756 15.2946 22.1765C15.2993 22.1773 15.3039 22.1782 15.3088 22.1788C15.3161 22.1799 15.3233 22.1811 15.3308 22.182C15.3381 22.1828 15.3453 22.184 15.3528 22.1851C15.3601 22.1857 15.3673 22.1863 15.3748 22.1869C15.3821 22.1875 15.3893 22.1877 15.3969 22.1877C15.4061 22.1877 15.4151 22.1872 15.4241 22.1863C15.4333 22.1854 15.4423 22.184 15.4516 22.1822C15.4687 22.1785 15.4852 22.173 15.5014 22.1654C15.5176 22.1579 15.5332 22.1481 15.5483 22.1356L15.5017 22.2451H15.164C15.1701 22.239 15.1753 22.2335 15.1797 22.2283C15.184 22.2231 15.1872 22.2179 15.1898 22.2124C15.1921 22.2063 15.1942 22.2002 15.1953 22.1941C15.1965 22.188 15.1971 22.1814 15.1971 22.1741L15.1968 22.1736ZM14.7346 21.8837C14.7366 21.8837 14.739 21.8837 14.7416 21.8843C14.7442 21.8846 14.7471 21.8849 14.7497 21.8849C14.7511 21.8849 14.7526 21.8849 14.7543 21.8854C14.756 21.8857 14.7575 21.886 14.7589 21.886H14.7766C14.7798 21.886 14.783 21.8857 14.7862 21.8852C14.8151 21.8837 14.8415 21.8773 14.8652 21.8658C14.889 21.8542 14.9005 21.8348 14.9005 21.807V21.7908C14.8939 21.7467 14.8774 21.7213 14.851 21.7143C14.8247 21.7071 14.7859 21.7036 14.7343 21.7036V21.884L14.7346 21.8837ZM14.7346 22.1724C14.7387 22.173 14.7424 22.1736 14.7462 22.1738C14.75 22.1741 14.7537 22.1747 14.7578 22.1753C14.7694 22.1767 14.7807 22.1779 14.7917 22.1788C14.8027 22.1799 14.8134 22.1802 14.8235 22.1802C14.862 22.1802 14.8942 22.173 14.9197 22.1585C14.9454 22.144 14.9582 22.1171 14.9582 22.078V22.065C14.9582 22.0331 14.9457 22.0056 14.9205 21.9819C14.8956 21.9581 14.8499 21.9462 14.7838 21.9462C14.7804 21.9462 14.7766 21.9463 14.7728 21.9468C14.7688 21.9471 14.7647 21.9474 14.7607 21.9474C14.7566 21.9474 14.7523 21.9474 14.7479 21.948C14.7436 21.9483 14.739 21.9486 14.7343 21.9486V22.1724H14.7346ZM14.6341 22.1652V21.7172C14.6341 21.7132 14.6341 21.7091 14.6336 21.705C14.6333 21.701 14.6327 21.6969 14.6321 21.6929C14.6307 21.6822 14.6275 21.6717 14.622 21.6616C14.6165 21.6515 14.6084 21.6437 14.5977 21.6382H14.8145C14.8727 21.6382 14.9197 21.6515 14.9553 21.6775C14.9912 21.7039 15.0088 21.7386 15.0088 21.7821C15.0088 21.8078 15.0007 21.8316 14.9845 21.8539C14.9683 21.8762 14.9477 21.8909 14.9228 21.8985C14.9283 21.9005 14.9338 21.9025 14.9396 21.9046C14.9454 21.9066 14.9512 21.9089 14.9573 21.9118C14.9851 21.9234 15.0103 21.9405 15.0332 21.963C15.056 21.9856 15.0676 22.0195 15.0676 22.065C15.0656 22.1151 15.0508 22.1524 15.023 22.1773C14.9952 22.2022 14.9648 22.2199 14.9318 22.23C14.913 22.2355 14.8942 22.2393 14.8762 22.2413C14.858 22.2433 14.8423 22.2442 14.8296 22.2442H14.5977C14.6003 22.2422 14.6029 22.2402 14.6052 22.2381C14.6075 22.2361 14.6101 22.2341 14.6127 22.232C14.6208 22.2239 14.6263 22.2153 14.6295 22.2057C14.6327 22.1961 14.6341 22.1828 14.6341 22.1652Z" fill="#1C4484"/>
</g>
<defs>
<linearGradient id="paint0_linear_487_48716" x1="4.92969" y1="17.8816" x2="19.6627" y2="17.8816" gradientUnits="userSpaceOnUse">
<stop stop-color="#B88F3A"/>
<stop offset="0.5" stop-color="#DCC170"/>
<stop offset="1" stop-color="#B88F3A"/>
</linearGradient>
<linearGradient id="paint1_linear_487_48716" x1="4.668" y1="8.52134" x2="18.6062" y2="8.52134" gradientUnits="userSpaceOnUse">
<stop stop-color="#B88F3A"/>
<stop offset="0.5" stop-color="#DCC170"/>
<stop offset="1" stop-color="#B88F3A"/>
</linearGradient>
<linearGradient id="paint2_linear_487_48716" x1="5.17578" y1="21.9477" x2="19.6618" y2="21.9477" gradientUnits="userSpaceOnUse">
<stop stop-color="#B88F3A"/>
<stop offset="0.5" stop-color="#DCC170"/>
<stop offset="1" stop-color="#B88F3A"/>
</linearGradient>
<clipPath id="clip0_487_48716">
<rect width="14.9933" height="21.3333" fill="white" transform="translate(4.66797 1.33334)"/>
</clipPath>
</defs>
</svg>
